<svg xmlns="http://www.w3.org/2000/svg" xmlns:xlink="http://www.w3.org/1999/xlink" viewBox="0 0 40 39.33"><defs><style>.cls-1{fill:url(#鍊踑臇蜸馯鳺艜_205);}.cls-2{fill:url(#鍊踑臇蜸馯鳺艜_173);}.cls-3{fill:url(#鍊踑臇蜸馯鳺艜_223);}.cls-4{fill:url(#鍊踑臇蜸馯鳺艜_173-2);}.cls-5{fill:url(#鍊踑臇蜸馯鳺艜_49);}.cls-6{fill:url(#鍊踑臇蜸馯鳺艜_49-2);}.cls-7{fill:url(#鍊踑臇蜸馯鳺艜_117);}.cls-8{fill:url(#鍊踑臇蜸馯鳺艜_21);}.cls-9{fill:url(#鍊踑臇蜸馯鳺艜_165);}.cls-10{fill:url(#鍊踑臇蜸馯鳺艜_117-2);}.cls-11{fill:url(#鍊踑臇蜸馯鳺艜_117-3);}</style><linearGradient id="鍊踑臇蜸馯鳺艜_205" x1="20" y1="39.33" x2="20" gradientUnits="userSpaceOnUse"><stop offset="0.25" stop-color="#fed223"/><stop offset="0.44" stop-color="#fed62c"/><stop offset="0.74" stop-color="#fee244"/><stop offset="1" stop-color="#feef5e"/></linearGradient><linearGradient id="鍊踑臇蜸馯鳺艜_173" x1="20" y1="39.33" x2="20" y2="17.46" gradientUnits="userSpaceOnUse"><stop offset="0.25" stop-color="#feb123"/><stop offset="0.54" stop-color="#feba23"/><stop offset="1" stop-color="#fed223"/></linearGradient><linearGradient id="鍊踑臇蜸馯鳺艜_223" x1="20" y1="1.93" x2="20" y2="4.76" gradientUnits="userSpaceOnUse"><stop offset="0.25" stop-color="#fff8b5"/><stop offset="0.39" stop-color="#fff7ac"/><stop offset="0.62" stop-color="#fff594"/><stop offset="0.91" stop-color="#fef06c"/><stop offset="1" stop-color="#feef5e"/></linearGradient><linearGradient id="鍊踑臇蜸馯鳺艜_173-2" x1="20" y1="14.97" x2="20" y2="9.11" xlink:href="#鍊踑臇蜸馯鳺艜_173"/><linearGradient id="鍊踑臇蜸馯鳺艜_49" x1="12.67" y1="17.3" x2="12.67" y2="11.44" gradientUnits="userSpaceOnUse"><stop offset="0" stop-color="#feef5e"/><stop offset="0.26" stop-color="#fee244"/><stop offset="0.56" stop-color="#fed62c"/><stop offset="0.75" stop-color="#fed223"/></linearGradient><linearGradient id="鍊踑臇蜸馯鳺艜_49-2" x1="27.33" y1="17.3" x2="27.33" y2="11.44" xlink:href="#鍊踑臇蜸馯鳺艜_49"/><linearGradient id="鍊踑臇蜸馯鳺艜_117" x1="20.01" y1="32.9" x2="20.01" y2="20" gradientUnits="userSpaceOnUse"><stop offset="0.25" stop-color="#85321b"/><stop offset="0.42" stop-color="#7c2f1a"/><stop offset="0.7" stop-color="#642516"/><stop offset="1" stop-color="#421811"/></linearGradient><linearGradient id="鍊踑臇蜸馯鳺艜_21" x1="9.76" y1="22.99" x2="30.15" y2="22.99" gradientUnits="userSpaceOnUse"><stop offset="0" stop-color="#9bafba"/><stop offset="0.03" stop-color="#abbcc5"/><stop offset="0.11" stop-color="#c9d4da"/><stop offset="0.2" stop-color="#e1e7ea"/><stop offset="0.28" stop-color="#f2f4f6"/><stop offset="0.38" stop-color="#fcfcfd"/><stop offset="0.5" stop-color="#fff"/><stop offset="0.62" stop-color="#fcfcfd"/><stop offset="0.72" stop-color="#f2f4f6"/><stop offset="0.8" stop-color="#e1e7ea"/><stop offset="0.89" stop-color="#c9d4da"/><stop offset="0.97" stop-color="#abbcc5"/><stop offset="1" stop-color="#9bafba"/></linearGradient><linearGradient id="鍊踑臇蜸馯鳺艜_165" x1="19.97" y1="28.56" x2="19.97" y2="31.57" gradientUnits="userSpaceOnUse"><stop offset="0.25" stop-color="#f55151"/><stop offset="0.56" stop-color="#ee4a48"/><stop offset="1" stop-color="#df3a33"/></linearGradient><linearGradient id="鍊踑臇蜸馯鳺艜_117-2" x1="12.67" y1="16.3" x2="12.67" y2="10.44" xlink:href="#鍊踑臇蜸馯鳺艜_117"/><linearGradient id="鍊踑臇蜸馯鳺艜_117-3" x1="27.33" y1="16.3" x2="27.33" y2="10.44" xlink:href="#鍊踑臇蜸馯鳺艜_117"/></defs><title>資產 1</title><g id="圖層_2" data-name="圖層 2"><g id="Icons"><g id="Icon"><g id="Body"><path id="Body-2" data-name="Body" class="cls-1" d="M40,21c0,11.74-8.07,18.33-20,18.33S0,32.74,0,21C0,8.82,7.62,0,20,0S40,8.82,40,21Z"/><path class="cls-2" d="M20,34.33C3.59,33.89,1.61,27.14.23,17.46A27.22,27.22,0,0,0,0,21C0,32.74,8.07,39.33,20,39.33S40,32.74,40,21a27.22,27.22,0,0,0-.23-3.54C38.39,27.14,34.83,34.72,20,34.33Z"/><path class="cls-3" d="M24.83,3.35C24.71,4.05,23,4.76,20,4.76s-4.71-.71-4.83-1.41S17.43,1.93,20,1.93,24.94,2.65,24.83,3.35Z"/></g><path class="cls-4" d="M25.19,13.56a4.73,4.73,0,0,1-.33-2.29c.28-2.88,4.67-2.88,4.95,0a4.73,4.73,0,0,1-.34,2.29A2.33,2.33,0,0,1,25.19,13.56Zm-10.38,0a4.73,4.73,0,0,0,.33-2.29c-.28-2.88-4.67-2.88-5,0a4.73,4.73,0,0,0,.34,2.29A2.33,2.33,0,0,0,14.81,13.56Z"/><g id="Face"><path class="cls-5" d="M14.81,15.89a2.33,2.33,0,0,1-4.28,0,4.69,4.69,0,0,1-.34-2.28,2.5,2.5,0,0,1,5,0A4.69,4.69,0,0,1,14.81,15.89Z"/><path class="cls-6" d="M25.19,15.89a2.33,2.33,0,0,0,4.28,0,4.69,4.69,0,0,0,.34-2.28,2.5,2.5,0,0,0-4.95,0A4.69,4.69,0,0,0,25.19,15.89Z"/><path class="cls-7" d="M31.37,21.7A34.59,34.59,0,0,0,20,20,34.06,34.06,0,0,0,8.63,21.7c-1.46.54-.83,1.93-.59,2.6a12.69,12.69,0,0,0,12,8.6c5.22,0,10-3,12.23-9.35A1.45,1.45,0,0,0,31.37,21.7Z"/><path class="cls-8" d="M30.15,22.7A35.19,35.19,0,0,0,20,21.33a33.87,33.87,0,0,0-10.2,1.4c.16,1.12,1.43,1.93,10.2,1.93S30,23.84,30.15,22.7Z"/><path class="cls-9" d="M25.22,30.26c-.77-1.51-3.9-2.44-5.25-.94-1.34-1.5-4.47-.57-5.25.94A11.18,11.18,0,0,0,25.22,30.26Z"/><path class="cls-10" d="M14.81,14.89a2.33,2.33,0,0,1-4.28,0,4.69,4.69,0,0,1-.34-2.28,2.5,2.5,0,0,1,5,0A4.69,4.69,0,0,1,14.81,14.89Z"/><path class="cls-11" d="M25.19,14.89a2.33,2.33,0,0,0,4.28,0,4.69,4.69,0,0,0,.34-2.28,2.5,2.5,0,0,0-4.95,0A4.69,4.69,0,0,0,25.19,14.89Z"/></g></g></g></g></svg>