<svg xmlns="http://www.w3.org/2000/svg" xmlns:xlink="http://www.w3.org/1999/xlink" viewBox="0 0 40 39.33"><defs><style>.cls-1{fill:url(#鍊踑臇蜸馯鳺艜_56);}.cls-2{fill:url(#鍊踑臇蜸馯鳺艜_173);}.cls-3{fill:url(#鍊踑臇蜸馯鳺艜_223);}.cls-4{fill:url(#鍊踑臇蜸馯鳺艜_173-2);}.cls-5{fill:url(#鍊踑臇蜸馯鳺艜_3);}.cls-6{fill:url(#鍊踑臇蜸馯鳺艜_56-2);}.cls-7{fill:url(#鍊踑臇蜸馯鳺艜_56-3);}.cls-8{fill:url(#鍊踑臇蜸馯鳺艜_117);}.cls-9{fill:url(#鍊踑臇蜸馯鳺艜_117-2);}.cls-10{fill:url(#鍊踑臇蜸馯鳺艜_117-3);}.cls-11{fill:#d97818;}</style><linearGradient id="鍊踑臇蜸馯鳺艜_56" x1="20" y1="39.33" x2="20" gradientUnits="userSpaceOnUse"><stop offset="0.25" stop-color="#fed223"/><stop offset="0.44" stop-color="#fed62c"/><stop offset="0.74" stop-color="#fee244"/><stop offset="1" stop-color="#feef5e"/></linearGradient><linearGradient id="鍊踑臇蜸馯鳺艜_173" x1="20" y1="39.33" x2="20" y2="17.46" gradientUnits="userSpaceOnUse"><stop offset="0.25" stop-color="#feb123"/><stop offset="0.54" stop-color="#feba23"/><stop offset="1" stop-color="#fed223"/></linearGradient><linearGradient id="鍊踑臇蜸馯鳺艜_223" x1="16.62" y1="2.3" x2="16.62" y2="5.49" gradientUnits="userSpaceOnUse"><stop offset="0.25" stop-color="#fff8b5"/><stop offset="0.39" stop-color="#fff7ac"/><stop offset="0.62" stop-color="#fff594"/><stop offset="0.91" stop-color="#fef06c"/><stop offset="1" stop-color="#feef5e"/></linearGradient><linearGradient id="鍊踑臇蜸馯鳺艜_173-2" x1="19.33" y1="22.25" x2="19.33" y2="5.82" xlink:href="#鍊踑臇蜸馯鳺艜_173"/><linearGradient id="鍊踑臇蜸馯鳺艜_3" x1="21" y1="30.48" x2="21" y2="27.01" gradientUnits="userSpaceOnUse"><stop offset="0" stop-color="#feef5e"/><stop offset="0.26" stop-color="#fee244"/><stop offset="0.56" stop-color="#fed62c"/><stop offset="0.75" stop-color="#fed223"/></linearGradient><linearGradient id="鍊踑臇蜸馯鳺艜_56-2" x1="26.62" y1="19.91" x2="26.62" y2="11.03" xlink:href="#鍊踑臇蜸馯鳺艜_56"/><linearGradient id="鍊踑臇蜸馯鳺艜_56-3" x1="13.29" y1="19.74" x2="13.29" y2="13.88" xlink:href="#鍊踑臇蜸馯鳺艜_56"/><linearGradient id="鍊踑臇蜸馯鳺艜_117" x1="21" y1="29.48" x2="21" y2="26.01" gradientUnits="userSpaceOnUse"><stop offset="0.25" stop-color="#85321b"/><stop offset="0.42" stop-color="#7c2f1a"/><stop offset="0.7" stop-color="#642516"/><stop offset="1" stop-color="#421811"/></linearGradient><linearGradient id="鍊踑臇蜸馯鳺艜_117-2" x1="26.62" y1="20.91" x2="26.62" y2="12.03" xlink:href="#鍊踑臇蜸馯鳺艜_117"/><linearGradient id="鍊踑臇蜸馯鳺艜_117-3" x1="13.29" y1="20.74" x2="13.29" y2="14.88" xlink:href="#鍊踑臇蜸馯鳺艜_117"/></defs><title>資產 10</title><g id="圖層_2" data-name="圖層 2"><g id="Icons"><g id="Icon"><g id="Body"><path id="Body-2" data-name="Body" class="cls-1" d="M40,21c0,11.74-8.07,18.33-20,18.33S0,32.74,0,21C0,8.82,7.62,0,20,0S40,8.82,40,21Z"/><path class="cls-2" d="M20,34.33C3.59,33.89,1.61,27.14.23,17.46A27.22,27.22,0,0,0,0,21C0,32.74,8.07,39.33,20,39.33S40,32.74,40,21a27.22,27.22,0,0,0-.23-3.54C38.39,27.14,34.83,34.72,20,34.33Z"/><path class="cls-3" d="M12.17,4.68c.23.68,2.05,1.09,5,.59s3.93-1.42,3.92-2.13-1.85-1.09-4.39-.66S12,4,12.17,4.68Z"/></g><path class="cls-4" d="M22.2,7a6.07,6.07,0,0,1,4.4-1.2,8.15,8.15,0,0,1,4.24,1.49.5.5,0,0,1,.2.53.51.51,0,0,1-.63.37,14.85,14.85,0,0,0-3.87-.47,28.73,28.73,0,0,0-3.75.48A.7.7,0,0,1,22.13,8,.68.68,0,0,1,22.2,7Zm-5.67,4.34a.68.68,0,0,0-.65-.22,28.47,28.47,0,0,1-3.76.47,15.32,15.32,0,0,1-3.87-.46.5.5,0,0,0-.62.37.51.51,0,0,0,.19.53,8.31,8.31,0,0,0,4.25,1.49,6.14,6.14,0,0,0,4.4-1.2A.7.7,0,0,0,16.53,11.38Zm-.76,8.52c0-.15,0-.31,0-.47a4.75,4.75,0,0,0-.36-1.81,2.33,2.33,0,0,0-4.28,0,4.75,4.75,0,0,0-.36,1.81c0,.16,0,.32,0,.47A2.5,2.5,0,0,0,15.77,19.9Zm13.3.37a11.4,11.4,0,0,0,.22-2.2,11,11,0,0,0-.41-3,2.34,2.34,0,0,0-4.51,0,11,11,0,0,0-.41,3,10.66,10.66,0,0,0,.22,2.2A2.5,2.5,0,0,0,29.07,20.27Z"/><g id="Face"><path class="cls-5" d="M16.39,27.69c1.47-.06,2.93-.19,4.45-.37A35,35,0,0,1,25.6,27a1.34,1.34,0,0,1,.14,2.66s-3.78.53-4.57.62a20,20,0,0,1-4.9.05,1.34,1.34,0,0,1,.12-2.66Z"/><g id="Eyes"><path class="cls-6" d="M24,15.74a10.66,10.66,0,0,0,.22,2.2,2.5,2.5,0,0,0,4.89,0,11.4,11.4,0,0,0,.22-2.2,11.1,11.1,0,0,0-.41-3,2.34,2.34,0,0,0-4.51,0A11.1,11.1,0,0,0,24,15.74Z"/><path class="cls-7" d="M15.43,15.29a2.33,2.33,0,0,0-4.28,0,4.75,4.75,0,0,0-.36,1.81c0,.16,0,.32,0,.47a2.5,2.5,0,0,0,5,0c0-.15,0-.31,0-.47A4.75,4.75,0,0,0,15.43,15.29Z"/></g><path class="cls-8" d="M16.39,26.69c1.47-.06,2.93-.19,4.45-.37A35,35,0,0,1,25.6,26a1.34,1.34,0,0,1,.14,2.66s-3.78.53-4.57.62a20,20,0,0,1-4.9.05,1.34,1.34,0,0,1,.12-2.66Z"/><g id="Eyes-2" data-name="Eyes"><path class="cls-9" d="M24,16.74a10.66,10.66,0,0,0,.22,2.2,2.5,2.5,0,0,0,4.89,0,11.4,11.4,0,0,0,.22-2.2,11.1,11.1,0,0,0-.41-3,2.34,2.34,0,0,0-4.51,0A11.1,11.1,0,0,0,24,16.74Z"/><path class="cls-10" d="M15.43,16.29a2.33,2.33,0,0,0-4.28,0,4.75,4.75,0,0,0-.36,1.81c0,.16,0,.32,0,.47a2.5,2.5,0,0,0,5,0c0-.15,0-.31,0-.47A4.75,4.75,0,0,0,15.43,16.29Z"/></g><g id="Eyebrows"><path class="cls-11" d="M22.79,6.9a28.55,28.55,0,0,1,3.75-.47,15.27,15.27,0,0,1,3.87.46A.51.51,0,0,0,31,6.52a.52.52,0,0,0-.2-.53A8.24,8.24,0,0,0,26.6,4.5a6.11,6.11,0,0,0-4.4,1.2.69.69,0,0,0,.59,1.2Z"/><path class="cls-11" d="M15.88,9.82a28.65,28.65,0,0,1-3.76.48,14.9,14.9,0,0,1-3.87-.47.51.51,0,0,0-.43.9,8.22,8.22,0,0,0,4.25,1.49,6.09,6.09,0,0,0,4.4-1.2.7.7,0,0,0-.59-1.2Z"/></g></g></g></g></g></svg>