<svg xmlns="http://www.w3.org/2000/svg" xmlns:xlink="http://www.w3.org/1999/xlink" viewBox="0 0 40 39.33"><defs><style>.cls-1{fill:url(#鍊踑臇蜸馯鳺艜_205);}.cls-2{fill:url(#鍊踑臇蜸馯鳺艜_173);}.cls-3{fill:url(#鍊踑臇蜸馯鳺艜_223);}.cls-4{fill:url(#鍊踑臇蜸馯鳺艜_173-2);}.cls-5{fill:url(#鍊踑臇蜸馯鳺艜_83);}.cls-6{fill:url(#鍊踑臇蜸馯鳺艜_117);}.cls-7{fill:url(#鍊踑臇蜸馯鳺艜_126);}.cls-8{fill:url(#鍊踑臇蜸馯鳺艜_130);}.cls-9{fill:url(#鍊踑臇蜸馯鳺艜_157);}.cls-10{fill:url(#鍊踑臇蜸馯鳺艜_157-2);}</style><linearGradient id="鍊踑臇蜸馯鳺艜_205" x1="20" y1="39.33" x2="20" gradientUnits="userSpaceOnUse"><stop offset="0.25" stop-color="#fed223"/><stop offset="0.44" stop-color="#fed62c"/><stop offset="0.74" stop-color="#fee244"/><stop offset="1" stop-color="#feef5e"/></linearGradient><linearGradient id="鍊踑臇蜸馯鳺艜_173" x1="20" y1="39.33" x2="20" y2="17.46" gradientUnits="userSpaceOnUse"><stop offset="0.25" stop-color="#feb123"/><stop offset="0.54" stop-color="#feba23"/><stop offset="1" stop-color="#fed223"/></linearGradient><linearGradient id="鍊踑臇蜸馯鳺艜_223" x1="20" y1="1.93" x2="20" y2="4.76" gradientUnits="userSpaceOnUse"><stop offset="0.25" stop-color="#fff8b5"/><stop offset="0.39" stop-color="#fff7ac"/><stop offset="0.62" stop-color="#fff594"/><stop offset="0.91" stop-color="#fef06c"/><stop offset="1" stop-color="#feef5e"/></linearGradient><linearGradient id="鍊踑臇蜸馯鳺艜_173-2" x1="19.96" y1="22.74" x2="19.96" y2="10.07" xlink:href="#鍊踑臇蜸馯鳺艜_173"/><linearGradient id="鍊踑臇蜸馯鳺艜_83" x1="20" y1="31.96" x2="20" y2="25.66" gradientUnits="userSpaceOnUse"><stop offset="0" stop-color="#feef5e"/><stop offset="0.26" stop-color="#fee244"/><stop offset="0.56" stop-color="#fed62c"/><stop offset="0.75" stop-color="#fed223"/></linearGradient><linearGradient id="鍊踑臇蜸馯鳺艜_117" x1="20" y1="30.96" x2="20" y2="24.66" gradientUnits="userSpaceOnUse"><stop offset="0.25" stop-color="#85321b"/><stop offset="0.42" stop-color="#7c2f1a"/><stop offset="0.7" stop-color="#642516"/><stop offset="1" stop-color="#421811"/></linearGradient><linearGradient id="鍊踑臇蜸馯鳺艜_126" x1="19.96" y1="8.74" x2="19.96" y2="21.4" gradientUnits="userSpaceOnUse"><stop offset="0.25" stop-color="#170f02"/><stop offset="0.44" stop-color="#1a150b"/><stop offset="0.75" stop-color="#202423"/><stop offset="1" stop-color="#27333b"/></linearGradient><linearGradient id="鍊踑臇蜸馯鳺艜_130" x1="19.96" y1="19.71" x2="19.96" y2="10.82" gradientUnits="userSpaceOnUse"><stop offset="0.25" stop-color="#526470"/><stop offset="0.45" stop-color="#4b5c67"/><stop offset="0.78" stop-color="#37454f"/><stop offset="1" stop-color="#27333b"/></linearGradient><linearGradient id="鍊踑臇蜸馯鳺艜_157" x1="10.29" y1="15.82" x2="4.53" y2="15.82" gradientUnits="userSpaceOnUse"><stop offset="0.25" stop-color="#526470"/><stop offset="0.41" stop-color="#5b6d79"/><stop offset="0.66" stop-color="#728591"/><stop offset="0.98" stop-color="#99adb8"/><stop offset="1" stop-color="#9bafba"/></linearGradient><linearGradient id="鍊踑臇蜸馯鳺艜_157-2" x1="29.64" y1="15.78" x2="23.91" y2="15.78" xlink:href="#鍊踑臇蜸馯鳺艜_157"/></defs><title>資產 11</title><g id="圖層_2" data-name="圖層 2"><g id="Icons"><g id="Icon"><g id="Body"><path id="Body-2" data-name="Body" class="cls-1" d="M40,21c0,11.74-8.07,18.33-20,18.33S0,32.74,0,21C0,8.82,7.62,0,20,0S40,8.82,40,21Z"/><path class="cls-2" d="M20,34.33C3.59,33.89,1.61,27.14.23,17.46A27.22,27.22,0,0,0,0,21C0,32.74,8.07,39.33,20,39.33S40,32.74,40,21a27.22,27.22,0,0,0-.23-3.54C38.39,27.14,34.83,34.72,20,34.33Z"/><path class="cls-3" d="M24.83,3.35C24.71,4.05,23,4.76,20,4.76s-4.71-.71-4.83-1.41S17.43,1.93,20,1.93,24.94,2.65,24.83,3.35Z"/></g><path id="Shadow" class="cls-4" d="M2.23,16.58c.89,3.12,1.39,4.31,2.3,5,2,1.54,7.64,1.3,10,.54,1.4-.44,2.1-1.23,3.6-4.46a2,2,0,0,1,3.63,0c1.5,3.23,2.2,4,3.61,4.46,2.36.76,8.05,1,10-.54.91-.71,1.42-1.9,2.3-5,.64-2.25,1.28-1.09,1.28-2.93a22,22,0,0,0-1.1-2.88,24.27,24.27,0,0,0-5.84-.7c-8.4,0-10.68,2.68-12.06,2.71S16.3,10.07,7.89,10.07a24.3,24.3,0,0,0-5.74.68A21.37,21.37,0,0,0,1,13.92C1,15.37,1.63,14.45,2.23,16.58Z"/><g id="Face"><path class="cls-5" d="M12.23,25.85A9.94,9.94,0,0,0,20,28.63c4-.08,5.64-.88,7.81-2.77a.68.68,0,0,1,1,.05.67.67,0,0,1,.13.67C27.64,30.33,24,31.94,20,32c-4.49.1-7.75-2.19-8.93-5.37a.68.68,0,0,1,.4-.87A.68.68,0,0,1,12.23,25.85Z"/><path class="cls-6" d="M12.23,24.85A9.94,9.94,0,0,0,20,27.63c4-.08,5.64-.88,7.81-2.77a.68.68,0,0,1,1,.05.67.67,0,0,1,.13.67C27.64,29.33,24,30.94,20,31c-4.49.1-7.75-2.19-8.93-5.37a.68.68,0,0,1,.4-.87A.68.68,0,0,1,12.23,24.85Z"/><g id="Glasses"><path class="cls-7" d="M37.88,9.44A24.42,24.42,0,0,0,32,8.74c-8.4,0-10.68,2.68-12.06,2.71S16.3,8.74,7.89,8.74A24.54,24.54,0,0,0,2,9.44C1.18,9.64,1,10,1,10.62v1.7c0,1.83.63.68,1.27,2.92.89,3.13,1.39,4.31,2.3,5,2,1.53,7.64,1.3,10,.54,1.4-.45,2.1-1.24,3.6-4.46a2,2,0,0,1,3.63,0c1.5,3.22,2.2,4,3.61,4.46,2.36.76,8.05,1,10-.54.91-.72,1.42-1.9,2.3-5C38.32,13,39,14.15,39,12.32v-1.7C39,10,38.73,9.64,37.88,9.44Z"/><path class="cls-8" d="M16.51,14.82c-1,2.9-1.44,4.17-3.25,4.57a17.24,17.24,0,0,1-6.6,0c-2.12-.53-3-5-3-5.85,0-2.21,1.84-2.8,6.25-2.7C13.61,10.91,17.6,11.53,16.51,14.82Zm13.5-4c-3.71.08-7.7.7-6.61,4,1,2.9,1.44,4.17,3.25,4.57a17.29,17.29,0,0,0,6.61,0c2.11-.53,3-5,3-5.85C36.27,11.32,34.42,10.73,30,10.83Z"/><path class="cls-9" d="M4.82,14.67a3.74,3.74,0,0,0,.29,3.44,2.81,2.81,0,0,0,1.55,1.27l.59.12,3-7.33C8.48,12.12,5.94,12,4.82,14.67Z"/><path class="cls-10" d="M24.12,14.83a2.58,2.58,0,0,0,0,2c.61,1.55,1.23,2.32,2.56,2.61l3-7.22C27.38,12.25,25.15,12.35,24.12,14.83Z"/></g></g></g></g></g></svg>