<svg xmlns="http://www.w3.org/2000/svg" xmlns:xlink="http://www.w3.org/1999/xlink" viewBox="0 0 40 39.33"><defs><style>.cls-1{fill:url(#鍊踑臇蜸馯鳺艜_205);}.cls-2{fill:url(#鍊踑臇蜸馯鳺艜_173);}.cls-3{fill:url(#鍊踑臇蜸馯鳺艜_223);}.cls-4{fill:url(#鍊踑臇蜸馯鳺艜_406);}.cls-5{fill:url(#鍊踑臇蜸馯鳺艜_117);}.cls-6{fill:url(#鍊踑臇蜸馯鳺艜_21);}.cls-7{fill:url(#鍊踑臇蜸馯鳺艜_165);}.cls-8{fill:url(#鍊踑臇蜸馯鳺艜_28);}.cls-9{fill:url(#鍊踑臇蜸馯鳺艜_223-2);}.cls-10{fill:url(#鍊踑臇蜸馯鳺艜_281);}.cls-11{fill:url(#鍊踑臇蜸馯鳺艜_28-2);}.cls-12{fill:url(#鍊踑臇蜸馯鳺艜_223-3);}.cls-13{fill:url(#鍊踑臇蜸馯鳺艜_281-2);}</style><linearGradient id="鍊踑臇蜸馯鳺艜_205" x1="20" y1="39.33" x2="20" gradientUnits="userSpaceOnUse"><stop offset="0.25" stop-color="#fed223"/><stop offset="0.44" stop-color="#fed62c"/><stop offset="0.74" stop-color="#fee244"/><stop offset="1" stop-color="#feef5e"/></linearGradient><linearGradient id="鍊踑臇蜸馯鳺艜_173" x1="20" y1="39.33" x2="20" y2="17.46" gradientUnits="userSpaceOnUse"><stop offset="0.25" stop-color="#feb123"/><stop offset="0.54" stop-color="#feba23"/><stop offset="1" stop-color="#fed223"/></linearGradient><linearGradient id="鍊踑臇蜸馯鳺艜_223" x1="20.05" y1="1.68" x2="20.05" y2="4.35" gradientUnits="userSpaceOnUse"><stop offset="0.25" stop-color="#fff8b5"/><stop offset="0.39" stop-color="#fff7ac"/><stop offset="0.62" stop-color="#fff594"/><stop offset="0.91" stop-color="#fef06c"/><stop offset="1" stop-color="#feef5e"/></linearGradient><linearGradient id="鍊踑臇蜸馯鳺艜_406" x1="20" y1="2.96" x2="20" y2="21.07" gradientUnits="userSpaceOnUse"><stop offset="0.25" stop-color="#fed223"/><stop offset="0.54" stop-color="#fec923"/><stop offset="1" stop-color="#feb123"/></linearGradient><linearGradient id="鍊踑臇蜸馯鳺艜_117" x1="20.05" y1="32.64" x2="20.05" y2="19.73" gradientUnits="userSpaceOnUse"><stop offset="0.25" stop-color="#85321b"/><stop offset="0.42" stop-color="#7c2f1a"/><stop offset="0.7" stop-color="#642516"/><stop offset="1" stop-color="#421811"/></linearGradient><linearGradient id="鍊踑臇蜸馯鳺艜_21" x1="9.8" y1="22.73" x2="30.2" y2="22.73" gradientUnits="userSpaceOnUse"><stop offset="0" stop-color="#9bafba"/><stop offset="0.03" stop-color="#abbcc5"/><stop offset="0.11" stop-color="#c9d4da"/><stop offset="0.2" stop-color="#e1e7ea"/><stop offset="0.28" stop-color="#f2f4f6"/><stop offset="0.38" stop-color="#fcfcfd"/><stop offset="0.5" stop-color="#fff"/><stop offset="0.62" stop-color="#fcfcfd"/><stop offset="0.72" stop-color="#f2f4f6"/><stop offset="0.8" stop-color="#e1e7ea"/><stop offset="0.89" stop-color="#c9d4da"/><stop offset="0.97" stop-color="#abbcc5"/><stop offset="1" stop-color="#9bafba"/></linearGradient><linearGradient id="鍊踑臇蜸馯鳺艜_165" x1="20.02" y1="28.29" x2="20.02" y2="31.3" gradientUnits="userSpaceOnUse"><stop offset="0.25" stop-color="#f55151"/><stop offset="0.56" stop-color="#ee4a48"/><stop offset="1" stop-color="#df3a33"/></linearGradient><linearGradient id="鍊踑臇蜸馯鳺艜_28" x1="30.54" y1="19.74" x2="30.54" y2="1.46" gradientUnits="userSpaceOnUse"><stop offset="0.25" stop-color="#d97818"/><stop offset="0.36" stop-color="#dc811d"/><stop offset="0.54" stop-color="#e3992c"/><stop offset="0.77" stop-color="#f0c143"/><stop offset="1" stop-color="#feef5e"/></linearGradient><linearGradient id="鍊踑臇蜸馯鳺艜_223-2" x1="30.32" y1="1.65" x2="30.32" y2="18.41" xlink:href="#鍊踑臇蜸馯鳺艜_223"/><linearGradient id="鍊踑臇蜸馯鳺艜_281" x1="28.31" y1="4.37" x2="28.31" y2="15.74" gradientUnits="userSpaceOnUse"><stop offset="0.25" stop-color="#fff"/><stop offset="0.36" stop-color="#fffff6"/><stop offset="0.54" stop-color="#ffffde"/><stop offset="0.77" stop-color="#ffffb6"/><stop offset="1" stop-color="#ffff86"/></linearGradient><linearGradient id="鍊踑臇蜸馯鳺艜_28-2" x1="9.46" y1="19.74" x2="9.46" y2="1.46" xlink:href="#鍊踑臇蜸馯鳺艜_28"/><linearGradient id="鍊踑臇蜸馯鳺艜_223-3" x1="9.67" y1="1.65" x2="9.67" y2="18.41" xlink:href="#鍊踑臇蜸馯鳺艜_223"/><linearGradient id="鍊踑臇蜸馯鳺艜_281-2" x1="11.53" y1="4.9" x2="11.53" y2="18.01" xlink:href="#鍊踑臇蜸馯鳺艜_281"/></defs><title>資產 12</title><g id="圖層_2" data-name="圖層 2"><g id="Icons"><g id="Icon"><g id="Body"><path id="Body-2" data-name="Body" class="cls-1" d="M40,21c0,11.74-8.07,18.33-20,18.33S0,32.74,0,21C0,8.82,7.62,0,20,0S40,8.82,40,21Z"/><path class="cls-2" d="M20,34.33C3.59,33.89,1.61,27.14.23,17.46A27.22,27.22,0,0,0,0,21C0,32.74,8.07,39.33,20,39.33S40,32.74,40,21a27.22,27.22,0,0,0-.23-3.54C38.39,27.14,34.83,34.72,20,34.33Z"/><path class="cls-3" d="M23.71,2.68c-.12.5-.53,1.67-3.66,1.67s-3.54-1.17-3.66-1.67,1-1,3.66-1S23.83,2.19,23.71,2.68Z"/></g><path id="Shadow" class="cls-4" d="M18.33,7.54A1.33,1.33,0,0,1,18.23,9l-3,3.85,2,4.44A1.36,1.36,0,0,1,17,18.75a1.34,1.34,0,0,1-1.43.35L11,17.46,7.39,20.73a1.34,1.34,0,0,1-2.23-1l.14-4.86L1.39,12.59a21,21,0,0,1,1.35-3l3.3-1,.87-4.15A16.94,16.94,0,0,1,9,3a1.31,1.31,0,0,1,.28.2.77.77,0,0,1,.18.18l2.76,4.05,4.87-.53a.76.76,0,0,1,.26,0A1.29,1.29,0,0,1,18.33,7.54Zm18.93,2-3.3-1-.87-4.15A16.94,16.94,0,0,0,31,3a1.31,1.31,0,0,0-.28.2.77.77,0,0,0-.18.18L27.81,7.39l-4.87-.53a.76.76,0,0,0-.26,0,1.32,1.32,0,0,0-1,.66A1.35,1.35,0,0,0,21.77,9l3,3.85-2,4.44A1.36,1.36,0,0,0,23,18.75a1.34,1.34,0,0,0,1.43.35L29,17.46l3.61,3.27a1.34,1.34,0,0,0,2.23-1l-.15-4.86,3.92-2.25A21,21,0,0,0,37.26,9.58Z"/><g id="Face"><path class="cls-5" d="M31.41,21.43A34.85,34.85,0,0,0,20,19.73a34.35,34.35,0,0,0-11.37,1.7c-1.46.55-.83,1.94-.59,2.6a12.69,12.69,0,0,0,12,8.61c5.22,0,10-3.06,12.24-9.35A1.46,1.46,0,0,0,31.41,21.43Z"/><path class="cls-6" d="M30.2,22.44A35,35,0,0,0,20,21.06a33.92,33.92,0,0,0-10.2,1.4c.16,1.12,1.43,1.93,10.2,1.93S30.05,23.57,30.2,22.44Z"/><path class="cls-7" d="M25.27,30c-.77-1.51-3.91-2.44-5.25-.93-1.34-1.51-4.48-.58-5.25.93A11.16,11.16,0,0,0,25.27,30Z"/><g id="Stars"><g id="Star"><path class="cls-8" d="M30.55,2A1.33,1.33,0,0,1,33,2.52l1,4.76,4.67,1.37a1.35,1.35,0,0,1,.95,1.12,1.32,1.32,0,0,1-.67,1.31L34.69,13.5l.15,4.87a1.35,1.35,0,0,1-.78,1.25,1.33,1.33,0,0,1-1.45-.23L29,16.13l-4.58,1.63A1.32,1.32,0,0,1,23,17.41,1.35,1.35,0,0,1,22.75,16l2-4.44-3-3.85A1.33,1.33,0,0,1,23,5.53l4.84.52Z"/><path class="cls-9" d="M30.57,2a.85.85,0,0,1,.85-.35.82.82,0,0,1,.65.65l1,4.79,5.07,1.49a.67.67,0,0,1,.15,1.22l-4.59,2.63.15,5.28a.66.66,0,0,1-.38.63.67.67,0,0,1-.73-.11l-3.92-3.55-5,1.78a.67.67,0,0,1-.83-.9l2.16-4.83-3-3.87A.85.85,0,0,1,22.12,6a.84.84,0,0,1,.82-.42l4.87.52Z"/><path class="cls-10" d="M26.88,6l-1.7,4.79-3-3.87A.85.85,0,0,1,22.12,6a.84.84,0,0,1,.82-.42Zm6.2,1.15-.57-2.73L25.88,15.74l2.95-1.05,5.78-7.14Z"/></g><g id="Star-2" data-name="Star"><path class="cls-11" d="M6,7.28,1.37,8.65a1.33,1.33,0,0,0-.29,2.43L5.3,13.5l-.14,4.87a1.35,1.35,0,0,0,.78,1.25,1.33,1.33,0,0,0,1.45-.23L11,16.13l4.58,1.63A1.32,1.32,0,0,0,17,17.41,1.35,1.35,0,0,0,17.25,16l-2-4.44,3-3.85A1.34,1.34,0,0,0,17,5.53l-4.84.52L9.45,2a1.35,1.35,0,0,0-1.36-.56,1.34,1.34,0,0,0-1,1Z"/><path class="cls-12" d="M6.92,7.1,1.85,8.59A.67.67,0,0,0,1.7,9.81l4.59,2.63-.15,5.28a.66.66,0,0,0,.38.63.67.67,0,0,0,.73-.11l3.92-3.55,5,1.78a.67.67,0,0,0,.83-.9l-2.16-4.83,3-3.87A.85.85,0,0,0,17.88,6a.84.84,0,0,0-.82-.42l-4.87.52L9.43,2a.85.85,0,0,0-.85-.35.82.82,0,0,0-.65.65Z"/><path class="cls-13" d="M12.19,6.05l-6,12a.58.58,0,0,1-.06-.29l.15-5.28-1.21-.69L11.4,4.9ZM17.88,6a.84.84,0,0,0-.82-.42L15,5.75l-3.81,8.94,5,1.78a.67.67,0,0,0,.83-.9l-2.16-4.83,3-3.87A.85.85,0,0,0,17.88,6Z"/></g></g></g></g></g></g></svg>