<svg xmlns="http://www.w3.org/2000/svg" xmlns:xlink="http://www.w3.org/1999/xlink" viewBox="0 0 40 39.33"><defs><style>.cls-1{fill:url(#鍊踑臇蜸馯鳺艜_205);}.cls-2{fill:url(#鍊踑臇蜸馯鳺艜_173);}.cls-3{fill:url(#鍊踑臇蜸馯鳺艜_223);}.cls-4{fill:url(#鍊踑臇蜸馯鳺艜_173-2);}.cls-5{fill:url(#鍊踑臇蜸馯鳺艜_205-2);}.cls-6{fill:url(#鍊踑臇蜸馯鳺艜_117);}.cls-7{fill:url(#鍊踑臇蜸馯鳺艜_117-2);}.cls-8{fill:url(#鍊踑臇蜸馯鳺艜_117-3);}.cls-9{fill:#d97818;}</style><linearGradient id="鍊踑臇蜸馯鳺艜_205" x1="20" y1="39.33" x2="20" gradientUnits="userSpaceOnUse"><stop offset="0.25" stop-color="#fed223"/><stop offset="0.44" stop-color="#fed62c"/><stop offset="0.74" stop-color="#fee244"/><stop offset="1" stop-color="#feef5e"/></linearGradient><linearGradient id="鍊踑臇蜸馯鳺艜_173" x1="20" y1="39.33" x2="20" y2="17.46" gradientUnits="userSpaceOnUse"><stop offset="0.25" stop-color="#feb123"/><stop offset="0.54" stop-color="#feba23"/><stop offset="1" stop-color="#fed223"/></linearGradient><linearGradient id="鍊踑臇蜸馯鳺艜_223" x1="20" y1="1.93" x2="20" y2="4.76" gradientUnits="userSpaceOnUse"><stop offset="0.25" stop-color="#fff8b5"/><stop offset="0.39" stop-color="#fff7ac"/><stop offset="0.62" stop-color="#fff594"/><stop offset="0.91" stop-color="#fef06c"/><stop offset="1" stop-color="#feef5e"/></linearGradient><linearGradient id="鍊踑臇蜸馯鳺艜_173-2" x1="20" y1="19.7" x2="20" y2="7.86" xlink:href="#鍊踑臇蜸馯鳺艜_173"/><linearGradient id="鍊踑臇蜸馯鳺艜_205-2" x1="20" y1="29.37" x2="20" y2="27.82" xlink:href="#鍊踑臇蜸馯鳺艜_205"/><linearGradient id="鍊踑臇蜸馯鳺艜_117" x1="20" y1="29.37" x2="20" y2="24.5" gradientUnits="userSpaceOnUse"><stop offset="0.25" stop-color="#85321b"/><stop offset="0.42" stop-color="#7c2f1a"/><stop offset="0.7" stop-color="#642516"/><stop offset="1" stop-color="#421811"/></linearGradient><linearGradient id="鍊踑臇蜸馯鳺艜_117-2" x1="27" y1="18.37" x2="27" y2="12.64" xlink:href="#鍊踑臇蜸馯鳺艜_117"/><linearGradient id="鍊踑臇蜸馯鳺艜_117-3" x1="13.67" y1="18.37" x2="13.67" y2="12.64" xlink:href="#鍊踑臇蜸馯鳺艜_117"/></defs><title>資產 13</title><g id="圖層_2" data-name="圖層 2"><g id="Icons"><g id="Icon"><g id="Body"><path id="Body-2" data-name="Body" class="cls-1" d="M40,21c0,11.74-8.07,18.33-20,18.33S0,32.74,0,21C0,8.82,7.62,0,20,0S40,8.82,40,21Z"/><path class="cls-2" d="M20,34.33C3.59,33.89,1.61,27.14.23,17.46A27.22,27.22,0,0,0,0,21C0,32.74,8.07,39.33,20,39.33S40,32.74,40,21a27.22,27.22,0,0,0-.23-3.54C38.39,27.14,34.83,34.72,20,34.33Z"/><path class="cls-3" d="M24.83,3.35C24.71,4.05,23,4.76,20,4.76s-4.71-.71-4.83-1.41S17.43,1.93,20,1.93,24.94,2.65,24.83,3.35Z"/></g><path class="cls-4" d="M34.2,13.19a.51.51,0,0,1-.73-.06,10,10,0,0,0-3.41-2.88,5.11,5.11,0,0,0-3.9-.06.69.69,0,0,1-.76-1.1,4.54,4.54,0,0,1,5.52-.56,7.73,7.73,0,0,1,3.42,4.1A.5.5,0,0,1,34.2,13.19Zm-7.78,4.35c.28,2.88,4.67,2.88,4.95,0,.18-1.85-.79-3.1-2.86-3.48a9.43,9.43,0,0,0-5.65,1,.51.51,0,0,0,.34.94c1.17-.06,2.21-.12,3.41-.07A3.3,3.3,0,0,0,26.42,17.54Zm-8.38,0c.18-1.85-.79-3.1-2.87-3.48a9.4,9.4,0,0,0-5.64,1,.51.51,0,0,0,.33.94c1.18-.06,2.22-.12,3.42-.07a3.41,3.41,0,0,0-.2,1.62C13.36,20.42,17.75,20.42,18,17.54ZM5.8,13.19a.51.51,0,0,0,.73-.06,10,10,0,0,1,3.41-2.88,5.11,5.11,0,0,1,3.9-.06.69.69,0,0,0,.76-1.1,4.54,4.54,0,0,0-5.52-.56,7.73,7.73,0,0,0-3.42,4.1A.5.5,0,0,0,5.8,13.19Z"/><g id="Face"><path class="cls-5" d="M12.82,29.06c1-.74,3.92-1.23,7.19-1.24,2.85,0,6.19.4,7.17,1.24.23.2-.43.37-1,.28a38.37,38.37,0,0,0-6.2-.46,32.64,32.64,0,0,0-6.14.45C13.15,29.45,12.58,29.24,12.82,29.06Z"/><path class="cls-6" d="M12.82,28.41c1-2.34,3.92-3.88,7.19-3.91,2.85,0,6.19,1.26,7.17,3.91a.7.7,0,0,1-1,.86A13.74,13.74,0,0,0,20,27.82a11.52,11.52,0,0,0-6.14,1.43A.69.69,0,0,1,12.82,28.41Z"/><g id="_群組_" data-name="&lt;群組&gt;"><path class="cls-7" d="M28.51,12.73a9.35,9.35,0,0,0-5.65,1,.51.51,0,0,0,.34.94c1.17-.06,2.22-.13,3.41-.08a3.48,3.48,0,0,0-.19,1.63c.28,2.88,4.67,2.88,4.95,0C31.55,14.36,30.58,13.1,28.51,12.73Z"/><path class="cls-8" d="M15.17,12.73a9.32,9.32,0,0,0-5.64,1,.51.51,0,0,0,.33.94c1.18-.06,2.22-.13,3.42-.08a3.6,3.6,0,0,0-.2,1.63c.28,2.88,4.67,2.88,5,0C18.22,14.36,17.25,13.1,15.17,12.73Z"/></g><g id="Eyebrows"><path class="cls-9" d="M13.84,8.86a5.16,5.16,0,0,0-3.9.05A10.17,10.17,0,0,0,6.53,11.8a.51.51,0,0,1-.73.06.5.5,0,0,1-.14-.56A7.79,7.79,0,0,1,9.08,7.19a4.54,4.54,0,0,1,5.52.57.69.69,0,0,1,0,1A.71.71,0,0,1,13.84,8.86Z"/><path class="cls-9" d="M26.16,8.86a5.16,5.16,0,0,1,3.9.05,10.17,10.17,0,0,1,3.41,2.89.51.51,0,0,0,.73.06.5.5,0,0,0,.14-.56,7.79,7.79,0,0,0-3.42-4.11,4.54,4.54,0,0,0-5.52.57.69.69,0,0,0,0,1A.71.71,0,0,0,26.16,8.86Z"/></g></g></g></g></g></svg>