<svg xmlns="http://www.w3.org/2000/svg" xmlns:xlink="http://www.w3.org/1999/xlink" viewBox="0 0 40 39.33"><defs><style>.cls-1{fill:url(#鍊踑臇蜸馯鳺艜_205);}.cls-2{fill:url(#鍊踑臇蜸馯鳺艜_173);}.cls-3{fill:url(#鍊踑臇蜸馯鳺艜_223);}.cls-4{fill:url(#鍊踑臇蜸馯鳺艜_173-2);}.cls-5{fill:url(#鍊踑臇蜸馯鳺艜_60);}.cls-6{fill:url(#鍊踑臇蜸馯鳺艜_319);}.cls-7{fill:url(#鍊踑臇蜸馯鳺艜_319-2);}.cls-8{fill:url(#鍊踑臇蜸馯鳺艜_117);}.cls-9{fill:url(#鍊踑臇蜸馯鳺艜_117-2);}.cls-10{fill:#d97818;}.cls-11{fill:url(#鍊踑臇蜸馯鳺艜_79);}.cls-12{fill:url(#鍊踑臇蜸馯鳺艜_117-3);}.cls-13{fill:url(#鍊踑臇蜸馯鳺艜_165);}</style><linearGradient id="鍊踑臇蜸馯鳺艜_205" x1="20" y1="39.33" x2="20" gradientUnits="userSpaceOnUse"><stop offset="0.25" stop-color="#fed223"/><stop offset="0.44" stop-color="#fed62c"/><stop offset="0.74" stop-color="#fee244"/><stop offset="1" stop-color="#feef5e"/></linearGradient><linearGradient id="鍊踑臇蜸馯鳺艜_173" x1="20" y1="39.33" x2="20" y2="17.46" gradientUnits="userSpaceOnUse"><stop offset="0.25" stop-color="#feb123"/><stop offset="0.54" stop-color="#feba23"/><stop offset="1" stop-color="#fed223"/></linearGradient><linearGradient id="鍊踑臇蜸馯鳺艜_223" x1="20" y1="1.93" x2="20" y2="4.76" gradientUnits="userSpaceOnUse"><stop offset="0.25" stop-color="#fff8b5"/><stop offset="0.39" stop-color="#fff7ac"/><stop offset="0.62" stop-color="#fff594"/><stop offset="0.91" stop-color="#fef06c"/><stop offset="1" stop-color="#feef5e"/></linearGradient><linearGradient id="鍊踑臇蜸馯鳺艜_173-2" x1="20" y1="39.33" x2="20" y2="6.73" xlink:href="#鍊踑臇蜸馯鳺艜_173"/><linearGradient id="鍊踑臇蜸馯鳺艜_60" x1="20" y1="39.33" x2="20" y2="13.81" gradientUnits="userSpaceOnUse"><stop offset="0" stop-color="#1e72d8"/><stop offset="0.02" stop-color="#1e75d9"/><stop offset="0.34" stop-color="#249de5"/><stop offset="0.59" stop-color="#27b5ec"/><stop offset="0.75" stop-color="#28beef"/></linearGradient><linearGradient id="鍊踑臇蜸馯鳺艜_319" x1="8.51" y1="15.87" x2="8.51" y2="29.74" gradientUnits="userSpaceOnUse"><stop offset="0.25" stop-color="#78faff"/><stop offset="0.4" stop-color="#6ff3fd"/><stop offset="0.64" stop-color="#57e1f8"/><stop offset="0.95" stop-color="#2fc4f0"/><stop offset="1" stop-color="#28beef"/></linearGradient><linearGradient id="鍊踑臇蜸馯鳺艜_319-2" x1="31.49" y1="15.87" x2="31.49" y2="29.74" xlink:href="#鍊踑臇蜸馯鳺艜_319"/><linearGradient id="鍊踑臇蜸馯鳺艜_117" x1="10.96" y1="11.71" x2="10.96" y2="15.96" gradientUnits="userSpaceOnUse"><stop offset="0.25" stop-color="#85321b"/><stop offset="0.42" stop-color="#7c2f1a"/><stop offset="0.7" stop-color="#642516"/><stop offset="1" stop-color="#421811"/></linearGradient><linearGradient id="鍊踑臇蜸馯鳺艜_117-2" x1="29.04" y1="11.71" x2="29.04" y2="15.96" xlink:href="#鍊踑臇蜸馯鳺艜_117"/><linearGradient id="鍊踑臇蜸馯鳺艜_79" x1="20" y1="33.74" x2="20" y2="21.76" gradientUnits="userSpaceOnUse"><stop offset="0" stop-color="#feef5e"/><stop offset="0.26" stop-color="#fee244"/><stop offset="0.56" stop-color="#fed62c"/><stop offset="0.75" stop-color="#fed223"/></linearGradient><linearGradient id="鍊踑臇蜸馯鳺艜_117-3" x1="20" y1="32.74" x2="20" y2="20.76" xlink:href="#鍊踑臇蜸馯鳺艜_117"/><linearGradient id="鍊踑臇蜸馯鳺艜_165" x1="20" y1="28.4" x2="20" y2="31.41" gradientUnits="userSpaceOnUse"><stop offset="0.25" stop-color="#f55151"/><stop offset="0.56" stop-color="#ee4a48"/><stop offset="1" stop-color="#df3a33"/></linearGradient></defs><title>資產 14</title><g id="圖層_2" data-name="圖層 2"><g id="Icons"><g id="Icon"><g id="Body"><path id="Body-2" data-name="Body" class="cls-1" d="M40,21c0,11.74-8.07,18.33-20,18.33S0,32.74,0,21C0,8.82,7.62,0,20,0S40,8.82,40,21Z"/><path class="cls-2" d="M20,34.33C3.59,33.89,1.61,27.14.23,17.46A27.22,27.22,0,0,0,0,21C0,32.74,8.07,39.33,20,39.33S40,32.74,40,21a27.22,27.22,0,0,0-.23-3.54C38.39,27.14,34.83,34.72,20,34.33Z"/><path class="cls-3" d="M24.83,3.35C24.71,4.05,23,4.76,20,4.76s-4.71-.71-4.83-1.41S17.43,1.93,20,1.93,24.94,2.65,24.83,3.35Z"/></g><path class="cls-4" d="M26.1,7.53a.69.69,0,0,1,.6-.77A6.06,6.06,0,0,1,31,8.21a8.15,8.15,0,0,1,2.7,3.59.5.5,0,0,1-.13.55.51.51,0,0,1-.73,0,14.89,14.89,0,0,0-2.95-2.53,29.57,29.57,0,0,0-3.39-1.7A.69.69,0,0,1,26.1,7.53ZM6.41,12.35a.5.5,0,0,0,.72,0,15.23,15.23,0,0,1,3-2.53,29.57,29.57,0,0,1,3.39-1.7.69.69,0,0,0-.18-1.32A6.06,6.06,0,0,0,9,8.21a8.15,8.15,0,0,0-2.7,3.59A.5.5,0,0,0,6.41,12.35ZM23.25,39.16a25.86,25.86,0,0,0,3-.51c.64-.15,1.27-.33,1.88-.53a18,18,0,0,0,5.64-3c.42-.33.82-.7,1.21-1.07,2.17-9-.43-13.7-2.15-17.7l.3.07a.64.64,0,0,0,.77-.49.66.66,0,0,0-.13-.56,6.46,6.46,0,0,0-5.06-2.33,5.25,5.25,0,0,0-4.57,3.36.65.65,0,0,0,.35.84.62.62,0,0,0,.55,0l.52-.28A46.47,46.47,0,0,1,27.36,30.5C27,37.39,27,38,24.6,38.72a24.9,24.9,0,0,1-9.19,0c-2.28-.69-2.39-1-2.77-8.22a46.47,46.47,0,0,1,1.77-13.56l.52.28a.62.62,0,0,0,.55,0,.65.65,0,0,0,.35-.84,5.25,5.25,0,0,0-4.57-3.36A6.46,6.46,0,0,0,6.2,15.38a.69.69,0,0,0-.14.56.65.65,0,0,0,.77.49l.31-.07c-1.72,4-4.31,8.75-2.14,17.72,3.53,3.43,8.73,5.25,15,5.25A28.61,28.61,0,0,0,23.25,39.16Z"/><g id="Face"><path class="cls-5" d="M34.52,34.52c3.29-11.1-.42-16.16-2.15-20.68-11.74,0-4.84-1.32-5,15.33C27,36.06,27,36.65,24.6,37.39a25.12,25.12,0,0,1-9.19,0c-2.28-.69-2.39-1-2.77-8.22-.17-16.65,6.73-15.33-5-15.33C5.9,18.36,2.21,23.43,5.48,34.52,0,37.83,7.71,39.33,20,39.33S40,37.83,34.52,34.52Z"/><path class="cls-6" d="M10.85,16.92c-.22,1-.46,2-.65,3-.09.5-.18,1-.26,1.49s-.16,1-.22,1.49c-.14,1-.19,2-.3,3a19.14,19.14,0,0,1-.55,3v0a1.06,1.06,0,0,1-1.31.73,1,1,0,0,1-.67-.57,8.23,8.23,0,0,1-.72-3.37,14.48,14.48,0,0,1,.39-3.4q.21-.83.45-1.65c.19-.54.39-1.07.62-1.59A13.23,13.23,0,0,1,9.35,16.2a.85.85,0,0,1,1.2-.14.83.83,0,0,1,.3.84Z"/><path class="cls-7" d="M30.65,16.2a13.23,13.23,0,0,1,1.73,2.92c.23.52.43,1.05.62,1.59s.31,1.1.45,1.65a14.48,14.48,0,0,1,.39,3.4,8.23,8.23,0,0,1-.72,3.37,1.06,1.06,0,0,1-1.41.51,1,1,0,0,1-.57-.66v0a19.14,19.14,0,0,1-.55-3c-.11-1-.16-2-.3-3-.06-.5-.13-1-.22-1.49s-.17-1-.26-1.49c-.19-1-.43-2-.65-3v0a.85.85,0,0,1,1.5-.7Z"/><path class="cls-8" d="M6.2,14.05a6.46,6.46,0,0,1,5.06-2.33,5.25,5.25,0,0,1,4.57,3.36.65.65,0,0,1-.35.84.66.66,0,0,1-.55,0c-1.63-.88-2.33-1.41-3.78-1.51A14.86,14.86,0,0,0,7.09,15l-.26.06a.66.66,0,0,1-.77-.5A.67.67,0,0,1,6.2,14.05Z"/><path class="cls-9" d="M33.8,14.05a6.46,6.46,0,0,0-5.06-2.33,5.25,5.25,0,0,0-4.57,3.36.65.65,0,0,0,.35.84.66.66,0,0,0,.55,0c1.63-.88,2.33-1.41,3.78-1.51a14.86,14.86,0,0,1,4.06.66l.25.06a.65.65,0,0,0,.77-.5A.63.63,0,0,0,33.8,14.05Z"/><path class="cls-10" d="M13.48,6.75a29.66,29.66,0,0,0-3.39,1.69,15,15,0,0,0-3,2.54.5.5,0,0,1-.85-.51A8.23,8.23,0,0,1,9,6.87,6.1,6.1,0,0,1,13.3,5.43a.69.69,0,0,1,.18,1.32Z"/><path class="cls-10" d="M26.52,6.75a29.66,29.66,0,0,1,3.39,1.69A14.62,14.62,0,0,1,32.86,11a.51.51,0,0,0,.73,0,.5.5,0,0,0,.13-.55A8.23,8.23,0,0,0,31,6.87,6.1,6.1,0,0,0,26.7,5.43a.69.69,0,0,0-.18,1.32Z"/><path class="cls-11" d="M20,21.76A4.52,4.52,0,0,0,15.54,27l.58,3.45a3.94,3.94,0,0,0,7.76,0L24.46,27A4.52,4.52,0,0,0,20,21.76Z"/><path class="cls-12" d="M20,20.76A4.52,4.52,0,0,0,15.54,26l.58,3.45a3.94,3.94,0,0,0,7.76,0L24.46,26A4.52,4.52,0,0,0,20,20.76Z"/><path class="cls-13" d="M22.67,29.74c0,1.11-1,1.67-2.67,1.67s-2.67-.56-2.67-1.67,1.9-1.76,2.67-1C20.8,28,22.67,28.64,22.67,29.74Z"/></g></g></g></g></svg>