<svg xmlns="http://www.w3.org/2000/svg" xmlns:xlink="http://www.w3.org/1999/xlink" viewBox="0 0 40 39.33"><defs><style>.cls-1{fill:url(#鍊踑臇蜸馯鳺艜_285);}.cls-2{fill:url(#鍊踑臇蜸馯鳺艜_198);}.cls-3{fill:url(#鍊踑臇蜸馯鳺艜_294);}.cls-4{fill:url(#鍊踑臇蜸馯鳺艜_198-2);}.cls-5{fill:url(#鍊踑臇蜸馯鳺艜_285-2);}.cls-6{fill:url(#鍊踑臇蜸馯鳺艜_285-3);}.cls-7{fill:url(#鍊踑臇蜸馯鳺艜_117);}.cls-8{fill:url(#鍊踑臇蜸馯鳺艜_117-2);}.cls-9{fill:url(#鍊踑臇蜸馯鳺艜_285-4);}.cls-10{fill:url(#鍊踑臇蜸馯鳺艜_117-3);}.cls-11{fill:#ba332a;}</style><linearGradient id="鍊踑臇蜸馯鳺艜_285" x1="20" y1="39.33" x2="20" gradientUnits="userSpaceOnUse"><stop offset="0.25" stop-color="#f55151"/><stop offset="0.44" stop-color="#f75a5a"/><stop offset="0.75" stop-color="#fb7272"/><stop offset="1" stop-color="#ff8a8a"/></linearGradient><linearGradient id="鍊踑臇蜸馯鳺艜_198" x1="20" y1="39.33" x2="20" y2="17.46" gradientUnits="userSpaceOnUse"><stop offset="0.25" stop-color="#df3a33"/><stop offset="0.56" stop-color="#e6413c"/><stop offset="1" stop-color="#f55151"/></linearGradient><linearGradient id="鍊踑臇蜸馯鳺艜_294" x1="20" y1="1.95" x2="20" y2="4.75" gradientUnits="userSpaceOnUse"><stop offset="0.25" stop-color="#ffbdbd"/><stop offset="0.46" stop-color="#ffb4b4"/><stop offset="0.8" stop-color="#ff9c9c"/><stop offset="1" stop-color="#ff8a8a"/></linearGradient><linearGradient id="鍊踑臇蜸馯鳺艜_198-2" x1="19.75" y1="21.26" x2="19.75" y2="5.44" xlink:href="#鍊踑臇蜸馯鳺艜_198"/><linearGradient id="鍊踑臇蜸馯鳺艜_285-2" x1="13.29" y1="18.92" x2="13.29" y2="10.16" xlink:href="#鍊踑臇蜸馯鳺艜_285"/><linearGradient id="鍊踑臇蜸馯鳺艜_285-3" x1="26.62" y1="18.92" x2="26.62" y2="10.16" xlink:href="#鍊踑臇蜸馯鳺艜_285"/><linearGradient id="鍊踑臇蜸馯鳺艜_117" x1="13.29" y1="19.92" x2="13.29" y2="11.16" gradientUnits="userSpaceOnUse"><stop offset="0.25" stop-color="#85321b"/><stop offset="0.42" stop-color="#7c2f1a"/><stop offset="0.7" stop-color="#642516"/><stop offset="1" stop-color="#421811"/></linearGradient><linearGradient id="鍊踑臇蜸馯鳺艜_117-2" x1="26.62" y1="19.92" x2="26.62" y2="11.16" xlink:href="#鍊踑臇蜸馯鳺艜_117"/><linearGradient id="鍊踑臇蜸馯鳺艜_285-4" x1="20" y1="30.53" x2="20" y2="23.53" xlink:href="#鍊踑臇蜸馯鳺艜_285"/><linearGradient id="鍊踑臇蜸馯鳺艜_117-3" x1="20" y1="30.53" x2="20" y2="21.64" xlink:href="#鍊踑臇蜸馯鳺艜_117"/></defs><title>資產 15</title><g id="圖層_2" data-name="圖層 2"><g id="Icons"><g id="Icon"><g id="Body"><path id="Body-2" data-name="Body" class="cls-1" d="M40,21c0,11.74-8.07,18.33-20,18.33S0,32.74,0,21C0,8.82,7.62,0,20,0S40,8.82,40,21Z"/><path class="cls-2" d="M20,34.33C3.59,33.89,1.61,27.14.23,17.46A27.22,27.22,0,0,0,0,21C0,32.74,8.07,39.33,20,39.33S40,32.74,40,21a27.22,27.22,0,0,0-.23-3.54C38.39,27.14,34.83,34.72,20,34.33Z"/><path class="cls-3" d="M24.68,3.35c-.13,1.46-3.62,1.4-4.68,1.4s-4.56.06-4.68-1.4S19.12,2,20,2,24.81,1.89,24.68,3.35Z"/></g><path class="cls-4" d="M15.7,19.26c-.93,2.59-3.89,2.59-4.82,0A6.07,6.07,0,0,1,10.64,17a8.23,8.23,0,0,1,.44-3,2.31,2.31,0,0,1,4.42,0,8.23,8.23,0,0,1,.44,3A6.07,6.07,0,0,1,15.7,19.26Zm2-8.11c.67-.68,1.18-1.3.17-2.41a13.14,13.14,0,0,0-5.37-3,6.88,6.88,0,0,0-5.69.71.32.32,0,0,0-.07.46.34.34,0,0,0,.42.1,5.55,5.55,0,0,1,4.61.58,14.41,14.41,0,0,1,3.58,3.27A1.57,1.57,0,0,0,17.7,11.15Zm4.11,0a1.59,1.59,0,0,0,2.36-.29,14.41,14.41,0,0,1,3.57-3.28A5.53,5.53,0,0,1,32.34,7a.33.33,0,0,0,.42-.1.31.31,0,0,0-.06-.46,6.9,6.9,0,0,0-5.7-.7,13.05,13.05,0,0,0-5.37,3C20.64,9.86,21.15,10.48,21.81,11.16ZM29,19.32a6.1,6.1,0,0,0,.23-2.22,8.49,8.49,0,0,0-.43-3,2.32,2.32,0,0,0-4.43,0,8,8,0,0,0-.43,3,6.1,6.1,0,0,0,.23,2.22C25.15,21.91,28.1,21.91,29,19.32Z"/><g id="Face"><path class="cls-5" d="M10.64,14.76A6,6,0,0,0,10.88,17c.93,2.59,3.89,2.59,4.82,0a6,6,0,0,0,.24-2.22,8.23,8.23,0,0,0-.44-3,2.31,2.31,0,0,0-4.42,0A8.23,8.23,0,0,0,10.64,14.76Z"/><path class="cls-6" d="M29.27,14.76A6.27,6.27,0,0,1,29,17c-.94,2.59-3.89,2.59-4.83,0A6.05,6.05,0,0,1,24,14.76a8,8,0,0,1,.43-3,2.31,2.31,0,0,1,4.43,0A8.43,8.43,0,0,1,29.27,14.76Z"/><path class="cls-7" d="M10.64,15.76A6,6,0,0,0,10.88,18c.93,2.59,3.89,2.59,4.82,0a6,6,0,0,0,.24-2.22,8.23,8.23,0,0,0-.44-3,2.31,2.31,0,0,0-4.42,0A8.23,8.23,0,0,0,10.64,15.76Z"/><path class="cls-8" d="M29.27,15.76A6.27,6.27,0,0,1,29,18c-.94,2.59-3.89,2.59-4.83,0A6.05,6.05,0,0,1,24,15.76a8,8,0,0,1,.43-3,2.31,2.31,0,0,1,4.43,0A8.43,8.43,0,0,1,29.27,15.76Z"/><path class="cls-9" d="M7.76,29.82a10.63,10.63,0,0,1,4.72-4.71A16.63,16.63,0,0,1,20,23.53a24,24,0,0,1,3.82.37c.32.05.6.12.92.19a6.58,6.58,0,0,1,1,.25,10.09,10.09,0,0,1,1.83.72,10.53,10.53,0,0,1,4.68,4.76c.15.3-.1.57-.4.67a.75.75,0,0,1-.74-.15,16.38,16.38,0,0,0-4.93-3.27,11.82,11.82,0,0,0-1.39-.4c-.39-.09-.47-.09-.76-.14l-.82-.12A27.2,27.2,0,0,0,20,26.15a16.76,16.76,0,0,0-6.08.92,15.65,15.65,0,0,0-5,3.26.83.83,0,0,1-.93.08C7.73,30.24,7.65,30,7.76,29.82Z"/><path class="cls-10" d="M7.76,29.63a12.54,12.54,0,0,1,4.72-6,13.71,13.71,0,0,1,7.54-2,18.66,18.66,0,0,1,3.82.48c.32.06.6.15.92.23a8.47,8.47,0,0,1,1,.32,10.07,10.07,0,0,1,1.83.91,12.48,12.48,0,0,1,4.68,6,.68.68,0,0,1-.4.86.64.64,0,0,1-.74-.2,16.71,16.71,0,0,0-4.93-4.14,9.31,9.31,0,0,0-1.39-.51,5.7,5.7,0,0,0-.76-.18c-.29-.07-.55-.11-.82-.15A23.74,23.74,0,0,0,20,25a13.82,13.82,0,0,0-6.08,1.18,15.93,15.93,0,0,0-5,4.14.69.69,0,0,1-.93.1A.63.63,0,0,1,7.76,29.63Z"/><g id="Eyebrows"><path class="cls-11" d="M32.69,6.51a5.53,5.53,0,0,0-4.64.13,14.12,14.12,0,0,0-3.88,2.9,1.57,1.57,0,0,1-2.38,0c-.59-.74-1-1.41.07-2.41a13.11,13.11,0,0,1,5.65-2.45A6.9,6.9,0,0,1,33.1,6a.31.31,0,0,1,0,.46A.33.33,0,0,1,32.69,6.51Z"/><path class="cls-11" d="M6.82,6.51a5.53,5.53,0,0,1,4.64.13,14.17,14.17,0,0,1,3.89,2.9,1.56,1.56,0,0,0,2.37,0c.59-.74,1-1.41-.07-2.41A13,13,0,0,0,12,4.72,6.91,6.91,0,0,0,6.41,6a.31.31,0,0,0,0,.46A.32.32,0,0,0,6.82,6.51Z"/></g></g></g></g></g></svg>