<svg xmlns="http://www.w3.org/2000/svg" xmlns:xlink="http://www.w3.org/1999/xlink" viewBox="0 0 40.08 40.46"><defs><style>.cls-1{fill:url(#鍊踑臇蜸馯鳺艜_45);}.cls-2{fill:url(#鍊踑臇蜸馯鳺艜_173);}.cls-3{fill:url(#鍊踑臇蜸馯鳺艜_327);}.cls-4{fill:url(#鍊踑臇蜸馯鳺艜_239);}.cls-5{fill:#170f02;}.cls-6{fill:url(#鍊踑臇蜸馯鳺艜_239-2);}.cls-7{fill:url(#鍊踑臇蜸馯鳺艜_244);}.cls-8{fill:url(#鍊踑臇蜸馯鳺艜_389);}.cls-9{fill:url(#鍊踑臇蜸馯鳺艜_244-2);}.cls-10{fill:url(#鍊踑臇蜸馯鳺艜_389-2);}.cls-11{fill:url(#鍊踑臇蜸馯鳺艜_8);}.cls-12{fill:url(#鍊踑臇蜸馯鳺艜_117);}.cls-13{fill:url(#鍊踑臇蜸馯鳺艜_165);}</style><radialGradient id="鍊踑臇蜸馯鳺艜_45" cx="19.87" cy="9.96" fy="-2.5143501292428194" r="27.89" gradientUnits="userSpaceOnUse"><stop offset="0.1" stop-color="#78faff"/><stop offset="0.18" stop-color="#7bf9fb"/><stop offset="0.26" stop-color="#82f7ee"/><stop offset="0.34" stop-color="#8ff3da"/><stop offset="0.42" stop-color="#a0eebd"/><stop offset="0.51" stop-color="#b7e797"/><stop offset="0.59" stop-color="#d3df69"/><stop offset="0.68" stop-color="#f4d534"/><stop offset="0.7" stop-color="#fed223"/></radialGradient><linearGradient id="鍊踑臇蜸馯鳺艜_173" x1="20.08" y1="39.33" x2="20.08" y2="17.46" gradientUnits="userSpaceOnUse"><stop offset="0.25" stop-color="#feb123"/><stop offset="0.54" stop-color="#feba23"/><stop offset="1" stop-color="#fed223"/></linearGradient><linearGradient id="鍊踑臇蜸馯鳺艜_327" x1="20.04" y1="1.93" x2="20.04" y2="4.76" gradientUnits="userSpaceOnUse"><stop offset="0.25" stop-color="#d9fdff"/><stop offset="0.54" stop-color="#d0fdff"/><stop offset="1" stop-color="#b8fcff"/></linearGradient><radialGradient id="鍊踑臇蜸馯鳺艜_239" cx="12.71" cy="15.01" r="6.34" gradientUnits="userSpaceOnUse"><stop offset="0.7" stop-color="#fff"/><stop offset="0.81" stop-color="#fcfcfc"/><stop offset="0.9" stop-color="#f2f2f2"/><stop offset="0.98" stop-color="#e1e1e1"/><stop offset="1" stop-color="#dbdbdb"/></radialGradient><radialGradient id="鍊踑臇蜸馯鳺艜_239-2" cx="27.38" cy="15.01" r="6.34" xlink:href="#鍊踑臇蜸馯鳺艜_239"/><linearGradient id="鍊踑臇蜸馯鳺艜_244" x1="32.62" y1="23.03" x2="32.62" y2="40.09" gradientUnits="userSpaceOnUse"><stop offset="0.25" stop-color="#fff"/><stop offset="0.52" stop-color="#f6f6f6"/><stop offset="0.96" stop-color="#dedede"/><stop offset="1" stop-color="#dbdbdb"/></linearGradient><linearGradient id="鍊踑臇蜸馯鳺艜_389" x1="32.64" y1="22.56" x2="32.64" y2="40.46" gradientUnits="userSpaceOnUse"><stop offset="0.25" stop-color="#dbdbdb"/><stop offset="0.43" stop-color="#d2d5d6"/><stop offset="0.71" stop-color="#bac4ca"/><stop offset="1" stop-color="#9bafba"/></linearGradient><linearGradient id="鍊踑臇蜸馯鳺艜_244-2" x1="7.45" y1="23.03" x2="7.45" y2="40.09" xlink:href="#鍊踑臇蜸馯鳺艜_244"/><linearGradient id="鍊踑臇蜸馯鳺艜_389-2" x1="7.43" y1="22.56" x2="7.43" y2="40.46" xlink:href="#鍊踑臇蜸馯鳺艜_389"/><linearGradient id="鍊踑臇蜸馯鳺艜_8" x1="20.04" y1="34.61" x2="20.04" y2="22.63" gradientUnits="userSpaceOnUse"><stop offset="0" stop-color="#feef5e"/><stop offset="0.26" stop-color="#fee244"/><stop offset="0.56" stop-color="#fed62c"/><stop offset="0.75" stop-color="#fed223"/></linearGradient><linearGradient id="鍊踑臇蜸馯鳺艜_117" x1="20.04" y1="33.61" x2="20.04" y2="21.63" gradientUnits="userSpaceOnUse"><stop offset="0.25" stop-color="#85321b"/><stop offset="0.42" stop-color="#7c2f1a"/><stop offset="0.7" stop-color="#642516"/><stop offset="1" stop-color="#421811"/></linearGradient><linearGradient id="鍊踑臇蜸馯鳺艜_165" x1="20.04" y1="29.27" x2="20.04" y2="32.28" gradientUnits="userSpaceOnUse"><stop offset="0.25" stop-color="#f55151"/><stop offset="0.56" stop-color="#ee4a48"/><stop offset="1" stop-color="#df3a33"/></linearGradient></defs><title>資產 16</title><g id="圖層_2" data-name="圖層 2"><g id="Icons"><g id="Icon"><g id="Body"><path id="Body-2" data-name="Body" class="cls-1" d="M40.08,21c0,11.74-8.07,18.33-20,18.33S.08,32.74.08,21c0-12.18,7.62-21,20-21S40.08,8.82,40.08,21Z"/><path class="cls-2" d="M20.08,36.33c-3.66,0-3.78-2.2-5.37-2.43C3.19,32.21,1.52,26,.31,17.46A27.22,27.22,0,0,0,.08,21c0,11.74,8.06,18.33,20,18.33s20-6.59,20-18.33a27.22,27.22,0,0,0-.23-3.54c-1.2,8.42-4.05,15.25-14.52,16.63C23.75,34.3,23.73,36.33,20.08,36.33Z"/><path class="cls-3" d="M24.87,3.35C24.75,4.05,23,4.76,20,4.76s-4.71-.71-4.83-1.41S17.47,1.93,20,1.93,25,2.65,24.87,3.35Z"/></g><g id="Face"><g id="Eyes"><g id="Eye"><path class="cls-4" d="M18.71,15c0,3.68-2.69,6.66-6,6.66s-6-3-6-6.66,2.69-6.67,6-6.67S18.71,11.32,18.71,15Z"/><path class="cls-5" d="M14.38,15a1.67,1.67,0,1,1-1.67-1.67A1.66,1.66,0,0,1,14.38,15Z"/></g><g id="Eye-2" data-name="Eye"><path class="cls-6" d="M33.38,15c0,3.68-2.69,6.66-6,6.66s-6-3-6-6.66,2.68-6.67,6-6.67S33.38,11.32,33.38,15Z"/><path class="cls-5" d="M29,15a1.67,1.67,0,1,1-1.66-1.67A1.66,1.66,0,0,1,29,15Z"/></g></g><g id="Hands"><path class="cls-7" d="M28.14,39.5c-4.09-2.55-2.36-6.4-.38-10.57.66-1.38,1.78-4.9,3.2-4.74.61.06.8.42.7,1.08,1.77-3.15,3-2.34,3.17-1.38a2.68,2.68,0,0,1-.2,1l.31-.45c.47-.66,1.36-1.65,2.23-1.2.6.31.72.8.3,1.82.63-.65,1.15-.76,1.67-.45,1.19.7-.12,3-2.23,6.19l.12,0c.86-1.37,2.91-.34,1.54,1.85C34.1,39.83,30.64,41.05,28.14,39.5Z"/><path class="cls-8" d="M38.13,29.77c.79-1.22,2.41-3.64,1.81-4.95a1.46,1.46,0,0,0-1.74-.75c0-1.19-1.59-2.05-3-.56a1.3,1.3,0,0,0-1.57-.91,3.3,3.3,0,0,0-1.75,1.55,1.39,1.39,0,0,0-1.47-.39C29.23,24.2,28.5,26,28,27.22c-1.28,3.17-3.83,7.25-2.25,10.33a5.39,5.39,0,0,0,4.6,2.9,7.66,7.66,0,0,0,4.75-2.59,40.33,40.33,0,0,0,4.11-5.3C40,31.06,39.24,29.81,38.13,29.77Zm-.39,3.49A17.35,17.35,0,0,1,32.59,39a3.78,3.78,0,0,1-4.53,0c-3.54-2.5-1.63-6.09.28-10.14.44-1,1.73-4.5,2.74-4.12.1,0,.07,0,.11.12.16.6-.74,2.67-1.47,4.72a.34.34,0,0,0,.62.26c.65-1.39,1.78-3.68,1.82-4.71.35-.5,1.09-1.51,1.7-1.6.27,0,.44.15.48.42.19.66-2.44,5.8-2.76,6.45a.33.33,0,0,0,.58.33,25.63,25.63,0,0,0,3-5.94c.48-.61,1.27-1.48,1.87-1,.14.1.23.2.15.57-.26,1.21-2.15,4-3.66,6.75a.33.33,0,0,0,.56.36A37.82,37.82,0,0,0,38,25.17a.89.89,0,0,1,.78-.16c.25.1.41.24.33.71-.29,1.66-2.56,4.8-4.45,8a.33.33,0,0,0,.55.36c.7-1,1.4-2,2.08-3l0,0h0c.54-.51,1.08-.37,1.21.14S38.07,32.69,37.74,33.26Z"/><path class="cls-9" d="M11.93,39.5c4.09-2.55,2.36-6.4.38-10.57-.66-1.38-1.78-4.9-3.2-4.74-.61.06-.8.42-.7,1.08-1.77-3.15-3-2.34-3.17-1.38a2.68,2.68,0,0,0,.2,1l-.32-.45c-.46-.66-1.35-1.65-2.22-1.2-.6.31-.72.8-.3,1.82-.63-.65-1.15-.76-1.67-.45-1.19.7.12,3,2.23,6.19l-.12,0c-.86-1.37-2.92-.34-1.54,1.85C6,39.83,9.43,41.05,11.93,39.5Z"/><path class="cls-10" d="M.9,32.56A40.33,40.33,0,0,0,5,37.86a7.66,7.66,0,0,0,4.75,2.59,5.39,5.39,0,0,0,4.6-2.9c1.58-3.08-1-7.16-2.25-10.33-.54-1.25-1.27-3-2.49-3.46a1.38,1.38,0,0,0-1.46.39A3.29,3.29,0,0,0,6.4,22.6a1.29,1.29,0,0,0-1.56.91c-1.38-1.49-2.93-.63-3,.56a1.46,1.46,0,0,0-1.74.75c-.6,1.31,1,3.73,1.81,4.95C.83,29.81.08,31.06.9,32.56Zm.64-1.38c.12-.51.67-.65,1.21-.14h0l0,0c.68,1,1.38,2,2.07,3a.33.33,0,0,0,.56-.36c-1.89-3.19-4.16-6.33-4.46-8-.07-.47.09-.61.34-.71a.89.89,0,0,1,.78.16A37.82,37.82,0,0,0,6,31.44a.33.33,0,0,0,.56-.36C5,28.31,3.12,25.54,2.85,24.33c-.07-.37,0-.47.15-.57.61-.48,1.4.39,1.87,1a26.07,26.07,0,0,0,3,5.94.33.33,0,0,0,.58-.33c-.32-.65-2.95-5.79-2.76-6.45,0-.27.2-.46.48-.42.6.09,1.35,1.1,1.7,1.6,0,1,1.17,3.32,1.82,4.71a.33.33,0,0,0,.61-.26c-.72-2.05-1.63-4.12-1.47-4.72,0-.1,0-.08.12-.12,1-.38,2.3,3.09,2.74,4.12,1.9,4.05,3.82,7.64.28,10.14a3.78,3.78,0,0,1-4.53,0,17.35,17.35,0,0,1-5.15-5.7C2,32.69,1.39,31.82,1.54,31.18Z"/></g><path class="cls-11" d="M20,22.63a4.51,4.51,0,0,0-4.45,5.26l.57,3.45a3.94,3.94,0,0,0,7.76,0l.58-3.45A4.52,4.52,0,0,0,20,22.63Z"/><path class="cls-12" d="M20,21.63a4.51,4.51,0,0,0-4.45,5.26l.57,3.45a3.94,3.94,0,0,0,7.76,0l.58-3.45A4.52,4.52,0,0,0,20,21.63Z"/><path class="cls-13" d="M22.71,30.61c0,1.11-1,1.67-2.67,1.67s-2.66-.56-2.66-1.67,1.9-1.76,2.66-1C20.84,28.82,22.71,29.51,22.71,30.61Z"/></g></g></g></g></svg>