<svg xmlns="http://www.w3.org/2000/svg" xmlns:xlink="http://www.w3.org/1999/xlink" viewBox="0 0 40 40.36"><defs><style>.cls-1{fill:url(#鍊踑臇蜸馯鳺艜_205);}.cls-2{fill:url(#鍊踑臇蜸馯鳺艜_173);}.cls-3{fill:url(#鍊踑臇蜸馯鳺艜_223);}.cls-4{fill:url(#鍊踑臇蜸馯鳺艜_173-2);}.cls-5{fill:url(#鍊踑臇蜸馯鳺艜_205-2);}.cls-6{fill:url(#鍊踑臇蜸馯鳺艜_58);}.cls-7{fill:url(#鍊踑臇蜸馯鳺艜_58-2);}.cls-8{fill:url(#鍊踑臇蜸馯鳺艜_117);}.cls-9{fill:url(#鍊踑臇蜸馯鳺艜_117-2);}.cls-10{fill:url(#鍊踑臇蜸馯鳺艜_117-3);}.cls-11{fill:#d97818;}.cls-12{fill:url(#鍊踑臇蜸馯鳺艜_244);}.cls-13{fill:url(#鍊踑臇蜸馯鳺艜_389);}</style><linearGradient id="鍊踑臇蜸馯鳺艜_205" x1="20" y1="39.33" x2="20" gradientUnits="userSpaceOnUse"><stop offset="0.25" stop-color="#fed223"/><stop offset="0.44" stop-color="#fed62c"/><stop offset="0.74" stop-color="#fee244"/><stop offset="1" stop-color="#feef5e"/></linearGradient><linearGradient id="鍊踑臇蜸馯鳺艜_173" x1="20" y1="39.33" x2="20" y2="17.46" gradientUnits="userSpaceOnUse"><stop offset="0.25" stop-color="#feb123"/><stop offset="0.54" stop-color="#feba23"/><stop offset="1" stop-color="#fed223"/></linearGradient><linearGradient id="鍊踑臇蜸馯鳺艜_223" x1="21.7" y1="2.02" x2="21.7" y2="4.95" gradientUnits="userSpaceOnUse"><stop offset="0.25" stop-color="#fff8b5"/><stop offset="0.39" stop-color="#fff7ac"/><stop offset="0.62" stop-color="#fff594"/><stop offset="0.91" stop-color="#fef06c"/><stop offset="1" stop-color="#feef5e"/></linearGradient><linearGradient id="鍊踑臇蜸馯鳺艜_173-2" x1="18.18" y1="39.33" x2="18.18" y2="5.28" xlink:href="#鍊踑臇蜸馯鳺艜_173"/><linearGradient id="鍊踑臇蜸馯鳺艜_205-2" x1="20.01" y1="23.06" x2="20.01" y2="18.24" xlink:href="#鍊踑臇蜸馯鳺艜_205"/><linearGradient id="鍊踑臇蜸馯鳺艜_58" x1="12.67" y1="17.57" x2="12.67" y2="11.71" gradientUnits="userSpaceOnUse"><stop offset="0" stop-color="#feef5e"/><stop offset="0.26" stop-color="#fee244"/><stop offset="0.56" stop-color="#fed62c"/><stop offset="0.75" stop-color="#fed223"/></linearGradient><linearGradient id="鍊踑臇蜸馯鳺艜_58-2" x1="27.33" y1="17.57" x2="27.33" y2="11.71" xlink:href="#鍊踑臇蜸馯鳺艜_58"/><linearGradient id="鍊踑臇蜸馯鳺艜_117" x1="12.67" y1="16.57" x2="12.67" y2="10.71" gradientUnits="userSpaceOnUse"><stop offset="0.25" stop-color="#85321b"/><stop offset="0.42" stop-color="#7c2f1a"/><stop offset="0.7" stop-color="#642516"/><stop offset="1" stop-color="#421811"/></linearGradient><linearGradient id="鍊踑臇蜸馯鳺艜_117-2" x1="27.33" y1="16.57" x2="27.33" y2="10.71" xlink:href="#鍊踑臇蜸馯鳺艜_117"/><linearGradient id="鍊踑臇蜸馯鳺艜_117-3" x1="20.01" y1="24.06" x2="20.01" y2="19.24" xlink:href="#鍊踑臇蜸馯鳺艜_117"/><linearGradient id="鍊踑臇蜸馯鳺艜_244" x1="14.18" y1="23.18" x2="14.18" y2="40.02" gradientUnits="userSpaceOnUse"><stop offset="0.25" stop-color="#fff"/><stop offset="0.52" stop-color="#f6f6f6"/><stop offset="0.96" stop-color="#dedede"/><stop offset="1" stop-color="#dbdbdb"/></linearGradient><linearGradient id="鍊踑臇蜸馯鳺艜_389" x1="14.22" y1="22.68" x2="14.22" y2="40.36" gradientUnits="userSpaceOnUse"><stop offset="0.25" stop-color="#dbdbdb"/><stop offset="0.43" stop-color="#d2d5d6"/><stop offset="0.71" stop-color="#bac4ca"/><stop offset="1" stop-color="#9bafba"/></linearGradient></defs><title>資產 18</title><g id="圖層_2" data-name="圖層 2"><g id="Icons"><g id="Icon"><g id="Body"><path id="Body-2" data-name="Body" class="cls-1" d="M40,21c0,11.74-8.07,18.33-20,18.33S0,32.74,0,21C0,8.82,7.62,0,20,0S40,8.82,40,21Z"/><path class="cls-2" d="M20,34.33C3.59,33.89,1.61,27.14.23,17.46A27.22,27.22,0,0,0,0,21C0,32.74,8.07,39.33,20,39.33S40,32.74,40,21a27.22,27.22,0,0,0-.23-3.54C38.39,27.14,34.83,34.72,20,34.33Z"/><path class="cls-3" d="M26.2,3.89c-.17.69-1.95,1.25-4.93,1s-4-1.09-4.08-1.8,1.76-1.23,4.32-1S26.37,3.2,26.2,3.89Z"/></g><path class="cls-4" d="M23.6,29.12a2,2,0,0,1-.92,1.38,19.85,19.85,0,0,1-3.18,1.72,1.88,1.88,0,0,1-.05,2.45c-.16.19-.17.09,0,.23a1.88,1.88,0,0,1,.21,2.34c-.29.48-.27.19-.1.48a1.87,1.87,0,0,1,.11,1.61c-6.21-.07-11.34-1.94-14.81-5.4,0-.43.09-.87.16-1.33.4-2.59.93-6.48,1.5-7.51a2,2,0,0,1,3.75.49c.31,1.21-.21,2.57,0,3.79.26,1.8,2,1.45,3.68.84,6.06-2.27,7.51-3.77,9-2.71A1.73,1.73,0,0,1,23.6,29.12ZM8.91,10.86a15.64,15.64,0,0,1,3-2.54,32.12,32.12,0,0,1,3.38-1.69.67.67,0,0,0,.42-.55.69.69,0,0,0-.59-.77,6.08,6.08,0,0,0-4.33,1.45,8.22,8.22,0,0,0-2.7,3.59.51.51,0,0,0,.86.51Zm22.46-.7A8.21,8.21,0,0,0,27.5,7.87,6.1,6.1,0,0,0,23,8.19a.69.69,0,0,0-.26.94.7.7,0,0,0,.6.35c1,0,2,.06,2.9.15a2.26,2.26,0,0,0-1.33,1.91,4.67,4.67,0,0,0,.33,2.28,2.33,2.33,0,0,0,4.28,0,4.68,4.68,0,0,0,.34-2.28,2.34,2.34,0,0,0-.42-1.15q.69.25,1.38.57a.51.51,0,0,0,.6-.8ZM10.19,11.54a4.68,4.68,0,0,0,.34,2.28,2.33,2.33,0,0,0,4.28,0,4.67,4.67,0,0,0,.33-2.28A2.5,2.5,0,0,0,10.19,11.54Z"/><g id="Face"><path class="cls-5" d="M14.4,20.36a9,9,0,0,0,2.48-.44c.82-.26,1.64-.65,2.64-1.07a9.34,9.34,0,0,1,1.69-.51,5.38,5.38,0,0,1,2,0A7.23,7.23,0,0,1,26.46,20a1.33,1.33,0,0,1-1.52,2.18l-.07,0a5.63,5.63,0,0,0-2.11-.87,3.23,3.23,0,0,0-1,0l-.55.16c-.2.08-.38.13-.6.23a28.2,28.2,0,0,1-2.93,1.09,9.69,9.69,0,0,1-3.43.29,1.33,1.33,0,0,1,.07-2.66Z"/><path class="cls-6" d="M14.81,16.16a2.33,2.33,0,0,1-4.28,0,4.73,4.73,0,0,1-.34-2.29c.28-2.88,4.67-2.88,5,0A4.73,4.73,0,0,1,14.81,16.16Z"/><path class="cls-7" d="M25.19,16.16a2.33,2.33,0,0,0,4.28,0,4.73,4.73,0,0,0,.34-2.29c-.28-2.88-4.67-2.88-4.95,0A4.73,4.73,0,0,0,25.19,16.16Z"/><path class="cls-8" d="M14.81,15.16a2.33,2.33,0,0,1-4.28,0,4.73,4.73,0,0,1-.34-2.29c.28-2.88,4.67-2.88,5,0A4.73,4.73,0,0,1,14.81,15.16Z"/><path class="cls-9" d="M25.19,15.16a2.33,2.33,0,0,0,4.28,0,4.73,4.73,0,0,0,.34-2.29c-.28-2.88-4.67-2.88-4.95,0A4.73,4.73,0,0,0,25.19,15.16Z"/><path class="cls-10" d="M14.4,21.36a9,9,0,0,0,2.48-.44c.82-.26,1.64-.65,2.64-1.07a9.34,9.34,0,0,1,1.69-.51,5.38,5.38,0,0,1,2,0A7.23,7.23,0,0,1,26.46,21a1.33,1.33,0,0,1-1.52,2.18l-.07,0a5.63,5.63,0,0,0-2.11-.87,3.23,3.23,0,0,0-1,0l-.55.16c-.2.08-.38.13-.6.23a28.2,28.2,0,0,1-2.93,1.09,9.69,9.69,0,0,1-3.43.29,1.33,1.33,0,0,1,.07-2.66Z"/><g id="Eyebrows"><path class="cls-11" d="M15.25,5.3A28.66,28.66,0,0,0,11.87,7a15,15,0,0,0-3,2.54.51.51,0,0,1-.73,0A.52.52,0,0,1,8.05,9a8.31,8.31,0,0,1,2.7-3.6A6.07,6.07,0,0,1,15.08,4a.69.69,0,0,1,.17,1.32Z"/><path class="cls-11" d="M23.29,8.15a28.72,28.72,0,0,1,3.78.27,14.56,14.56,0,0,1,3.7,1.21.51.51,0,0,0,.69-.25.5.5,0,0,0-.09-.55A8.21,8.21,0,0,0,27.5,6.54,6.1,6.1,0,0,0,23,6.86a.69.69,0,0,0-.26.94A.7.7,0,0,0,23.29,8.15Z"/></g><path class="cls-12" d="M20.66,26.58c-7.19,3.08-8.07,3.25-9.2,3.11-2.44-.3-1.55-3.07-1.58-4.61C9.84,23,8,22.76,7.17,23.71s-1.86,8.38-1.93,9.64c0,5.21,4.42,8.07,12.19,6,2.26-.6,2.19-3,1.29-3.1,1.22-1,.81-2.58-.24-2.69,1.3-.9,1.19-2.3.29-2.79,2.38-1.16,3.69-1.86,4.12-2.47C23.53,27.39,22.82,25.66,20.66,26.58Z"/><path class="cls-13" d="M22.91,26.17c-1.5-1.06-2.95.43-9,2.71-1.7.6-3.42.95-3.68-.84-.17-1.22.35-2.58,0-3.79a2,2,0,0,0-3.75-.49c-.57,1-1.1,4.92-1.5,7.51a8.91,8.91,0,0,0,.42,5.14C6.57,39,9,40.13,11.8,40.33a22.35,22.35,0,0,0,5.69-.56c2-.46,2.72-2.31,2.06-3.38-.17-.29-.19,0,.1-.48a1.88,1.88,0,0,0-.21-2.34c-.16-.15-.15,0,0-.23a1.9,1.9,0,0,0,.05-2.46,19.85,19.85,0,0,0,3.18-1.72,2,2,0,0,0,.92-1.38A1.71,1.71,0,0,0,22.91,26.17Zm-6.49,5.34a.33.33,0,0,0,.29.6c.7-.29,1.39-.59,2.08-.9a1.28,1.28,0,0,1-.13,1.51A5.38,5.38,0,0,1,16.85,34a.27.27,0,0,0,.14.51A4,4,0,0,0,18.68,34a1.14,1.14,0,0,1,.11,1.42,4,4,0,0,1-1.74,1.37.27.27,0,0,0,.13.51,3.47,3.47,0,0,0,1.6-.51,1.67,1.67,0,0,1-.26,1.31,2.3,2.3,0,0,1-1.25.85,14,14,0,0,1-5.42.72c-4-.32-6.1-2.64-6.19-5.84A23.8,23.8,0,0,1,6.31,29a28.06,28.06,0,0,1,1-4.69,1.13,1.13,0,0,1,1.48-.47c1.39.85-.44,4.22,1.24,5.69a3.59,3.59,0,0,0,2.77.49,58.4,58.4,0,0,0,8.07-3c1.21-.48,1.76,0,1.7.65C22.61,28.5,20,29.55,16.42,31.51Z"/></g></g></g></g></svg>