<svg xmlns="http://www.w3.org/2000/svg" xmlns:xlink="http://www.w3.org/1999/xlink" viewBox="0 0 40 40.73"><defs><style>.cls-1{fill:url(#鍊踑臇蜸馯鳺艜_205);}.cls-2{fill:url(#鍊踑臇蜸馯鳺艜_173);}.cls-3{fill:url(#鍊踑臇蜸馯鳺艜_223);}.cls-4{fill:url(#鍊踑臇蜸馯鳺艜_12);}.cls-5{fill:url(#鍊踑臇蜸馯鳺艜_205-2);}.cls-6{fill:url(#鍊踑臇蜸馯鳺艜_117);}.cls-7{fill:url(#鍊踑臇蜸馯鳺艜_117-2);}.cls-8{fill:url(#鍊踑臇蜸馯鳺艜_244);}.cls-9{fill:url(#鍊踑臇蜸馯鳺艜_389);}.cls-10{fill:url(#鍊踑臇蜸馯鳺艜_389-2);}.cls-11{fill:url(#鍊踑臇蜸馯鳺艜_389-3);}.cls-12{fill:url(#鍊踑臇蜸馯鳺艜_389-4);}</style><linearGradient id="鍊踑臇蜸馯鳺艜_205" x1="20" y1="39.33" x2="20" gradientUnits="userSpaceOnUse"><stop offset="0.25" stop-color="#fed223"/><stop offset="0.44" stop-color="#fed62c"/><stop offset="0.74" stop-color="#fee244"/><stop offset="1" stop-color="#feef5e"/></linearGradient><linearGradient id="鍊踑臇蜸馯鳺艜_173" x1="20" y1="39.33" x2="20" y2="17.46" gradientUnits="userSpaceOnUse"><stop offset="0.25" stop-color="#feb123"/><stop offset="0.54" stop-color="#feba23"/><stop offset="1" stop-color="#fed223"/></linearGradient><linearGradient id="鍊踑臇蜸馯鳺艜_223" x1="20" y1="1.93" x2="20" y2="4.76" gradientUnits="userSpaceOnUse"><stop offset="0.25" stop-color="#fff8b5"/><stop offset="0.39" stop-color="#fff7ac"/><stop offset="0.62" stop-color="#fff594"/><stop offset="0.91" stop-color="#fef06c"/><stop offset="1" stop-color="#feef5e"/></linearGradient><linearGradient id="鍊踑臇蜸馯鳺艜_12" x1="20" y1="25.31" x2="20" y2="22.31" gradientUnits="userSpaceOnUse"><stop offset="0" stop-color="#feef5e"/><stop offset="0.26" stop-color="#fee244"/><stop offset="0.56" stop-color="#fed62c"/><stop offset="0.75" stop-color="#fed223"/></linearGradient><linearGradient id="鍊踑臇蜸馯鳺艜_205-2" x1="20" y1="15.97" x2="20" y2="10.98" xlink:href="#鍊踑臇蜸馯鳺艜_205"/><linearGradient id="鍊踑臇蜸馯鳺艜_117" x1="20" y1="24.31" x2="20" y2="21.31" gradientUnits="userSpaceOnUse"><stop offset="0.25" stop-color="#85321b"/><stop offset="0.42" stop-color="#7c2f1a"/><stop offset="0.7" stop-color="#642516"/><stop offset="1" stop-color="#421811"/></linearGradient><linearGradient id="鍊踑臇蜸馯鳺艜_117-2" x1="20" y1="16.97" x2="20" y2="11.98" xlink:href="#鍊踑臇蜸馯鳺艜_117"/><linearGradient id="鍊踑臇蜸馯鳺艜_244" x1="22.9" y1="17.28" x2="22.9" y2="40.35" gradientUnits="userSpaceOnUse"><stop offset="0.25" stop-color="#fff"/><stop offset="0.52" stop-color="#f6f6f6"/><stop offset="0.96" stop-color="#dedede"/><stop offset="1" stop-color="#dbdbdb"/></linearGradient><linearGradient id="鍊踑臇蜸馯鳺艜_389" x1="22.71" y1="26.37" x2="22.71" y2="29.01" gradientUnits="userSpaceOnUse"><stop offset="0.25" stop-color="#dbdbdb"/><stop offset="0.43" stop-color="#d2d5d6"/><stop offset="0.71" stop-color="#bac4ca"/><stop offset="1" stop-color="#9bafba"/></linearGradient><linearGradient id="鍊踑臇蜸馯鳺艜_389-2" x1="25.57" y1="28.18" x2="25.57" y2="30.94" xlink:href="#鍊踑臇蜸馯鳺艜_389"/><linearGradient id="鍊踑臇蜸馯鳺艜_389-3" x1="28.45" y1="30.27" x2="28.45" y2="35.88" xlink:href="#鍊踑臇蜸馯鳺艜_389"/><linearGradient id="鍊踑臇蜸馯鳺艜_389-4" x1="22.04" y1="16.74" x2="22.04" y2="40.73" xlink:href="#鍊踑臇蜸馯鳺艜_389"/></defs><title>資產 19</title><g id="圖層_2" data-name="圖層 2"><g id="Icons"><g id="Icon"><g id="Body"><path id="Body-2" data-name="Body" class="cls-1" d="M40,21c0,11.74-8.07,18.33-20,18.33S0,32.74,0,21C0,8.82,7.62,0,20,0S40,8.82,40,21Z"/><path class="cls-2" d="M20,34.33C3.59,33.89,1.61,27.14.23,17.46A27.22,27.22,0,0,0,0,21C0,32.74,8.07,39.33,20,39.33S40,32.74,40,21a27.22,27.22,0,0,0-.23-3.54C38.39,27.14,34.83,34.72,20,34.33Z"/><path class="cls-3" d="M24.83,3.35C24.71,4.05,23,4.76,20,4.76s-4.71-.71-4.83-1.41S17.43,1.93,20,1.93,24.94,2.65,24.83,3.35Z"/></g><g id="Face"><path class="cls-4" d="M13.38,25.27c2.21.05,4.42,0,6.62,0s4.41,0,6.62,0a1.34,1.34,0,0,0,.1-2.67c-2.24-.22-4.48-.27-6.72-.29s-4.48.07-6.72.29a1.34,1.34,0,0,0,.1,2.67Z"/><path class="cls-5" d="M10.85,16a2,2,0,0,1-.32-.55,4.57,4.57,0,0,1-.36-1.81,3.62,3.62,0,0,1,0-.47,2.5,2.5,0,0,1,5,0,3.59,3.59,0,0,1,0,.47A4.64,4.64,0,0,1,15,15,2.59,2.59,0,0,0,10.85,16Zm19-2.83a2.5,2.5,0,0,0-4.95,0,3.59,3.59,0,0,0,0,.47A4.64,4.64,0,0,0,25,15a2.59,2.59,0,0,1,4.12,1,2,2,0,0,0,.32-.55,4.57,4.57,0,0,0,.36-1.81A3.62,3.62,0,0,0,29.81,13.14Z"/><path class="cls-6" d="M13.38,24.27c2.21.05,4.42,0,6.62,0s4.41,0,6.62,0a1.34,1.34,0,0,0,.1-2.67c-2.24-.22-4.48-.27-6.72-.29s-4.48.07-6.72.29a1.34,1.34,0,0,0,.1,2.67Z"/><path class="cls-7" d="M10.85,17a2,2,0,0,1-.32-.55,4.57,4.57,0,0,1-.36-1.81,3.62,3.62,0,0,1,0-.47,2.5,2.5,0,0,1,5,0,3.59,3.59,0,0,1,0,.47A4.64,4.64,0,0,1,15,16,2.59,2.59,0,0,0,10.85,17Zm19-2.83a2.5,2.5,0,0,0-4.95,0,3.59,3.59,0,0,0,0,.47A4.64,4.64,0,0,0,25,16a2.59,2.59,0,0,1,4.12,1,2,2,0,0,0,.32-.55,4.57,4.57,0,0,0,.36-1.81A3.62,3.62,0,0,0,29.81,14.14Z"/><path class="cls-8" d="M15.57,30.32c.5-3.61,3-14.54,6.17-12.87,1.43.74-.11,5.56-1,10.11,2.46-.94,3.41-1.26,4.37,1.2,1.43-.15,2.3-.2,2.92,2,.66.1,1.76.28,2.17,1.08a2.75,2.75,0,0,1-1.69,3.55C28.12,41.78,13.75,43.81,15.57,30.32Z"/><path class="cls-9" d="M19.88,27.7a5.19,5.19,0,0,1,1.43-.89A4.73,4.73,0,0,1,23,26.38a2.39,2.39,0,0,1,.46,0,1.79,1.79,0,0,1,.52.12,2.39,2.39,0,0,1,.81.56,3.92,3.92,0,0,1,.84,1.53.32.32,0,0,1-.23.4.33.33,0,0,1-.36-.13,5.17,5.17,0,0,0-.91-1.12,1.46,1.46,0,0,0-.51-.31.76.76,0,0,0-.25-.06H23a7.16,7.16,0,0,0-2.79.86.33.33,0,0,1-.44-.14A.32.32,0,0,1,19.88,27.7Z"/><path class="cls-10" d="M22.72,29.46a5.94,5.94,0,0,1,1.48-.87,4.88,4.88,0,0,1,1.71-.41,2.2,2.2,0,0,1,1,.17,2.5,2.5,0,0,1,.8.58,3.64,3.64,0,0,1,.81,1.57.35.35,0,0,1-.63.28,6.37,6.37,0,0,0-.9-1.16,1.67,1.67,0,0,0-.49-.37,1.24,1.24,0,0,0-.57-.1,6.45,6.45,0,0,0-2.82.88.36.36,0,0,1-.48-.13A.34.34,0,0,1,22.72,29.46Z"/><path class="cls-11" d="M26.07,31.11a2.62,2.62,0,0,1,2.37-.8,3.75,3.75,0,0,1,1.19.37,2.52,2.52,0,0,1,.57.36,2,2,0,0,1,.46.58,3,3,0,0,1-.08,2.54,3.37,3.37,0,0,1-.67,1,2.16,2.16,0,0,1-1.13.67.33.33,0,0,1-.18-.64h0a2.28,2.28,0,0,0,1.14-1.39,2.33,2.33,0,0,0,0-1.76,1.09,1.09,0,0,0-.6-.49,3.79,3.79,0,0,0-.91-.32,2.18,2.18,0,0,0-1.74.34.34.34,0,0,1-.48-.07A.33.33,0,0,1,26.07,31.11Z"/><path class="cls-12" d="M28.66,33.11a.33.33,0,0,0-.62.24,4.2,4.2,0,0,1,0,2.84,4.74,4.74,0,0,1-1.78,2.21,7.67,7.67,0,0,1-5.65,1.23A5.83,5.83,0,0,1,18,38.46a5.64,5.64,0,0,1-1.7-2.37,8.74,8.74,0,0,1-.55-3A18,18,0,0,1,16,30,43.78,43.78,0,0,1,17.44,24c.32-1,.67-2,1.08-2.93A12.09,12.09,0,0,1,20,18.37c.28-.37.69-.68.88-.65a1.25,1.25,0,0,1,.52.12.64.64,0,0,1,.27.36,3.77,3.77,0,0,1,.1,1.38c0,.5-.1,1-.17,1.53-.28,2-.61,4-.86,6a4.75,4.75,0,0,1,.59-.31,1,1,0,0,1,.16-.06c.34-1.83.71-3.65,1-5.5.08-.53.16-1.06.2-1.61a4.51,4.51,0,0,0-.13-1.76,1.59,1.59,0,0,0-.68-.87,2.05,2.05,0,0,0-1-.27,1.62,1.62,0,0,0-1,.38,3.57,3.57,0,0,0-.64.65,12.67,12.67,0,0,0-1.57,2.88,30.33,30.33,0,0,0-1,3,42.74,42.74,0,0,0-1.37,6.23,13.1,13.1,0,0,0,.32,6.45,6.52,6.52,0,0,0,1.88,2.76,6.68,6.68,0,0,0,3,1.45,8.3,8.3,0,0,0,6.39-1.4,5.34,5.34,0,0,0,2-2.71A4.74,4.74,0,0,0,28.66,33.11Z"/></g></g></g></g></svg>