<svg xmlns="http://www.w3.org/2000/svg" xmlns:xlink="http://www.w3.org/1999/xlink" viewBox="0 0 40 39.33"><defs><style>.cls-1{fill:url(#鍊踑臇蜸馯鳺艜_205);}.cls-2{fill:url(#鍊踑臇蜸馯鳺艜_173);}.cls-3{fill:url(#鍊踑臇蜸馯鳺艜_223);}.cls-4{fill:url(#鍊踑臇蜸馯鳺艜_173-2);}.cls-5{fill:url(#鍊踑臇蜸馯鳺艜_10);}.cls-6{fill:url(#鍊踑臇蜸馯鳺艜_205-2);}.cls-7{fill:url(#鍊踑臇蜸馯鳺艜_205-3);}.cls-8{fill:url(#鍊踑臇蜸馯鳺艜_117);}.cls-9{fill:url(#鍊踑臇蜸馯鳺艜_117-2);}.cls-10{fill:url(#鍊踑臇蜸馯鳺艜_117-3);}</style><linearGradient id="鍊踑臇蜸馯鳺艜_205" x1="20" y1="39.33" x2="20" gradientUnits="userSpaceOnUse"><stop offset="0.25" stop-color="#fed223"/><stop offset="0.44" stop-color="#fed62c"/><stop offset="0.74" stop-color="#fee244"/><stop offset="1" stop-color="#feef5e"/></linearGradient><linearGradient id="鍊踑臇蜸馯鳺艜_173" x1="20" y1="39.33" x2="20" y2="17.46" gradientUnits="userSpaceOnUse"><stop offset="0.25" stop-color="#feb123"/><stop offset="0.54" stop-color="#feba23"/><stop offset="1" stop-color="#fed223"/></linearGradient><linearGradient id="鍊踑臇蜸馯鳺艜_223" x1="20" y1="1.93" x2="20" y2="4.76" gradientUnits="userSpaceOnUse"><stop offset="0.25" stop-color="#fff8b5"/><stop offset="0.39" stop-color="#fff7ac"/><stop offset="0.62" stop-color="#fff594"/><stop offset="0.91" stop-color="#fef06c"/><stop offset="1" stop-color="#feef5e"/></linearGradient><linearGradient id="鍊踑臇蜸馯鳺艜_173-2" x1="20" y1="18.79" x2="20" y2="15.78" xlink:href="#鍊踑臇蜸馯鳺艜_173"/><linearGradient id="鍊踑臇蜸馯鳺艜_10" x1="20" y1="28.58" x2="20" y2="25.58" gradientUnits="userSpaceOnUse"><stop offset="0" stop-color="#feef5e"/><stop offset="0.26" stop-color="#fee244"/><stop offset="0.56" stop-color="#fed62c"/><stop offset="0.75" stop-color="#fed223"/></linearGradient><linearGradient id="鍊踑臇蜸馯鳺艜_205-2" x1="11" y1="16.45" x2="11" y2="13.45" xlink:href="#鍊踑臇蜸馯鳺艜_205"/><linearGradient id="鍊踑臇蜸馯鳺艜_205-3" x1="29" y1="16.45" x2="29" y2="13.45" xlink:href="#鍊踑臇蜸馯鳺艜_205"/><linearGradient id="鍊踑臇蜸馯鳺艜_117" x1="20" y1="27.58" x2="20" y2="24.58" gradientUnits="userSpaceOnUse"><stop offset="0.25" stop-color="#85321b"/><stop offset="0.42" stop-color="#7c2f1a"/><stop offset="0.7" stop-color="#642516"/><stop offset="1" stop-color="#421811"/></linearGradient><linearGradient id="鍊踑臇蜸馯鳺艜_117-2" x1="11" y1="17.45" x2="11" y2="14.45" xlink:href="#鍊踑臇蜸馯鳺艜_117"/><linearGradient id="鍊踑臇蜸馯鳺艜_117-3" x1="29" y1="17.45" x2="29" y2="14.45" xlink:href="#鍊踑臇蜸馯鳺艜_117"/></defs><title>資產 20</title><g id="圖層_2" data-name="圖層 2"><g id="Icons"><g id="Icon"><g id="Body"><path id="Body-2" data-name="Body" class="cls-1" d="M40,21c0,11.74-8.07,18.33-20,18.33S0,32.74,0,21C0,8.82,7.62,0,20,0S40,8.82,40,21Z"/><path class="cls-2" d="M20,34.33C3.59,33.89,1.61,27.14.23,17.46A27.22,27.22,0,0,0,0,21C0,32.74,8.07,39.33,20,39.33S40,32.74,40,21a27.22,27.22,0,0,0-.23-3.54C38.39,27.14,34.83,34.72,20,34.33Z"/><path class="cls-3" d="M24.83,3.35C24.71,4.05,23,4.76,20,4.76s-4.71-.71-4.83-1.41S17.43,1.93,20,1.93,24.94,2.65,24.83,3.35Z"/></g><path class="cls-4" d="M7.57,16.08a20,20,0,0,1,6.86,0,1.34,1.34,0,0,1-.19,2.66c-1.33.06-5.15.06-6.47,0a1.34,1.34,0,0,1-.2-2.66Zm24.86,0a20,20,0,0,0-6.86,0,1.34,1.34,0,0,0,.19,2.66c.66,0,4.51.09,6.48,0a1.34,1.34,0,0,0,.19-2.66Z"/><g id="Face"><path class="cls-5" d="M13.38,25.62c2.21-.06,4.42,0,6.62,0s4.41,0,6.62,0a1.33,1.33,0,0,1,.1,2.66c-2.24.23-4.48.28-6.72.3s-4.48-.08-6.72-.3a1.33,1.33,0,0,1,.1-2.66Z"/><path class="cls-6" d="M7.57,13.75a19.76,19.76,0,0,1,6.86,0,1.34,1.34,0,0,1-.19,2.66c-1.33.06-5.15.05-6.47,0A1.34,1.34,0,0,1,6.48,15,1.33,1.33,0,0,1,7.57,13.75Z"/><path class="cls-7" d="M25.57,13.75a19.76,19.76,0,0,1,6.86,0,1.34,1.34,0,0,1-.19,2.66c-2,.08-5.82,0-6.48,0A1.34,1.34,0,0,1,24.48,15,1.33,1.33,0,0,1,25.57,13.75Z"/><path class="cls-8" d="M13.38,24.62c2.21-.06,4.42,0,6.62,0s4.41,0,6.62,0a1.33,1.33,0,0,1,.1,2.66c-2.24.23-4.48.28-6.72.3s-4.48-.08-6.72-.3a1.33,1.33,0,0,1,.1-2.66Z"/><path class="cls-9" d="M7.57,14.75a19.76,19.76,0,0,1,6.86,0,1.34,1.34,0,0,1-.19,2.66c-1.33.06-5.15.05-6.47,0A1.34,1.34,0,0,1,6.48,16,1.33,1.33,0,0,1,7.57,14.75Z"/><path class="cls-10" d="M25.57,14.75a19.76,19.76,0,0,1,6.86,0,1.34,1.34,0,0,1-.19,2.66c-2,.08-5.82,0-6.48,0A1.34,1.34,0,0,1,24.48,16,1.33,1.33,0,0,1,25.57,14.75Z"/></g></g></g></g></svg>