<svg xmlns="http://www.w3.org/2000/svg" xmlns:xlink="http://www.w3.org/1999/xlink" viewBox="0 0 40.54 39.86"><defs><style>.cls-1{fill:url(#鍊踑臇蜸馯鳺艜_205);}.cls-2{fill:url(#鍊踑臇蜸馯鳺艜_173);}.cls-3{fill:url(#鍊踑臇蜸馯鳺艜_223);}.cls-4{fill:url(#鍊踑臇蜸馯鳺艜_173-2);}.cls-5{fill:url(#鍊踑臇蜸馯鳺艜_64);}.cls-6{fill:url(#鍊踑臇蜸馯鳺艜_64-2);}.cls-7{fill:url(#鍊踑臇蜸馯鳺艜_117);}.cls-8{fill:url(#鍊踑臇蜸馯鳺艜_117-2);}.cls-9{fill:url(#鍊踑臇蜸馯鳺艜_130);}.cls-10{fill:#526470;}.cls-11{fill:url(#鍊踑臇蜸馯鳺艜_389);}.cls-12{fill:url(#鍊踑臇蜸馯鳺艜_389-2);}.cls-13{fill:url(#鍊踑臇蜸馯鳺艜_130-2);}.cls-14{fill:url(#鍊踑臇蜸馯鳺艜_389-3);}.cls-15{fill:url(#鍊踑臇蜸馯鳺艜_130-3);}</style><linearGradient id="鍊踑臇蜸馯鳺艜_205" x1="20" y1="39.33" x2="20" gradientUnits="userSpaceOnUse"><stop offset="0.25" stop-color="#fed223"/><stop offset="0.44" stop-color="#fed62c"/><stop offset="0.74" stop-color="#fee244"/><stop offset="1" stop-color="#feef5e"/></linearGradient><linearGradient id="鍊踑臇蜸馯鳺艜_173" x1="20" y1="39.33" x2="20" y2="17.46" gradientUnits="userSpaceOnUse"><stop offset="0.25" stop-color="#feb123"/><stop offset="0.54" stop-color="#feba23"/><stop offset="1" stop-color="#fed223"/></linearGradient><linearGradient id="鍊踑臇蜸馯鳺艜_223" x1="20" y1="1.93" x2="20" y2="4.76" gradientUnits="userSpaceOnUse"><stop offset="0.25" stop-color="#fff8b5"/><stop offset="0.39" stop-color="#fff7ac"/><stop offset="0.62" stop-color="#fff594"/><stop offset="0.91" stop-color="#fef06c"/><stop offset="1" stop-color="#feef5e"/></linearGradient><linearGradient id="鍊踑臇蜸馯鳺艜_173-2" x1="23.77" y1="37.4" x2="23.77" y2="8.76" xlink:href="#鍊踑臇蜸馯鳺艜_173"/><linearGradient id="鍊踑臇蜸馯鳺艜_64" x1="13.29" y1="19.98" x2="13.29" y2="11.1" gradientUnits="userSpaceOnUse"><stop offset="0" stop-color="#feef5e"/><stop offset="0.26" stop-color="#fee244"/><stop offset="0.56" stop-color="#fed62c"/><stop offset="0.75" stop-color="#fed223"/></linearGradient><linearGradient id="鍊踑臇蜸馯鳺艜_64-2" x1="26.62" y1="19.98" x2="26.62" y2="11.1" xlink:href="#鍊踑臇蜸馯鳺艜_64"/><linearGradient id="鍊踑臇蜸馯鳺艜_117" x1="13.29" y1="18.98" x2="13.29" y2="10.1" gradientUnits="userSpaceOnUse"><stop offset="0.25" stop-color="#85321b"/><stop offset="0.42" stop-color="#7c2f1a"/><stop offset="0.7" stop-color="#642516"/><stop offset="1" stop-color="#421811"/></linearGradient><linearGradient id="鍊踑臇蜸馯鳺艜_117-2" x1="26.62" y1="18.98" x2="26.62" y2="10.1" xlink:href="#鍊踑臇蜸馯鳺艜_117"/><linearGradient id="鍊踑臇蜸馯鳺艜_130" x1="20" y1="27.65" x2="20" y2="24.65" gradientUnits="userSpaceOnUse"><stop offset="0.25" stop-color="#526470"/><stop offset="0.45" stop-color="#4b5c67"/><stop offset="0.78" stop-color="#37454f"/><stop offset="1" stop-color="#27333b"/></linearGradient><linearGradient id="鍊踑臇蜸馯鳺艜_389" x1="21" y1="24.65" x2="21" y2="21.98" gradientUnits="userSpaceOnUse"><stop offset="0.25" stop-color="#dbdbdb"/><stop offset="0.43" stop-color="#d2d5d6"/><stop offset="0.71" stop-color="#bac4ca"/><stop offset="1" stop-color="#9bafba"/></linearGradient><linearGradient id="鍊踑臇蜸馯鳺艜_389-2" x1="18.33" y1="27.65" x2="18.33" y2="25.98" xlink:href="#鍊踑臇蜸馯鳺艜_389"/><linearGradient id="鍊踑臇蜸馯鳺艜_130-2" x1="18.33" y1="27.65" x2="18.33" y2="30.32" xlink:href="#鍊踑臇蜸馯鳺艜_130"/><linearGradient id="鍊踑臇蜸馯鳺艜_389-3" x1="27.5" y1="26.82" x2="37.88" y2="37.19" xlink:href="#鍊踑臇蜸馯鳺艜_389"/><linearGradient id="鍊踑臇蜸馯鳺艜_130-3" x1="26.91" y1="29.58" x2="38.24" y2="36.13" xlink:href="#鍊踑臇蜸馯鳺艜_130"/></defs><title>資產 21</title><g id="圖層_2" data-name="圖層 2"><g id="Icons"><g id="Icon"><g id="Body"><path id="Body-2" data-name="Body" class="cls-1" d="M40,21c0,11.74-8.07,18.33-20,18.33S0,32.74,0,21C0,8.82,7.62,0,20,0S40,8.82,40,21Z"/><path class="cls-2" d="M20,34.33C3.59,33.89,1.61,27.14.23,17.46A27.22,27.22,0,0,0,0,21C0,32.74,8.07,39.33,20,39.33S40,32.74,40,21a27.22,27.22,0,0,0-.23-3.54C38.39,27.14,34.83,34.72,20,34.33Z"/><path class="cls-3" d="M24.83,3.35C24.71,4.05,23,4.76,20,4.76s-4.71-.71-4.83-1.41S17.43,1.93,20,1.93,24.94,2.65,24.83,3.35Z"/></g><path class="cls-4" d="M10.62,13.47a11,11,0,0,1,.42-3,2.34,2.34,0,0,1,4.5,0,11,11,0,0,1,.42,3,11.4,11.4,0,0,1-.22,2.2,2.51,2.51,0,0,1-4.9,0A11.4,11.4,0,0,1,10.62,13.47Zm13.75-3a11,11,0,0,0-.41,3,10.66,10.66,0,0,0,.22,2.2,2.5,2.5,0,0,0,4.89,0,11.4,11.4,0,0,0,.22-2.2,11,11,0,0,0-.41-3A2.34,2.34,0,0,0,24.37,10.47ZM17.33,26h2V23.32h3.34V26h2V23.32H28V26h.33A1.51,1.51,0,0,1,29.76,27a4,4,0,0,1,2.75.59c.13.08,2.8,2,4.86,3.48-.18.28-.36.57-.55.85a14.65,14.65,0,0,1-1.1,1.37,16.36,16.36,0,0,1-1.92,1.8A17.47,17.47,0,0,1,30,37.4c-1.34-1.86-2.81-3.93-2.93-4.09A4,4,0,0,1,26.89,29H25.33v2.67H22V29H20v2.67H16.67V29h-2v2.67H11.33V29a1.61,1.61,0,0,1-1.16-1.5,1.5,1.5,0,0,1,1.5-1.5H14V23.32h3.33Zm11,5a2,2,0,1,0,2-2A2,2,0,0,0,28.33,31Z"/><g id="Face"><path class="cls-5" d="M10.62,15.81A11.3,11.3,0,0,0,10.84,18a2.51,2.51,0,0,0,4.9,0A11.3,11.3,0,0,0,16,15.81a11.11,11.11,0,0,0-.42-3,2.34,2.34,0,0,0-4.5,0A11.11,11.11,0,0,0,10.62,15.81Z"/><path class="cls-6" d="M29.29,15.81A11.3,11.3,0,0,1,29.07,18a2.5,2.5,0,0,1-4.89,0A10.57,10.57,0,0,1,24,15.81a11.1,11.1,0,0,1,.41-3,2.34,2.34,0,0,1,4.51,0A11.1,11.1,0,0,1,29.29,15.81Z"/><path class="cls-7" d="M10.62,14.81A11.3,11.3,0,0,0,10.84,17a2.51,2.51,0,0,0,4.9,0A11.3,11.3,0,0,0,16,14.81a11.11,11.11,0,0,0-.42-3,2.34,2.34,0,0,0-4.5,0A11.11,11.11,0,0,0,10.62,14.81Z"/><path class="cls-8" d="M29.29,14.81A11.3,11.3,0,0,1,29.07,17a2.5,2.5,0,0,1-4.89,0A10.57,10.57,0,0,1,24,14.81a11.1,11.1,0,0,1,.41-3,2.34,2.34,0,0,1,4.51,0A11.1,11.1,0,0,1,29.29,14.81Z"/><path class="cls-9" d="M28.33,27.65h-17a1.61,1.61,0,0,1-1.16-1.5,1.5,1.5,0,0,1,1.5-1.5H28.33a1.5,1.5,0,0,1,0,3Z"/><path class="cls-10" d="M17.33,24.65a1.67,1.67,0,1,1-3.33,0Zm2,0a1.67,1.67,0,0,0,3.34,0Zm5.34,0a1.67,1.67,0,1,0,3.33,0Z"/><path class="cls-11" d="M17.33,24.65H14V22h3.33ZM22.67,22H19.33v2.67h3.34ZM28,22H24.67v2.67H28Z"/><path class="cls-12" d="M11.33,27.65a1.67,1.67,0,0,1,3.34,0Zm8.67,0a1.67,1.67,0,1,0-3.33,0Zm5.33,0a1.67,1.67,0,1,0-3.33,0Z"/><path class="cls-13" d="M14.67,30.32H11.33V27.65h3.34ZM20,27.65H16.67v2.67H20Zm5.33,0H22v2.67h3.33Z"/><path class="cls-14" d="M32.51,26.3A4,4,0,0,0,27.08,32c.21.29,4.88,6.84,5.14,7.1a2.67,2.67,0,0,0,3.77,0l3.77-3.77a2.67,2.67,0,0,0,0-3.77C39.5,31.28,32.72,26.43,32.51,26.3Zm-.18,3.35a2,2,0,1,1-2-2A2,2,0,0,1,32.33,29.65Z"/><path class="cls-15" d="M39.06,32.24c-.14-.13-7-5-7.1-5.11a3,3,0,0,0-4.14,4.16c.13.2,4.94,6.91,5.11,7.08a1.65,1.65,0,0,0,2.35,0l3.78-3.77A1.69,1.69,0,0,0,39.06,32.24Zm-8.73-.59a2,2,0,1,1,2-2A2,2,0,0,1,30.33,31.65Z"/></g></g></g></g></svg>