<svg xmlns="http://www.w3.org/2000/svg" xmlns:xlink="http://www.w3.org/1999/xlink" viewBox="0 0 40 39.33"><defs><style>.cls-1{fill:url(#鍊踑臇蜸馯鳺艜_205);}.cls-2{fill:url(#鍊踑臇蜸馯鳺艜_173);}.cls-3{fill:url(#鍊踑臇蜸馯鳺艜_223);}.cls-4{fill:url(#鍊踑臇蜸馯鳺艜_173-2);}.cls-5{fill:url(#鍊踑臇蜸馯鳺艜_5);}.cls-6{fill:#d97818;}.cls-7{fill:url(#鍊踑臇蜸馯鳺艜_117);}.cls-8{fill:url(#鍊踑臇蜸馯鳺艜_117-2);}.cls-9{fill:url(#鍊踑臇蜸馯鳺艜_117-3);}.cls-10{fill:url(#鍊踑臇蜸馯鳺艜_192);}.cls-11{fill:url(#鍊踑臇蜸馯鳺艜_37);}</style><linearGradient id="鍊踑臇蜸馯鳺艜_205" x1="20" y1="39.33" x2="20" gradientUnits="userSpaceOnUse"><stop offset="0.25" stop-color="#fed223"/><stop offset="0.44" stop-color="#fed62c"/><stop offset="0.74" stop-color="#fee244"/><stop offset="1" stop-color="#feef5e"/></linearGradient><linearGradient id="鍊踑臇蜸馯鳺艜_173" x1="20" y1="39.33" x2="20" y2="17.46" gradientUnits="userSpaceOnUse"><stop offset="0.25" stop-color="#feb123"/><stop offset="0.54" stop-color="#feba23"/><stop offset="1" stop-color="#fed223"/></linearGradient><linearGradient id="鍊踑臇蜸馯鳺艜_223" x1="20" y1="1.93" x2="20" y2="4.76" gradientUnits="userSpaceOnUse"><stop offset="0.25" stop-color="#fff8b5"/><stop offset="0.39" stop-color="#fff7ac"/><stop offset="0.62" stop-color="#fff594"/><stop offset="0.91" stop-color="#fef06c"/><stop offset="1" stop-color="#feef5e"/></linearGradient><linearGradient id="鍊踑臇蜸馯鳺艜_173-2" x1="20" y1="23.73" x2="20" y2="9.06" xlink:href="#鍊踑臇蜸馯鳺艜_173"/><linearGradient id="鍊踑臇蜸馯鳺艜_5" x1="20" y1="30.31" x2="20" y2="31.25" gradientUnits="userSpaceOnUse"><stop offset="0.25" stop-color="#feef5e"/><stop offset="0.44" stop-color="#feeb55"/><stop offset="0.74" stop-color="#fedf3d"/><stop offset="1" stop-color="#fed223"/></linearGradient><linearGradient id="鍊踑臇蜸馯鳺艜_117" x1="12.37" y1="14.15" x2="12.37" y2="22.39" gradientUnits="userSpaceOnUse"><stop offset="0.25" stop-color="#85321b"/><stop offset="0.42" stop-color="#7c2f1a"/><stop offset="0.7" stop-color="#642516"/><stop offset="1" stop-color="#421811"/></linearGradient><linearGradient id="鍊踑臇蜸馯鳺艜_117-2" x1="27.63" y1="14.15" x2="27.63" y2="22.39" xlink:href="#鍊踑臇蜸馯鳺艜_117"/><linearGradient id="鍊踑臇蜸馯鳺艜_117-3" x1="20" y1="31.26" x2="20" y2="22.31" xlink:href="#鍊踑臇蜸馯鳺艜_117"/><linearGradient id="鍊踑臇蜸馯鳺艜_192" x1="20" y1="39.33" x2="20" y2="24.31" gradientUnits="userSpaceOnUse"><stop offset="0.25" stop-color="#57c115"/><stop offset="0.52" stop-color="#5aca1a"/><stop offset="0.96" stop-color="#62e227"/><stop offset="1" stop-color="#63e529"/></linearGradient><linearGradient id="鍊踑臇蜸馯鳺艜_37" x1="20" y1="36.75" x2="20" y2="26.01" gradientUnits="userSpaceOnUse"><stop offset="0.25" stop-color="#63e529"/><stop offset="0.36" stop-color="#6ae732"/><stop offset="0.55" stop-color="#7cec4a"/><stop offset="0.78" stop-color="#9af572"/><stop offset="1" stop-color="#bcff9e"/></linearGradient></defs><title>資產 22</title><g id="圖層_2" data-name="圖層 2"><g id="Icons"><g id="Icon"><g id="Body"><path id="Body-2" data-name="Body" class="cls-1" d="M40,21c0,11.74-8.07,18.33-20,18.33S0,32.74,0,21C0,8.82,7.62,0,20,0S40,8.82,40,21Z"/><path class="cls-2" d="M20,34.33C3.59,33.89,1.61,27.14.23,17.46A27.22,27.22,0,0,0,0,21C0,32.74,8.07,39.33,20,39.33S40,32.74,40,21a27.22,27.22,0,0,0-.23-3.54C38.39,27.14,34.83,34.72,20,34.33Z"/><path class="cls-3" d="M24.83,3.35C24.71,4.05,23,4.76,20,4.76s-4.71-.71-4.83-1.41S17.43,1.93,20,1.93,24.94,2.65,24.83,3.35Z"/></g><path class="cls-4" d="M33.67,12.69a.49.49,0,0,1-.38.41,8.1,8.1,0,0,1-4.49-.25,6.07,6.07,0,0,1-3.61-2.79.69.69,0,0,1,.32-.92.65.65,0,0,1,.68,0,30,30,0,0,0,3.29,1.88,15.11,15.11,0,0,0,3.76,1A.52.52,0,0,1,33.67,12.69ZM16.77,17.9A12.81,12.81,0,0,0,9,15.51a.68.68,0,0,0-.19,1.31,38,38,0,0,1,3.62,1.58,10,10,0,0,0-4.91,4.31.68.68,0,0,0,1,.85c2.16-1.82,4.42-3.21,7.53-3.24A1.32,1.32,0,0,0,16.77,17.9Zm-5.57-5a6,6,0,0,0,3.6-2.79.68.68,0,0,0-.31-.92.65.65,0,0,0-.68,0,31,31,0,0,1-3.29,1.88,15.11,15.11,0,0,1-3.76,1,.52.52,0,0,0-.43.59.49.49,0,0,0,.38.41A8.1,8.1,0,0,0,11.2,12.85ZM27.61,18.4a38,38,0,0,1,3.62-1.58A.68.68,0,0,0,31,15.51a12.81,12.81,0,0,0-7.81,2.39A1.32,1.32,0,0,0,24,20.32c3.1,0,5.37,1.42,7.52,3.24a.68.68,0,0,0,1-.85A10,10,0,0,0,27.61,18.4Z"/><g id="Face"><path class="cls-5" d="M23.39,30.44c-1.47-.15-2.5-.11-3.39-.13s-1.92,0-3.39.14-3.21.41-5.55.7l-.84.1H29.78l-.84-.1C26.6,30.85,24.86,30.57,23.39,30.44Z"/><path class="cls-6" d="M13.81,7.85a30.72,30.72,0,0,1-3.29,1.87,15.12,15.12,0,0,1-3.76,1,.51.51,0,0,0,0,1,8.29,8.29,0,0,0,4.49-.25,6.05,6.05,0,0,0,3.6-2.79.69.69,0,0,0-.31-.93A.67.67,0,0,0,13.81,7.85Z"/><path class="cls-6" d="M26.19,7.85a29.78,29.78,0,0,0,3.29,1.87,15.12,15.12,0,0,0,3.76,1,.51.51,0,0,1,0,1,8.29,8.29,0,0,1-4.49-.25,6.1,6.1,0,0,1-3.61-2.79.7.7,0,0,1,.32-.93A.67.67,0,0,1,26.19,7.85Z"/><path class="cls-7" d="M16.77,16.56A13,13,0,0,0,9,14.17a.68.68,0,0,0-.19,1.32c.87.35,2.1.8,3.62,1.57a10,10,0,0,0-4.91,4.32.67.67,0,0,0,1,.84C10.67,20.4,12.93,19,16,19A1.33,1.33,0,0,0,16.77,16.56Z"/><path class="cls-8" d="M23.23,16.56A13,13,0,0,1,31,14.17a.68.68,0,0,1,.19,1.32c-.87.35-2.1.8-3.62,1.57a10,10,0,0,1,4.91,4.32.68.68,0,0,1-1,.84C29.33,20.4,27.06,19,24,19A1.33,1.33,0,0,1,23.23,16.56Z"/><path class="cls-9" d="M8.94,29.52a12.15,12.15,0,0,1,4.31-5A12,12,0,0,1,20,22.31a13.12,13.12,0,0,1,3.61.6,13,13,0,0,1,3.14,1.57,12.28,12.28,0,0,1,4.31,5,1.23,1.23,0,0,1-.63,1.63,1.15,1.15,0,0,1-.65.1l-.84-.1c-2.34-.3-4.08-.58-5.55-.71s-2.5-.11-3.39-.13-1.92,0-3.39.14-3.21.41-5.55.7l-.84.1a1.23,1.23,0,0,1-1.37-1.08A1.31,1.31,0,0,1,8.94,29.52Z"/><path class="cls-10" d="M34.52,34.52S32.71,36.1,28,37.07V29.73a4,4,0,0,0-1.61-3.21A11.09,11.09,0,0,0,20,24.31a11.24,11.24,0,0,0-6.39,2.2A4,4,0,0,0,12,29.73v7.36c-4.74-1-6.52-2.57-6.52-2.57C0,37.83,7.71,39.33,20,39.33S40,37.83,34.52,34.52Z"/><path class="cls-11" d="M26.74,29.56v2.51a1.35,1.35,0,0,1-2.69,0,1.35,1.35,0,1,0-2.7,0V35.4a1.35,1.35,0,1,1-2.7,0v-2a1.35,1.35,0,1,0-2.7,0,1.35,1.35,0,1,1-2.69,0V29.59a1.13,1.13,0,0,1,.25-.78,8,8,0,0,1,2.89-2.06,9.13,9.13,0,0,1,7.2,0,7.85,7.85,0,0,1,2.89,2.06A1.08,1.08,0,0,1,26.74,29.56Z"/></g></g></g></g></svg>