<svg xmlns="http://www.w3.org/2000/svg" xmlns:xlink="http://www.w3.org/1999/xlink" viewBox="0 0 40.69 39.33"><defs><style>.cls-1{fill:url(#鍊踑臇蜸馯鳺艜_205);}.cls-2{fill:url(#鍊踑臇蜸馯鳺艜_173);}.cls-3{fill:url(#鍊踑臇蜸馯鳺艜_223);}.cls-4{fill:url(#鍊踑臇蜸馯鳺艜_173-2);}.cls-5{fill:url(#鍊踑臇蜸馯鳺艜_117);}.cls-6{fill:url(#鍊踑臇蜸馯鳺艜_117-2);}.cls-7{fill:url(#鍊踑臇蜸馯鳺艜_21);}.cls-8{fill:url(#鍊踑臇蜸馯鳺艜_21-2);}.cls-9{fill:url(#鍊踑臇蜸馯鳺艜_21-3);}.cls-10{fill:url(#鍊踑臇蜸馯鳺艜_21-4);}.cls-11{fill:url(#鍊踑臇蜸馯鳺艜_244);}</style><linearGradient id="鍊踑臇蜸馯鳺艜_205" x1="20.34" y1="39.33" x2="20.34" gradientUnits="userSpaceOnUse"><stop offset="0.25" stop-color="#fed223"/><stop offset="0.44" stop-color="#fed62c"/><stop offset="0.74" stop-color="#fee244"/><stop offset="1" stop-color="#feef5e"/></linearGradient><linearGradient id="鍊踑臇蜸馯鳺艜_173" x1="20.34" y1="39.33" x2="20.34" y2="17.46" gradientUnits="userSpaceOnUse"><stop offset="0.25" stop-color="#feb123"/><stop offset="0.54" stop-color="#feba23"/><stop offset="1" stop-color="#fed223"/></linearGradient><linearGradient id="鍊踑臇蜸馯鳺艜_223" x1="20.34" y1="1.93" x2="20.34" y2="4.76" gradientUnits="userSpaceOnUse"><stop offset="0.25" stop-color="#fff8b5"/><stop offset="0.39" stop-color="#fff7ac"/><stop offset="0.62" stop-color="#fff594"/><stop offset="0.91" stop-color="#fef06c"/><stop offset="1" stop-color="#feef5e"/></linearGradient><linearGradient id="鍊踑臇蜸馯鳺艜_173-2" x1="20.34" y1="36.19" x2="20.34" y2="12.5" xlink:href="#鍊踑臇蜸馯鳺艜_173"/><linearGradient id="鍊踑臇蜸馯鳺艜_117" x1="13.27" y1="16.09" x2="11.69" y2="11.11" gradientUnits="userSpaceOnUse"><stop offset="0.25" stop-color="#85321b"/><stop offset="0.42" stop-color="#7c2f1a"/><stop offset="0.7" stop-color="#642516"/><stop offset="1" stop-color="#421811"/></linearGradient><linearGradient id="鍊踑臇蜸馯鳺艜_117-2" x1="27.55" y1="16.07" x2="29.2" y2="11.1" xlink:href="#鍊踑臇蜸馯鳺艜_117"/><linearGradient id="鍊踑臇蜸馯鳺艜_21" y1="21.69" x2="11.37" y2="21.69" gradientUnits="userSpaceOnUse"><stop offset="0" stop-color="#9bafba"/><stop offset="0.03" stop-color="#abbcc5"/><stop offset="0.11" stop-color="#c9d4da"/><stop offset="0.2" stop-color="#e1e7ea"/><stop offset="0.28" stop-color="#f2f4f6"/><stop offset="0.38" stop-color="#fcfcfd"/><stop offset="0.5" stop-color="#fff"/><stop offset="0.62" stop-color="#fcfcfd"/><stop offset="0.72" stop-color="#f2f4f6"/><stop offset="0.8" stop-color="#e1e7ea"/><stop offset="0.89" stop-color="#c9d4da"/><stop offset="0.97" stop-color="#abbcc5"/><stop offset="1" stop-color="#9bafba"/></linearGradient><linearGradient id="鍊踑臇蜸馯鳺艜_21-2" x1="0.7" y1="28.99" x2="11.17" y2="28.99" xlink:href="#鍊踑臇蜸馯鳺艜_21"/><linearGradient id="鍊踑臇蜸馯鳺艜_21-3" x1="29.51" y1="28.99" x2="39.99" y2="28.99" xlink:href="#鍊踑臇蜸馯鳺艜_21"/><linearGradient id="鍊踑臇蜸馯鳺艜_21-4" x1="29.31" y1="21.69" x2="40.69" y2="21.69" xlink:href="#鍊踑臇蜸馯鳺艜_21"/><linearGradient id="鍊踑臇蜸馯鳺艜_244" x1="20.34" y1="20.87" x2="20.34" y2="34.86" gradientUnits="userSpaceOnUse"><stop offset="0.25" stop-color="#fff"/><stop offset="0.52" stop-color="#f6f6f6"/><stop offset="0.96" stop-color="#dedede"/><stop offset="1" stop-color="#dbdbdb"/></linearGradient></defs><title>資產 23</title><g id="圖層_2" data-name="圖層 2"><g id="Icons"><g id="Icon"><g id="Body"><path id="Body-2" data-name="Body" class="cls-1" d="M40.34,21c0,11.74-8.06,18.33-20,18.33S.34,32.74.34,21C.34,8.82,8,0,20.34,0S40.34,8.82,40.34,21Z"/><path class="cls-2" d="M20.34,34.33C3.93,33.89,2,27.14.57,17.46A27.22,27.22,0,0,0,.34,21c0,11.74,8.07,18.33,20,18.33s20-6.59,20-18.33a27.22,27.22,0,0,0-.23-3.54C38.73,27.14,35.17,34.72,20.34,34.33Z"/><path class="cls-3" d="M25.17,3.35c-.11.7-1.84,1.41-4.83,1.41s-4.71-.71-4.82-1.41,2.25-1.42,4.82-1.42S25.28,2.65,25.17,3.35Z"/></g><path class="cls-4" d="M32.6,15a.62.62,0,0,1,.51.18.64.64,0,0,1,0,.91,5.2,5.2,0,0,1-5.5,1.35,6.44,6.44,0,0,1-3.78-4.08.65.65,0,0,1,1-.73l.21.15a15.23,15.23,0,0,0,3.5,2.17C29.91,15.4,30.76,15.17,32.6,15ZM16.05,12.62l-.22.15a15.23,15.23,0,0,1-3.5,2.17c-1.38.46-2.22.23-4.07.05a.62.62,0,0,0-.51.18.65.65,0,0,0,0,.91,5.2,5.2,0,0,0,5.5,1.35A6.44,6.44,0,0,0,17,13.35a.68.68,0,0,0-.08-.57A.65.65,0,0,0,16.05,12.62Zm24.24,6.71a.23.23,0,0,0-.14,0l-9.46,4.33V23.6a1.34,1.34,0,0,0-1.24-1.13,153.49,153.49,0,0,0-18.2,0A1.34,1.34,0,0,0,10,23.6v.07L.53,19.34a.17.17,0,0,0-.12,0h0c0,.55-.06,1.1-.06,1.66s0,.82,0,1.22l9.27,4.22a22.46,22.46,0,0,0,0,3.48L1.42,27.84A16.53,16.53,0,0,0,2.88,31l7.1,1.8a1.24,1.24,0,0,0,0,.18,2,2,0,0,0,1.21,1.56,25.44,25.44,0,0,0,18.26,0,2,2,0,0,0,1.22-1.56,1,1,0,0,1,0-.18l7.1-1.8a17.34,17.34,0,0,0,1.44-3.11L31,29.92a22.46,22.46,0,0,0,0-3.48l9.26-4.22c0-.4,0-.8,0-1.22s0-1.11-.05-1.66Z"/><g id="Face"><g id="Eyes"><path class="cls-5" d="M17,12a6.46,6.46,0,0,1-3.78,4.09,5.22,5.22,0,0,1-5.5-1.36.63.63,0,0,1,0-.9.67.67,0,0,1,.51-.19c1.85.19,2.69.41,4.07-.05a14.86,14.86,0,0,0,3.5-2.16l.22-.15a.64.64,0,0,1,.9.16A.66.66,0,0,1,17,12Z"/><path class="cls-6" d="M23.83,12a6.46,6.46,0,0,0,3.78,4.09,5.22,5.22,0,0,0,5.5-1.36.63.63,0,0,0,0-.9.67.67,0,0,0-.51-.19c-1.84.19-2.69.41-4.07-.05A14.86,14.86,0,0,1,25,11.44l-.21-.15a.65.65,0,0,0-1,.72Z"/></g><path class="cls-7" d="M.31,20.85l10,4.54L11.37,23,.53,18C-.15,17.7-.12,20.66.31,20.85Z"/><path class="cls-8" d="M2,29.42l8.48,2.14L11.17,29l-10-2.55C.06,26.17,1.22,29.21,2,29.42Z"/><path class="cls-9" d="M39.57,26.43,29.51,29l.66,2.58,8.48-2.14C39.46,29.21,40.63,26.17,39.57,26.43Z"/><path class="cls-10" d="M40.15,18,29.31,23l1.11,2.43,10-4.54C40.8,20.66,40.84,17.7,40.15,18Z"/><path class="cls-11" d="M29.47,33.17a25.44,25.44,0,0,1-18.26,0A2,2,0,0,1,10,31.6a25.65,25.65,0,0,1,0-9.33,1.34,1.34,0,0,1,1.23-1.13,149.35,149.35,0,0,1,18.2,0,1.34,1.34,0,0,1,1.24,1.13,25.88,25.88,0,0,1,0,9.33A2.05,2.05,0,0,1,29.47,33.17Z"/></g></g></g></g></svg>