<svg xmlns="http://www.w3.org/2000/svg" xmlns:xlink="http://www.w3.org/1999/xlink" viewBox="0 0 40 39.87"><defs><style>.cls-1{fill:url(#鍊踑臇蜸馯鳺艜_205);}.cls-2{fill:url(#鍊踑臇蜸馯鳺艜_173);}.cls-3{fill:url(#鍊踑臇蜸馯鳺艜_223);}.cls-4{fill:url(#鍊踑臇蜸馯鳺艜_173-2);}.cls-5{fill:url(#鍊踑臇蜸馯鳺艜_75);}.cls-6{fill:url(#鍊踑臇蜸馯鳺艜_117);}.cls-7{fill:url(#鍊踑臇蜸馯鳺艜_397);}.cls-8{fill:url(#鍊踑臇蜸馯鳺艜_400);}.cls-9{fill:url(#鍊踑臇蜸馯鳺艜_400-2);}.cls-10{fill:url(#鍊踑臇蜸馯鳺艜_117-2);}.cls-11{fill:url(#鍊踑臇蜸馯鳺艜_117-3);}</style><linearGradient id="鍊踑臇蜸馯鳺艜_205" x1="20" y1="39.33" x2="20" gradientUnits="userSpaceOnUse"><stop offset="0.25" stop-color="#fed223"/><stop offset="0.44" stop-color="#fed62c"/><stop offset="0.74" stop-color="#fee244"/><stop offset="1" stop-color="#feef5e"/></linearGradient><linearGradient id="鍊踑臇蜸馯鳺艜_173" x1="20" y1="39.33" x2="20" y2="17.46" gradientUnits="userSpaceOnUse"><stop offset="0.25" stop-color="#feb123"/><stop offset="0.54" stop-color="#feba23"/><stop offset="1" stop-color="#fed223"/></linearGradient><linearGradient id="鍊踑臇蜸馯鳺艜_223" x1="20" y1="1.93" x2="20" y2="4.76" gradientUnits="userSpaceOnUse"><stop offset="0.25" stop-color="#fff8b5"/><stop offset="0.39" stop-color="#fff7ac"/><stop offset="0.62" stop-color="#fff594"/><stop offset="0.91" stop-color="#fef06c"/><stop offset="1" stop-color="#feef5e"/></linearGradient><linearGradient id="鍊踑臇蜸馯鳺艜_173-2" x1="20" y1="21.24" x2="20" y2="7.91" xlink:href="#鍊踑臇蜸馯鳺艜_173"/><linearGradient id="鍊踑臇蜸馯鳺艜_75" x1="20" y1="33.69" x2="20" y2="22.26" gradientUnits="userSpaceOnUse"><stop offset="0" stop-color="#feef5e"/><stop offset="0.26" stop-color="#fee244"/><stop offset="0.56" stop-color="#fed62c"/><stop offset="0.75" stop-color="#fed223"/></linearGradient><linearGradient id="鍊踑臇蜸馯鳺艜_117" x1="20" y1="32.69" x2="20" y2="21.26" gradientUnits="userSpaceOnUse"><stop offset="0.25" stop-color="#85321b"/><stop offset="0.42" stop-color="#7c2f1a"/><stop offset="0.7" stop-color="#642516"/><stop offset="1" stop-color="#421811"/></linearGradient><linearGradient id="鍊踑臇蜸馯鳺艜_397" x1="20" y1="39.87" x2="20" y2="24.66" gradientUnits="userSpaceOnUse"><stop offset="0.25" stop-color="#63e529"/><stop offset="0.52" stop-color="#60dc24"/><stop offset="0.96" stop-color="#58c417"/><stop offset="1" stop-color="#57c115"/></linearGradient><linearGradient id="鍊踑臇蜸馯鳺艜_400" x1="20" y1="39.87" x2="20" y2="33.9" gradientUnits="userSpaceOnUse"><stop offset="0.25" stop-color="#57c115"/><stop offset="0.51" stop-color="#54b810"/><stop offset="0.94" stop-color="#4ba002"/><stop offset="1" stop-color="#4a9c00"/></linearGradient><linearGradient id="鍊踑臇蜸馯鳺艜_400-2" x1="20" y1="33.5" x2="20" y2="24.7" xlink:href="#鍊踑臇蜸馯鳺艜_400"/><linearGradient id="鍊踑臇蜸馯鳺艜_117-2" x1="13.5" y1="19.91" x2="13.5" y2="6.57" xlink:href="#鍊踑臇蜸馯鳺艜_117"/><linearGradient id="鍊踑臇蜸馯鳺艜_117-3" x1="26.5" y1="19.91" x2="26.5" y2="6.57" xlink:href="#鍊踑臇蜸馯鳺艜_117"/></defs><title>資產 24</title><g id="圖層_2" data-name="圖層 2"><g id="Icons"><g id="Icon"><g id="Body"><path id="Body-2" data-name="Body" class="cls-1" d="M40,21c0,11.74-8.07,18.33-20,18.33S0,32.74,0,21C0,8.82,7.62,0,20,0S40,8.82,40,21Z"/><path class="cls-2" d="M20,34.33C3.59,33.89,1.61,27.14.23,17.46A27.22,27.22,0,0,0,0,21C0,32.74,8.07,39.33,20,39.33S40,32.74,40,21a27.22,27.22,0,0,0-.23-3.54C38.39,27.14,34.83,34.72,20,34.33Z"/><path class="cls-3" d="M24.83,3.35C24.71,4.05,23,4.76,20,4.76s-4.71-.71-4.83-1.41S17.43,1.93,20,1.93,24.94,2.65,24.83,3.35Z"/></g><path class="cls-4" d="M15.83,12.41h1.34a3.12,3.12,0,0,0-3-3.11V7.91H12.83V9.28c-2.19.24-3,1.64-3,3,0,1.78,1.56,2.4,3,2.83v3.44a1.75,1.75,0,0,1-1.66-1.77H9.83a3.13,3.13,0,0,0,3,3.11v1.39h1.34V19.87c2.19-.24,3-1.64,3-3,0-1.78-1.56-2.41-3-2.84V10.63A1.77,1.77,0,0,1,15.83,12.41Zm-3,1.26c-1.12-.37-1.66-.72-1.66-1.43,0-1.1.8-1.5,1.66-1.62Zm3,3.24c0,1.09-.8,1.5-1.66,1.62V15.47C15.29,15.84,15.83,16.19,15.83,16.91Zm8.34-.17H22.83a3.13,3.13,0,0,0,3,3.11v1.39h1.34V19.87c2.19-.24,3-1.64,3-3,0-1.78-1.56-2.41-3-2.84V10.63a1.77,1.77,0,0,1,1.66,1.78h1.34a3.13,3.13,0,0,0-3-3.11V7.91H25.83V9.28c-2.19.24-3,1.64-3,3,0,1.78,1.56,2.4,3,2.83v3.44A1.75,1.75,0,0,1,24.17,16.74Zm3-1.27c1.12.37,1.66.72,1.66,1.44,0,1.09-.8,1.5-1.66,1.62Zm-3-3.23c0-1.1.8-1.5,1.66-1.62v3.05C24.71,13.3,24.17,13,24.17,12.24Z"/><g id="Face"><path class="cls-5" d="M9.67,22.32c4.49,1.27,6.84,2,10.33,2s6-.79,10.33-2a1.58,1.58,0,0,1,2,1.76c-.81,5.2-6.05,9.57-12.34,9.61S8.46,29.29,7.66,24.08A1.59,1.59,0,0,1,9.67,22.32Z"/><path class="cls-6" d="M9.67,21.32c4.49,1.27,6.84,2,10.33,2s6-.79,10.33-2a1.58,1.58,0,0,1,2,1.76c-.81,5.2-6.05,9.57-12.34,9.61S8.46,28.29,7.66,23.08A1.59,1.59,0,0,1,9.67,21.32Z"/><g id="Tongue"><path class="cls-7" d="M23.21,25.56a2.21,2.21,0,0,0-1.78-.9,27.47,27.47,0,0,1-2.87,0,2,2,0,0,0-1.77.9A17.16,17.16,0,0,0,14,34.68c0,2.59,2.27,4.89,5.36,5.16,3.6.31,6.64-2,6.64-5A17.17,17.17,0,0,0,23.21,25.56Z"/><path class="cls-8" d="M19.36,37.84c-2.84-.21-5-1.92-5.32-3.94,0,.26,0,.51,0,.78,0,2.59,2.27,4.89,5.36,5.16,3.6.31,6.64-2,6.64-5,0-.3,0-.58,0-.86C25.61,36.33,22.73,38.09,19.36,37.84Z"/><path class="cls-9" d="M20.5,24.7h-1c0,.1-.51,7.76-.5,7.87a1,1,0,1,0,2-.14C20.87,30.49,20.5,24.7,20.5,24.7Z"/></g><g id="_" data-name="$"><path class="cls-10" d="M15.83,11.07h1.34a3.12,3.12,0,0,0-3-3.11V6.57H12.83V7.94c-2.19.24-3,1.64-3,3,0,1.77,1.56,2.4,3,2.83v3.44a1.76,1.76,0,0,1-1.66-1.77H9.83a3.12,3.12,0,0,0,3,3.1v1.4h1.34V18.53c2.19-.24,3-1.63,3-3,0-1.77-1.56-2.4-3-2.83V9.3A1.75,1.75,0,0,1,15.83,11.07Zm-4.66-.16c0-1.1.8-1.51,1.66-1.63v3.06C11.71,12,11.17,11.62,11.17,10.91Zm4.66,4.66c0,1.1-.8,1.5-1.66,1.62V14.14C15.29,14.51,15.83,14.86,15.83,15.57Z"/><path class="cls-11" d="M27.17,12.74V9.3a1.75,1.75,0,0,1,1.66,1.77h1.34a3.13,3.13,0,0,0-3-3.11V6.57H25.83V7.94c-2.19.24-3,1.64-3,3,0,1.77,1.56,2.4,3,2.83v3.44a1.76,1.76,0,0,1-1.66-1.77H22.83a3.12,3.12,0,0,0,3,3.1v1.4h1.34V18.53c2.19-.24,3-1.63,3-3C30.17,13.8,28.61,13.17,27.17,12.74Zm-3-1.83c0-1.1.8-1.51,1.66-1.63v3.06C24.71,12,24.17,11.62,24.17,10.91Zm3,6.28V14.14c1.12.37,1.66.72,1.66,1.43C28.83,16.67,28,17.07,27.17,17.19Z"/></g></g></g></g></g></svg>