<svg xmlns="http://www.w3.org/2000/svg" xmlns:xlink="http://www.w3.org/1999/xlink" viewBox="0 0 40 42"><defs><style>.cls-1{fill:url(#鍊踑臇蜸馯鳺艜_257);}.cls-2{fill:url(#鍊踑臇蜸馯鳺艜_180);}.cls-3{fill:url(#鍊踑臇蜸馯鳺艜_264);}.cls-4{fill:url(#鍊踑臇蜸馯鳺艜_180-2);}.cls-5{fill:url(#鍊踑臇蜸馯鳺艜_257-2);}.cls-6{fill:url(#鍊踑臇蜸馯鳺艜_257-3);}.cls-7{fill:url(#鍊踑臇蜸馯鳺艜_257-4);}.cls-8{fill:url(#鍊踑臇蜸馯鳺艜_44);}.cls-9{fill:url(#鍊踑臇蜸馯鳺艜_44-2);}.cls-10{fill:url(#鍊踑臇蜸馯鳺艜_44-3);}.cls-11{fill:#6b368d;}.cls-12{fill:url(#鍊踑臇蜸馯鳺艜_272);}</style><linearGradient id="鍊踑臇蜸馯鳺艜_257" x1="20" y1="42" x2="20" y2="2.67" gradientUnits="userSpaceOnUse"><stop offset="0.25" stop-color="#b56bed"/><stop offset="0.43" stop-color="#ba74f0"/><stop offset="0.73" stop-color="#c98cf7"/><stop offset="1" stop-color="#daa8ff"/></linearGradient><linearGradient id="鍊踑臇蜸馯鳺艜_180" x1="20" y1="42" x2="20" y2="20.13" gradientUnits="userSpaceOnUse"><stop offset="0.25" stop-color="#9051bd"/><stop offset="0.47" stop-color="#9756c6"/><stop offset="0.82" stop-color="#aa63de"/><stop offset="1" stop-color="#b56bed"/></linearGradient><linearGradient id="鍊踑臇蜸馯鳺艜_264" x1="20" y1="4.6" x2="20" y2="7.43" gradientUnits="userSpaceOnUse"><stop offset="0.25" stop-color="#e9ccff"/><stop offset="0.52" stop-color="#e5c3ff"/><stop offset="0.96" stop-color="#dbabff"/><stop offset="1" stop-color="#daa8ff"/></linearGradient><linearGradient id="鍊踑臇蜸馯鳺艜_180-2" x1="19.76" y1="26.38" x2="19.76" y2="10.97" xlink:href="#鍊踑臇蜸馯鳺艜_180"/><linearGradient id="鍊踑臇蜸馯鳺艜_257-2" x1="20" y1="26.11" x2="20" y2="35.01" xlink:href="#鍊踑臇蜸馯鳺艜_257"/><linearGradient id="鍊踑臇蜸馯鳺艜_257-3" x1="13.29" y1="24.05" x2="13.29" y2="15.16" xlink:href="#鍊踑臇蜸馯鳺艜_257"/><linearGradient id="鍊踑臇蜸馯鳺艜_257-4" x1="26.62" y1="24.05" x2="26.62" y2="15.16" xlink:href="#鍊踑臇蜸馯鳺艜_257"/><linearGradient id="鍊踑臇蜸馯鳺艜_44" x1="13.29" y1="25.05" x2="13.29" y2="16.16" gradientUnits="userSpaceOnUse"><stop offset="0.25" stop-color="#3f1654"/><stop offset="0.56" stop-color="#38134b"/><stop offset="1" stop-color="#280d36"/></linearGradient><linearGradient id="鍊踑臇蜸馯鳺艜_44-2" x1="26.62" y1="25.05" x2="26.62" y2="16.16" xlink:href="#鍊踑臇蜸馯鳺艜_44"/><linearGradient id="鍊踑臇蜸馯鳺艜_44-3" x1="20" y1="34.01" x2="20" y2="25.11" xlink:href="#鍊踑臇蜸馯鳺艜_44"/><linearGradient id="鍊踑臇蜸馯鳺艜_272" x1="20" x2="20" y2="13.14" gradientUnits="userSpaceOnUse"><stop offset="0.25" stop-color="#6b368d"/><stop offset="0.44" stop-color="#643184"/><stop offset="0.75" stop-color="#51236c"/><stop offset="1" stop-color="#3f1654"/></linearGradient></defs><title>資產 25</title><g id="圖層_2" data-name="圖層 2"><g id="Icons"><g id="Icon"><g id="Body"><path id="Body-2" data-name="Body" class="cls-1" d="M40,23.67C40,35.4,31.93,42,20,42S0,35.4,0,23.67c0-12.18,7.62-21,20-21S40,11.49,40,23.67Z"/><path class="cls-2" d="M20,37C3.59,36.56,1.61,29.81.23,20.13A27.11,27.11,0,0,0,0,23.67C0,35.4,8.07,42,20,42s20-6.6,20-18.33a27.11,27.11,0,0,0-.23-3.54C38.39,29.81,34.83,37.39,20,37Z"/><path class="cls-3" d="M24.83,6C24.71,6.72,23,7.43,20,7.43S15.29,6.72,15.17,6,17.43,4.6,20,4.6,24.94,5.31,24.83,6Z"/></g><path class="cls-4" d="M28.88,19.2a11.1,11.1,0,0,1,.41,3,11.3,11.3,0,0,1-.22,2.19,2.5,2.5,0,0,1-4.89,0A10.57,10.57,0,0,1,24,22.21a11.1,11.1,0,0,1,.41-3A2.34,2.34,0,0,1,28.88,19.2Zm1.58-8.1a8.12,8.12,0,0,0-3,0,12.15,12.15,0,0,0-2.84.88A19.6,19.6,0,0,0,22,13.39a1.54,1.54,0,0,0-.32.25A1.68,1.68,0,1,0,24.12,16l0,0A15.85,15.85,0,0,1,26,14.3,10.56,10.56,0,0,1,28,13a6.76,6.76,0,0,1,2.32-.61,4.36,4.36,0,0,1,2.35.49h0a.33.33,0,0,0,.39-.53A5.25,5.25,0,0,0,30.46,11.1ZM11,19.2a11.11,11.11,0,0,0-.42,3,11.3,11.3,0,0,0,.22,2.19,2.51,2.51,0,0,0,4.9,0A11.3,11.3,0,0,0,16,22.21a11.11,11.11,0,0,0-.42-3A2.34,2.34,0,0,0,11,19.2Zm6.44-5.81a19.1,19.1,0,0,0-2.6-1.4A12.15,12.15,0,0,0,12,11.11a8.12,8.12,0,0,0-3,0A5.25,5.25,0,0,0,6.4,12.39a.33.33,0,0,0,0,.47.35.35,0,0,0,.41.06h0a4.38,4.38,0,0,1,2.35-.49,6.7,6.7,0,0,1,2.32.61,10.28,10.28,0,0,1,2.07,1.27A16.83,16.83,0,0,1,15.37,16l0,0a1.68,1.68,0,0,0,2.4-2.36A1.85,1.85,0,0,0,17.48,13.39Z"/><g id="Face"><path class="cls-5" d="M8.91,26.35a14.94,14.94,0,0,0,5,4.18A13,13,0,0,0,20,31.68a22.71,22.71,0,0,0,3.24-.34c.27,0,.55-.1.81-.15s.49-.1.73-.17a10.46,10.46,0,0,0,1.42-.51,14.69,14.69,0,0,0,4.93-4.15.67.67,0,0,1,.95-.09.66.66,0,0,1,.21.74,11.48,11.48,0,0,1-4.69,6.05,9.46,9.46,0,0,1-1.83.91,8.47,8.47,0,0,1-1,.32l-.92.23A19.09,19.09,0,0,1,20,35a13.22,13.22,0,0,1-7.58-2,11.94,11.94,0,0,1-4.71-6,.68.68,0,0,1,1.16-.66Z"/><g id="Eyes"><path class="cls-6" d="M10.62,19.87a11.4,11.4,0,0,0,.22,2.2,2.51,2.51,0,0,0,4.9,0,11.4,11.4,0,0,0,.22-2.2,11,11,0,0,0-.42-3,2.34,2.34,0,0,0-4.5,0A11,11,0,0,0,10.62,19.87Z"/><path class="cls-7" d="M29.29,19.87a11.4,11.4,0,0,1-.22,2.2,2.5,2.5,0,0,1-4.89,0,10.66,10.66,0,0,1-.22-2.2,11,11,0,0,1,.41-3,2.34,2.34,0,0,1,4.51,0A11,11,0,0,1,29.29,19.87Z"/></g><g id="Eyes-2" data-name="Eyes"><path class="cls-8" d="M10.62,20.87a11.4,11.4,0,0,0,.22,2.2,2.51,2.51,0,0,0,4.9,0,11.4,11.4,0,0,0,.22-2.2,11,11,0,0,0-.42-3,2.34,2.34,0,0,0-4.5,0A11,11,0,0,0,10.62,20.87Z"/><path class="cls-9" d="M29.29,20.87a11.4,11.4,0,0,1-.22,2.2,2.5,2.5,0,0,1-4.89,0,10.66,10.66,0,0,1-.22-2.2,11,11,0,0,1,.41-3,2.34,2.34,0,0,1,4.51,0A11,11,0,0,1,29.29,20.87Z"/></g><path class="cls-10" d="M8.91,25.35a14.94,14.94,0,0,0,5,4.18A13,13,0,0,0,20,30.68a22.71,22.71,0,0,0,3.24-.34c.27,0,.55-.1.81-.15s.49-.1.73-.17a10.46,10.46,0,0,0,1.42-.51,14.69,14.69,0,0,0,4.93-4.15.67.67,0,0,1,.95-.09.66.66,0,0,1,.21.74,11.48,11.48,0,0,1-4.69,6.05,9.46,9.46,0,0,1-1.83.91,8.47,8.47,0,0,1-1,.32l-.92.23A19.09,19.09,0,0,1,20,34a13.22,13.22,0,0,1-7.58-2,11.94,11.94,0,0,1-4.71-6,.68.68,0,0,1,1.16-.66Z"/><g id="Eyebrows"><path class="cls-11" d="M32.7,11.58a4.27,4.27,0,0,0-2.35-.49A6.76,6.76,0,0,0,28,11.7,10.1,10.1,0,0,0,26,13a16.72,16.72,0,0,0-1.81,1.66l0,0a1.68,1.68,0,1,1-2.4-2.35,1.59,1.59,0,0,1,.32-.26,19.53,19.53,0,0,1,2.59-1.39,12.15,12.15,0,0,1,2.84-.88,8.35,8.35,0,0,1,3,0,5.33,5.33,0,0,1,2.65,1.29.34.34,0,0,1,0,.48.34.34,0,0,1-.4.06Z"/><path class="cls-11" d="M6.81,11.58a4.29,4.29,0,0,1,2.35-.49,6.7,6.7,0,0,1,2.32.61A9.84,9.84,0,0,1,13.55,13a17.82,17.82,0,0,1,1.82,1.66l0,0a1.68,1.68,0,1,0,2.4-2.35,1.92,1.92,0,0,0-.32-.26,19,19,0,0,0-2.6-1.39A12.15,12.15,0,0,0,12,9.78a8.34,8.34,0,0,0-3,0A5.33,5.33,0,0,0,6.4,11.05a.34.34,0,0,0,0,.48.35.35,0,0,0,.41.06Z"/></g><path class="cls-12" d="M31.28,5.78C34.4,5.14,36.12,3.54,37.34,0c2.93,2.93,2.55,9.15.39,13.14A18.19,18.19,0,0,0,31.28,5.78Zm-22.56,0C5.61,5.14,3.88,3.53,2.67,0-.26,2.93.12,9.14,2.27,13.14A18.19,18.19,0,0,1,8.72,5.78Z"/></g></g></g></g></svg>