<svg xmlns="http://www.w3.org/2000/svg" xmlns:xlink="http://www.w3.org/1999/xlink" viewBox="0 0 41.02 39.33"><defs><style>.cls-1{fill:url(#鍊踑臇蜸馯鳺艜_372);}.cls-2{fill:url(#鍊踑臇蜸馯鳺艜_389);}.cls-3{fill:url(#鍊踑臇蜸馯鳺艜_375);}.cls-4{fill:url(#鍊踑臇蜸馯鳺艜_389-2);}.cls-5{fill:url(#鍊踑臇蜸馯鳺艜_372-2);}.cls-6{fill:url(#鍊踑臇蜸馯鳺艜_372-3);}.cls-7{fill:url(#鍊踑臇蜸馯鳺艜_130);}.cls-8{fill:url(#鍊踑臇蜸馯鳺艜_130-2);}.cls-9{fill:url(#鍊踑臇蜸馯鳺艜_130-3);}</style><linearGradient id="鍊踑臇蜸馯鳺艜_372" x1="20.51" y1="39.33" x2="20.51" gradientUnits="userSpaceOnUse"><stop offset="0.25" stop-color="#dbdbdb"/><stop offset="0.52" stop-color="#dbe3e4"/><stop offset="0.96" stop-color="#d9fafc"/><stop offset="1" stop-color="#d9fdff"/></linearGradient><linearGradient id="鍊踑臇蜸馯鳺艜_389" x1="20.51" y1="13.75" x2="20.51" y2="39.33" gradientUnits="userSpaceOnUse"><stop offset="0.25" stop-color="#dbdbdb"/><stop offset="0.43" stop-color="#d2d5d6"/><stop offset="0.71" stop-color="#bac4ca"/><stop offset="1" stop-color="#9bafba"/></linearGradient><linearGradient id="鍊踑臇蜸馯鳺艜_375" x1="20.51" y1="2" x2="20.51" y2="4.83" gradientUnits="userSpaceOnUse"><stop offset="0.25" stop-color="#fff"/><stop offset="0.51" stop-color="#f6ffff"/><stop offset="0.93" stop-color="#defdff"/><stop offset="1" stop-color="#d9fdff"/></linearGradient><linearGradient id="鍊踑臇蜸馯鳺艜_389-2" x1="20.47" y1="15.25" x2="20.47" y2="24.13" xlink:href="#鍊踑臇蜸馯鳺艜_389"/><linearGradient id="鍊踑臇蜸馯鳺艜_372-2" x1="13.8" y1="21.8" x2="13.8" y2="12.92" xlink:href="#鍊踑臇蜸馯鳺艜_372"/><linearGradient id="鍊踑臇蜸馯鳺艜_372-3" x1="27.14" y1="21.8" x2="27.14" y2="12.92" xlink:href="#鍊踑臇蜸馯鳺艜_372"/><linearGradient id="鍊踑臇蜸馯鳺艜_130" x1="13.8" y1="22.8" x2="13.8" y2="13.92" gradientUnits="userSpaceOnUse"><stop offset="0.25" stop-color="#526470"/><stop offset="0.45" stop-color="#4b5c67"/><stop offset="0.78" stop-color="#37454f"/><stop offset="1" stop-color="#27333b"/></linearGradient><linearGradient id="鍊踑臇蜸馯鳺艜_130-2" x1="27.14" y1="22.8" x2="27.14" y2="13.92" xlink:href="#鍊踑臇蜸馯鳺艜_130"/><linearGradient id="鍊踑臇蜸馯鳺艜_130-3" x1="20.51" y1="29.17" x2="20.51" y2="24.45" xlink:href="#鍊踑臇蜸馯鳺艜_130"/></defs><title>資產 26</title><g id="圖層_2" data-name="圖層 2"><g id="Icons"><g id="Icon"><g id="Body"><path class="cls-1" d="M20.51,0C5.77,0,0,9.37,0,16.55s5.47,9.87,8.13,12.54-5,10.24,12.38,10.24,9.71-7.57,12.38-10.24S41,23.74,41,16.55,35.25,0,20.51,0Z"/><path class="cls-2" d="M32.89,25c-2.67,2.67,2.63,9.39-12.38,9.39S10.8,27.62,8.13,25c-3-3-6-2.93-7.85-11.2A14.29,14.29,0,0,0,0,16.55c0,7.19,5.47,9.87,8.13,12.54s-5,10.24,12.38,10.24,9.71-7.57,12.38-10.24S41,23.74,41,16.55a14.29,14.29,0,0,0-.28-2.8C38.93,22,35.86,22,32.89,25Z"/><path class="cls-3" d="M25.34,3.41c-.12.71-1.84,1.42-4.83,1.42s-4.71-.71-4.83-1.42S17.94,2,20.51,2,25.45,2.71,25.34,3.41Z"/></g><path id="Shadow" class="cls-4" d="M11.55,17a2.34,2.34,0,0,1,4.5,0,11.11,11.11,0,0,1,.42,3,11.3,11.3,0,0,1-.22,2.19,2.51,2.51,0,0,1-4.9,0A11.29,11.29,0,0,1,11.14,20,11.1,11.1,0,0,1,11.55,17Zm17.84,0a2.34,2.34,0,0,0-4.51,0,11.1,11.1,0,0,0-.41,3,10.57,10.57,0,0,0,.22,2.19,2.5,2.5,0,0,0,4.89,0A10.57,10.57,0,0,0,29.8,20,11.1,11.1,0,0,0,29.39,17Z"/><g id="Face"><path class="cls-5" d="M11.14,17.63a11.29,11.29,0,0,0,.21,2.19,2.51,2.51,0,0,0,4.9,0,11.3,11.3,0,0,0,.22-2.19,11.11,11.11,0,0,0-.42-3,2.34,2.34,0,0,0-4.5,0A11.1,11.1,0,0,0,11.14,17.63Z"/><path class="cls-6" d="M29.8,17.63a10.57,10.57,0,0,1-.22,2.19,2.5,2.5,0,0,1-4.89,0,10.57,10.57,0,0,1-.22-2.19,11.1,11.1,0,0,1,.41-3,2.34,2.34,0,0,1,4.51,0A11.1,11.1,0,0,1,29.8,17.63Z"/><path class="cls-7" d="M11.14,18.63a11.29,11.29,0,0,0,.21,2.19,2.51,2.51,0,0,0,4.9,0,11.3,11.3,0,0,0,.22-2.19,11.11,11.11,0,0,0-.42-3,2.34,2.34,0,0,0-4.5,0A11.1,11.1,0,0,0,11.14,18.63Z"/><path class="cls-8" d="M29.8,18.63a10.57,10.57,0,0,1-.22,2.19,2.5,2.5,0,0,1-4.89,0,10.57,10.57,0,0,1-.22-2.19,11.1,11.1,0,0,1,.41-3,2.34,2.34,0,0,1,4.51,0A11.1,11.1,0,0,1,29.8,18.63Z"/><path class="cls-9" d="M20.51,24.45c-1.71,0-5.75,4.72,0,4.72S22.23,24.45,20.51,24.45Z"/></g></g></g></g></svg>