<svg xmlns="http://www.w3.org/2000/svg" xmlns:xlink="http://www.w3.org/1999/xlink" viewBox="0 0 40 39.33"><defs><style>.cls-1{fill:url(#鍊踑臇蜸馯鳺艜_205);}.cls-2{fill:url(#鍊踑臇蜸馯鳺艜_173);}.cls-3{fill:url(#鍊踑臇蜸馯鳺艜_223);}.cls-4{fill:url(#鍊踑臇蜸馯鳺艜_173-2);}.cls-5{fill:url(#鍊踑臇蜸馯鳺艜_9);}.cls-6{fill:#fd9e21;}.cls-7{fill:url(#鍊踑臇蜸馯鳺艜_117);}.cls-8{fill:#d97818;}.cls-9{fill:url(#鍊踑臇蜸馯鳺艜_205-2);}.cls-10{fill:url(#鍊踑臇蜸馯鳺艜_239);}.cls-11{fill:#170f02;}.cls-12{fill:url(#鍊踑臇蜸馯鳺艜_205-3);}.cls-13{fill:url(#鍊踑臇蜸馯鳺艜_239-2);}</style><linearGradient id="鍊踑臇蜸馯鳺艜_205" x1="20" y1="39.33" x2="20" gradientUnits="userSpaceOnUse"><stop offset="0.25" stop-color="#fed223"/><stop offset="0.44" stop-color="#fed62c"/><stop offset="0.74" stop-color="#fee244"/><stop offset="1" stop-color="#feef5e"/></linearGradient><linearGradient id="鍊踑臇蜸馯鳺艜_173" x1="20" y1="39.33" x2="20" y2="17.46" gradientUnits="userSpaceOnUse"><stop offset="0.25" stop-color="#feb123"/><stop offset="0.54" stop-color="#feba23"/><stop offset="1" stop-color="#fed223"/></linearGradient><linearGradient id="鍊踑臇蜸馯鳺艜_223" x1="20" y1="1.93" x2="20" y2="4.76" gradientUnits="userSpaceOnUse"><stop offset="0.25" stop-color="#fff8b5"/><stop offset="0.39" stop-color="#fff7ac"/><stop offset="0.62" stop-color="#fff594"/><stop offset="0.91" stop-color="#fef06c"/><stop offset="1" stop-color="#feef5e"/></linearGradient><linearGradient id="鍊踑臇蜸馯鳺艜_173-2" x1="20" y1="21.67" x2="20" y2="5.75" xlink:href="#鍊踑臇蜸馯鳺艜_173"/><linearGradient id="鍊踑臇蜸馯鳺艜_9" x1="21" y1="30.35" x2="21" y2="26.88" gradientUnits="userSpaceOnUse"><stop offset="0" stop-color="#feef5e"/><stop offset="0.26" stop-color="#fee244"/><stop offset="0.56" stop-color="#fed62c"/><stop offset="0.75" stop-color="#fed223"/></linearGradient><linearGradient id="鍊踑臇蜸馯鳺艜_117" x1="21" y1="29.35" x2="21" y2="25.88" gradientUnits="userSpaceOnUse"><stop offset="0.25" stop-color="#85321b"/><stop offset="0.42" stop-color="#7c2f1a"/><stop offset="0.7" stop-color="#642516"/><stop offset="1" stop-color="#421811"/></linearGradient><linearGradient id="鍊踑臇蜸馯鳺艜_205-2" x1="13.33" y1="19.34" x2="13.33" y2="10.01" xlink:href="#鍊踑臇蜸馯鳺艜_205"/><radialGradient id="鍊踑臇蜸馯鳺艜_239" cx="13.33" cy="15.67" r="4.67" gradientUnits="userSpaceOnUse"><stop offset="0.7" stop-color="#fff"/><stop offset="0.81" stop-color="#fcfcfc"/><stop offset="0.9" stop-color="#f2f2f2"/><stop offset="0.98" stop-color="#e1e1e1"/><stop offset="1" stop-color="#dbdbdb"/></radialGradient><linearGradient id="鍊踑臇蜸馯鳺艜_205-3" x1="26.67" y1="19.34" x2="26.67" y2="10.01" xlink:href="#鍊踑臇蜸馯鳺艜_205"/><radialGradient id="鍊踑臇蜸馯鳺艜_239-2" cx="26.67" cy="15.67" r="4.67" xlink:href="#鍊踑臇蜸馯鳺艜_239"/></defs><title>資產 25</title><g id="圖層_2" data-name="圖層 2"><g id="Icons"><g id="Icon"><g id="Body"><path id="Body-2" data-name="Body" class="cls-1" d="M40,21c0,11.74-8.07,18.33-20,18.33S0,32.74,0,21C0,8.82,7.62,0,20,0S40,8.82,40,21Z"/><path class="cls-2" d="M20,34.33C3.59,33.89,1.61,27.14.23,17.46A27.22,27.22,0,0,0,0,21C0,32.74,8.07,39.33,20,39.33S40,32.74,40,21a27.22,27.22,0,0,0-.23-3.54C38.39,27.14,34.83,34.72,20,34.33Z"/><path class="cls-3" d="M24.83,3.35C24.71,4.05,23,4.76,20,4.76s-4.71-.71-4.83-1.41S17.43,1.93,20,1.93,24.94,2.65,24.83,3.35Z"/></g><path class="cls-4" d="M26.67,12.34A4.67,4.67,0,1,1,22,17,4.67,4.67,0,0,1,26.67,12.34Zm-13.34,0A4.67,4.67,0,1,0,18,17,4.67,4.67,0,0,0,13.33,12.34Zm1.05-5a.67.67,0,0,0,.51-.46A.68.68,0,0,0,14.46,6a6.09,6.09,0,0,0-4.52.57,8.25,8.25,0,0,0-3.35,3,.51.51,0,0,0,.74.67,14.74,14.74,0,0,1,3.4-1.91A29.06,29.06,0,0,1,14.38,7.31Zm19,2.24a8.25,8.25,0,0,0-3.35-3A6.09,6.09,0,0,0,25.54,6a.69.69,0,0,0-.44.87.7.7,0,0,0,.52.46,29.06,29.06,0,0,1,3.65,1,14.74,14.74,0,0,1,3.4,1.91.51.51,0,0,0,.74-.67Z"/><g id="Face"><path class="cls-5" d="M16.39,27.56c1.47-.06,2.93-.19,4.45-.37a33.42,33.42,0,0,1,4.76-.3,1.34,1.34,0,0,1,.14,2.66s-3.78.53-4.57.62a20.55,20.55,0,0,1-4.9,0,1.34,1.34,0,0,1,.12-2.66Z"/><g id="Pink_cheeks" data-name="Pink cheeks"><path class="cls-6" d="M9.7,18.43c-2.82,0-5.16,1.09-5.16,3.53s2.2,3.8,4.66,3.8,4.67-1.29,4.67-4.1C13.87,19.88,12,18.43,9.7,18.43Z"/><path class="cls-6" d="M30.3,18.43c2.82,0,5.16,1.09,5.16,3.53s-2.2,3.8-4.66,3.8-4.67-1.29-4.67-4.1C26.13,19.88,28,18.43,30.3,18.43Z"/></g><path class="cls-7" d="M16.39,26.56c1.47-.06,2.93-.19,4.45-.37a33.42,33.42,0,0,1,4.76-.3,1.34,1.34,0,0,1,.14,2.66s-3.78.53-4.57.62a20.55,20.55,0,0,1-4.9,0,1.34,1.34,0,0,1,.12-2.66Z"/><path class="cls-8" d="M14.38,6a29.06,29.06,0,0,0-3.65,1,14.74,14.74,0,0,0-3.4,1.91.51.51,0,0,1-.72-.11.5.5,0,0,1,0-.56,8.25,8.25,0,0,1,3.35-3,6.09,6.09,0,0,1,4.52-.57.68.68,0,0,1,.43.87A.69.69,0,0,1,14.38,6Z"/><path class="cls-8" d="M25.62,6a29.06,29.06,0,0,1,3.65,1,14.74,14.74,0,0,1,3.4,1.91.51.51,0,0,0,.72-.11.5.5,0,0,0,0-.56,8.25,8.25,0,0,0-3.35-3,6.09,6.09,0,0,0-4.52-.57.69.69,0,0,0-.44.87A.72.72,0,0,0,25.62,6Z"/><g id="_群組_" data-name="&lt;群組&gt;"><path class="cls-9" d="M18,14.67A4.67,4.67,0,1,1,13.33,10,4.67,4.67,0,0,1,18,14.67Z"/><path class="cls-10" d="M18,15.67A4.67,4.67,0,1,1,13.33,11,4.67,4.67,0,0,1,18,15.67Z"/><path class="cls-11" d="M16,14.51a1.67,1.67,0,1,1-1.67-1.67A1.66,1.66,0,0,1,16,14.51Z"/></g><path class="cls-12" d="M31.33,14.67A4.67,4.67,0,1,1,26.67,10,4.67,4.67,0,0,1,31.33,14.67Z"/><path class="cls-13" d="M31.33,15.67A4.67,4.67,0,1,1,26.67,11,4.67,4.67,0,0,1,31.33,15.67Z"/><path class="cls-11" d="M29.33,14.51a1.67,1.67,0,0,1-3.33,0,1.67,1.67,0,1,1,3.33,0Z"/></g></g></g></g></svg>