<svg xmlns="http://www.w3.org/2000/svg" xmlns:xlink="http://www.w3.org/1999/xlink" viewBox="0 0 40 39.33"><defs><style>.cls-1{fill:url(#鍊踑臇蜸馯鳺艜_205);}.cls-2{fill:url(#鍊踑臇蜸馯鳺艜_173);}.cls-3{fill:url(#鍊踑臇蜸馯鳺艜_223);}.cls-4{fill:url(#鍊踑臇蜸馯鳺艜_173-2);}.cls-5{fill:url(#鍊踑臇蜸馯鳺艜_117);}.cls-6{fill:url(#鍊踑臇蜸馯鳺艜_21);}.cls-7{fill:url(#鍊踑臇蜸馯鳺艜_165);}.cls-8{fill:url(#鍊踑臇蜸馯鳺艜_117-2);}.cls-9{fill:url(#鍊踑臇蜸馯鳺艜_117-3);}</style><linearGradient id="鍊踑臇蜸馯鳺艜_205" x1="20" y1="39.33" x2="20" gradientUnits="userSpaceOnUse"><stop offset="0.25" stop-color="#fed223"/><stop offset="0.44" stop-color="#fed62c"/><stop offset="0.74" stop-color="#fee244"/><stop offset="1" stop-color="#feef5e"/></linearGradient><linearGradient id="鍊踑臇蜸馯鳺艜_173" x1="20" y1="39.33" x2="20" y2="17.46" gradientUnits="userSpaceOnUse"><stop offset="0.25" stop-color="#feb123"/><stop offset="0.54" stop-color="#feba23"/><stop offset="1" stop-color="#fed223"/></linearGradient><linearGradient id="鍊踑臇蜸馯鳺艜_223" x1="20" y1="1.93" x2="20" y2="4.76" gradientUnits="userSpaceOnUse"><stop offset="0.25" stop-color="#fff8b5"/><stop offset="0.39" stop-color="#fff7ac"/><stop offset="0.62" stop-color="#fff594"/><stop offset="0.91" stop-color="#fef06c"/><stop offset="1" stop-color="#feef5e"/></linearGradient><linearGradient id="鍊踑臇蜸馯鳺艜_173-2" x1="19.96" y1="16.12" x2="19.96" y2="10.32" xlink:href="#鍊踑臇蜸馯鳺艜_173"/><linearGradient id="鍊踑臇蜸馯鳺艜_117" x1="20.01" y1="32.9" x2="20.01" y2="20" gradientUnits="userSpaceOnUse"><stop offset="0.25" stop-color="#85321b"/><stop offset="0.42" stop-color="#7c2f1a"/><stop offset="0.7" stop-color="#642516"/><stop offset="1" stop-color="#421811"/></linearGradient><linearGradient id="鍊踑臇蜸馯鳺艜_21" x1="9.76" y1="22.99" x2="30.15" y2="22.99" gradientUnits="userSpaceOnUse"><stop offset="0" stop-color="#9bafba"/><stop offset="0.03" stop-color="#abbcc5"/><stop offset="0.11" stop-color="#c9d4da"/><stop offset="0.2" stop-color="#e1e7ea"/><stop offset="0.28" stop-color="#f2f4f6"/><stop offset="0.38" stop-color="#fcfcfd"/><stop offset="0.5" stop-color="#fff"/><stop offset="0.62" stop-color="#fcfcfd"/><stop offset="0.72" stop-color="#f2f4f6"/><stop offset="0.8" stop-color="#e1e7ea"/><stop offset="0.89" stop-color="#c9d4da"/><stop offset="0.97" stop-color="#abbcc5"/><stop offset="1" stop-color="#9bafba"/></linearGradient><linearGradient id="鍊踑臇蜸馯鳺艜_165" x1="19.97" y1="28.56" x2="19.97" y2="31.57" gradientUnits="userSpaceOnUse"><stop offset="0.25" stop-color="#f55151"/><stop offset="0.56" stop-color="#ee4a48"/><stop offset="1" stop-color="#df3a33"/></linearGradient><linearGradient id="鍊踑臇蜸馯鳺艜_117-2" x1="12.32" y1="8.99" x2="12.32" y2="14.79" xlink:href="#鍊踑臇蜸馯鳺艜_117"/><linearGradient id="鍊踑臇蜸馯鳺艜_117-3" x1="27.59" y1="8.99" x2="27.59" y2="14.79" xlink:href="#鍊踑臇蜸馯鳺艜_117"/></defs><title>資產 3</title><g id="圖層_2" data-name="圖層 2"><g id="Icons"><g id="Icon"><g id="Body"><path id="Body-2" data-name="Body" class="cls-1" d="M40,21c0,11.74-8.07,18.33-20,18.33S0,32.74,0,21C0,8.82,7.62,0,20,0S40,8.82,40,21Z"/><path class="cls-2" d="M20,34.33C3.59,33.89,1.61,27.14.23,17.46A27.22,27.22,0,0,0,0,21C0,32.74,8.07,39.33,20,39.33S40,32.74,40,21a27.22,27.22,0,0,0-.23-3.54C38.39,27.14,34.83,34.72,20,34.33Z"/><path class="cls-3" d="M24.83,3.35C24.71,4.05,23,4.76,20,4.76s-4.71-.71-4.83-1.41S17.43,1.93,20,1.93,24.94,2.65,24.83,3.35Z"/></g><path class="cls-4" d="M22.8,15.14c.27-2.59,2.27-5,5-4.81a5.46,5.46,0,0,1,4.63,5.07.69.69,0,0,1-1.24.44c-.49-.67-1.86-2.76-3.65-2.87-1.41-.16-2.95,2.08-3.5,2.75A.69.69,0,0,1,22.8,15.14Zm-14,.7c.49-.67,1.87-2.76,3.65-2.87,1.41-.16,2.95,2.08,3.5,2.75a.69.69,0,0,0,1.2-.58c-.27-2.59-2.27-5-5-4.81A5.46,5.46,0,0,0,7.53,15.4.68.68,0,0,0,8.76,15.84Z"/><g id="Face"><path class="cls-5" d="M31.37,21.7A34.59,34.59,0,0,0,20,20,34.06,34.06,0,0,0,8.63,21.7c-1.46.54-.83,1.93-.6,2.6a12.71,12.71,0,0,0,12,8.6c5.22,0,10-3,12.23-9.35A1.45,1.45,0,0,0,31.37,21.7Z"/><path class="cls-6" d="M30.15,22.7A35.26,35.26,0,0,0,20,21.33a33.85,33.85,0,0,0-10.19,1.4c.16,1.12,1.43,1.93,10.19,1.93S30,23.84,30.15,22.7Z"/><path class="cls-7" d="M25.22,30.26c-.77-1.51-3.91-2.44-5.25-.94-1.34-1.5-4.48-.57-5.25.94A11.18,11.18,0,0,0,25.22,30.26Z"/><path class="cls-8" d="M15.91,14.38c-.55-.66-2.09-2.91-3.5-2.74-1.78.11-3.16,2.2-3.65,2.86a.68.68,0,0,1-1.23-.44A5.47,5.47,0,0,1,12.15,9c2.69-.17,4.69,2.22,5,4.81A.68.68,0,0,1,15.91,14.38Z"/><path class="cls-9" d="M24,14.38c.55-.66,2.09-2.91,3.5-2.74,1.79.11,3.16,2.2,3.65,2.86a.69.69,0,0,0,1.24-.44A5.47,5.47,0,0,0,27.76,9c-2.69-.17-4.69,2.22-5,4.81A.68.68,0,0,0,24,14.38Z"/></g></g></g></g></svg>