<svg xmlns="http://www.w3.org/2000/svg" xmlns:xlink="http://www.w3.org/1999/xlink" viewBox="0 0 40 39.33"><defs><style>.cls-1{fill:url(#鍊踑臇蜸馯鳺艜_205);}.cls-2{fill:url(#鍊踑臇蜸馯鳺艜_173);}.cls-3{fill:url(#鍊踑臇蜸馯鳺艜_223);}.cls-4{fill:url(#鍊踑臇蜸馯鳺艜_173-2);}.cls-5{fill:url(#鍊踑臇蜸馯鳺艜_117);}.cls-6{fill:url(#鍊踑臇蜸馯鳺艜_21);}.cls-7{fill:url(#鍊踑臇蜸馯鳺艜_21-2);}.cls-8{fill:url(#鍊踑臇蜸馯鳺艜_117-2);}.cls-9{fill:url(#鍊踑臇蜸馯鳺艜_117-3);}</style><linearGradient id="鍊踑臇蜸馯鳺艜_205" x1="20" y1="39.33" x2="20" gradientUnits="userSpaceOnUse"><stop offset="0.25" stop-color="#fed223"/><stop offset="0.44" stop-color="#fed62c"/><stop offset="0.74" stop-color="#fee244"/><stop offset="1" stop-color="#feef5e"/></linearGradient><linearGradient id="鍊踑臇蜸馯鳺艜_173" x1="20" y1="39.33" x2="20" y2="17.46" gradientUnits="userSpaceOnUse"><stop offset="0.25" stop-color="#feb123"/><stop offset="0.54" stop-color="#feba23"/><stop offset="1" stop-color="#fed223"/></linearGradient><linearGradient id="鍊踑臇蜸馯鳺艜_223" x1="20" y1="1.93" x2="20" y2="4.76" gradientUnits="userSpaceOnUse"><stop offset="0.25" stop-color="#fff8b5"/><stop offset="0.39" stop-color="#fff7ac"/><stop offset="0.62" stop-color="#fff594"/><stop offset="0.91" stop-color="#fef06c"/><stop offset="1" stop-color="#feef5e"/></linearGradient><linearGradient id="鍊踑臇蜸馯鳺艜_173-2" x1="20" y1="16.36" x2="20" y2="12.11" xlink:href="#鍊踑臇蜸馯鳺艜_173"/><linearGradient id="鍊踑臇蜸馯鳺艜_117" x1="20.01" y1="33.19" x2="20.01" y2="19.85" gradientUnits="userSpaceOnUse"><stop offset="0.25" stop-color="#85321b"/><stop offset="0.42" stop-color="#7c2f1a"/><stop offset="0.7" stop-color="#642516"/><stop offset="1" stop-color="#421811"/></linearGradient><linearGradient id="鍊踑臇蜸馯鳺艜_21" x1="9.65" y1="29.11" x2="30.35" y2="29.11" gradientUnits="userSpaceOnUse"><stop offset="0" stop-color="#9bafba"/><stop offset="0.03" stop-color="#abbcc5"/><stop offset="0.11" stop-color="#c9d4da"/><stop offset="0.2" stop-color="#e1e7ea"/><stop offset="0.28" stop-color="#f2f4f6"/><stop offset="0.38" stop-color="#fcfcfd"/><stop offset="0.5" stop-color="#fff"/><stop offset="0.62" stop-color="#fcfcfd"/><stop offset="0.72" stop-color="#f2f4f6"/><stop offset="0.8" stop-color="#e1e7ea"/><stop offset="0.89" stop-color="#c9d4da"/><stop offset="0.97" stop-color="#abbcc5"/><stop offset="1" stop-color="#9bafba"/></linearGradient><linearGradient id="鍊踑臇蜸馯鳺艜_21-2" x1="8.03" y1="23.75" x2="31.97" y2="23.75" xlink:href="#鍊踑臇蜸馯鳺艜_21"/><linearGradient id="鍊踑臇蜸馯鳺艜_117-2" x1="10.96" y1="10.78" x2="10.96" y2="15.03" xlink:href="#鍊踑臇蜸馯鳺艜_117"/><linearGradient id="鍊踑臇蜸馯鳺艜_117-3" x1="29.04" y1="10.78" x2="29.04" y2="15.03" xlink:href="#鍊踑臇蜸馯鳺艜_117"/></defs><title>資產 4</title><g id="圖層_2" data-name="圖層 2"><g id="Icons"><g id="Icon"><g id="Body"><path id="Body-2" data-name="Body" class="cls-1" d="M40,21c0,11.74-8.07,18.33-20,18.33S0,32.74,0,21C0,8.82,7.62,0,20,0S40,8.82,40,21Z"/><path class="cls-2" d="M20,34.33C3.59,33.89,1.61,27.14.23,17.46A27.22,27.22,0,0,0,0,21C0,32.74,8.07,39.33,20,39.33S40,32.74,40,21a27.22,27.22,0,0,0-.23-3.54C38.39,27.14,34.83,34.72,20,34.33Z"/><path class="cls-3" d="M24.83,3.35C24.71,4.05,23,4.76,20,4.76s-4.71-.71-4.83-1.41S17.43,1.93,20,1.93,24.94,2.65,24.83,3.35Z"/></g><path class="cls-4" d="M24.17,15.48a5.25,5.25,0,0,1,4.57-3.36,6.46,6.46,0,0,1,5.06,2.33.63.63,0,0,1,.13.55.65.65,0,0,1-.77.5l-.25-.06a14.86,14.86,0,0,0-4.06-.66c-1.45.1-2.15.63-3.78,1.51a.66.66,0,0,1-.55,0A.65.65,0,0,1,24.17,15.48Zm-17.34,0,.26-.06a14.86,14.86,0,0,1,4.06-.66c1.45.1,2.15.63,3.78,1.51a.66.66,0,0,0,.55,0,.65.65,0,0,0,.35-.84,5.25,5.25,0,0,0-4.57-3.36A6.46,6.46,0,0,0,6.2,14.45a.67.67,0,0,0-.14.55A.66.66,0,0,0,6.83,15.5Z"/><g id="Face"><path class="cls-5" d="M20,19.85A59.5,59.5,0,0,1,32.94,21a2,2,0,0,1,1.47,2.45c-.83,3.3-6,9.65-14.41,9.7A15.21,15.21,0,0,1,6.27,25c-.33-.66-1.66-2.76.39-3.77C7.82,20.61,13.41,19.84,20,19.85Z"/><path class="cls-6" d="M28.4,26.77A26.32,26.32,0,0,1,20,28.06a26.43,26.43,0,0,1-8.41-1.29c-1.69-.59-1.94.3-1.94.3.63,1.39,5.25,4.58,10.35,4.58s9.72-3.19,10.35-4.58C30.35,27.07,30.1,26.18,28.4,26.77Z"/><path class="cls-7" d="M32,22.18c-.46,4-8.61,4.13-12,4.13-4.35,0-11.53-.38-12-4.12a59.84,59.84,0,0,1,11.94-1A61.52,61.52,0,0,1,32,22.18Z"/><path class="cls-8" d="M6.2,13.12a6.44,6.44,0,0,1,5.06-2.34,5.24,5.24,0,0,1,4.57,3.37.64.64,0,0,1-.35.83.62.62,0,0,1-.55,0c-1.63-.87-2.33-1.4-3.78-1.5a14.86,14.86,0,0,0-4.06.66l-.26.05a.65.65,0,0,1-.77-.49A.66.66,0,0,1,6.2,13.12Z"/><path class="cls-9" d="M33.8,13.12a6.44,6.44,0,0,0-5.06-2.34,5.24,5.24,0,0,0-4.57,3.37.64.64,0,0,0,.35.83.62.62,0,0,0,.55,0c1.63-.87,2.33-1.4,3.78-1.5a14.86,14.86,0,0,1,4.06.66l.25.05a.64.64,0,0,0,.77-.49A.63.63,0,0,0,33.8,13.12Z"/></g></g></g></g></svg>