<svg xmlns="http://www.w3.org/2000/svg" xmlns:xlink="http://www.w3.org/1999/xlink" viewBox="0 0 42.72 39.33"><defs><style>.cls-1{fill:url(#鍊踑臇蜸馯鳺艜_205);}.cls-2{fill:url(#鍊踑臇蜸馯鳺艜_173);}.cls-3{fill:url(#鍊踑臇蜸馯鳺艜_223);}.cls-4{fill:url(#鍊踑臇蜸馯鳺艜_173-2);}.cls-5{fill:url(#鍊踑臇蜸馯鳺艜_117);}.cls-6{fill:url(#鍊踑臇蜸馯鳺艜_21);}.cls-7{fill:url(#鍊踑臇蜸馯鳺艜_165);}.cls-8{fill:url(#鍊踑臇蜸馯鳺艜_117-2);}.cls-9{fill:url(#鍊踑臇蜸馯鳺艜_117-3);}.cls-10{fill:url(#鍊踑臇蜸馯鳺艜_60);}.cls-11{fill:url(#鍊踑臇蜸馯鳺艜_319);}</style><linearGradient id="鍊踑臇蜸馯鳺艜_205" x1="22.72" y1="39.33" x2="22.72" gradientUnits="userSpaceOnUse"><stop offset="0.25" stop-color="#fed223"/><stop offset="0.44" stop-color="#fed62c"/><stop offset="0.74" stop-color="#fee244"/><stop offset="1" stop-color="#feef5e"/></linearGradient><linearGradient id="鍊踑臇蜸馯鳺艜_173" x1="22.72" y1="39.33" x2="22.72" y2="17.46" gradientUnits="userSpaceOnUse"><stop offset="0.25" stop-color="#feb123"/><stop offset="0.54" stop-color="#feba23"/><stop offset="1" stop-color="#fed223"/></linearGradient><linearGradient id="鍊踑臇蜸馯鳺艜_223" x1="22.72" y1="1.93" x2="22.72" y2="4.76" gradientUnits="userSpaceOnUse"><stop offset="0.25" stop-color="#fff8b5"/><stop offset="0.39" stop-color="#fff7ac"/><stop offset="0.62" stop-color="#fff594"/><stop offset="0.91" stop-color="#fef06c"/><stop offset="1" stop-color="#feef5e"/></linearGradient><linearGradient id="鍊踑臇蜸馯鳺艜_173-2" x1="18.98" y1="18.61" x2="18.98" y2="5.02" xlink:href="#鍊踑臇蜸馯鳺艜_173"/><linearGradient id="鍊踑臇蜸馯鳺艜_117" x1="22.73" y1="32.9" x2="22.73" y2="20" gradientUnits="userSpaceOnUse"><stop offset="0.25" stop-color="#85321b"/><stop offset="0.42" stop-color="#7c2f1a"/><stop offset="0.7" stop-color="#642516"/><stop offset="1" stop-color="#421811"/></linearGradient><linearGradient id="鍊踑臇蜸馯鳺艜_21" x1="12.48" y1="22.99" x2="32.87" y2="22.99" gradientUnits="userSpaceOnUse"><stop offset="0" stop-color="#9bafba"/><stop offset="0.03" stop-color="#abbcc5"/><stop offset="0.11" stop-color="#c9d4da"/><stop offset="0.2" stop-color="#e1e7ea"/><stop offset="0.28" stop-color="#f2f4f6"/><stop offset="0.38" stop-color="#fcfcfd"/><stop offset="0.5" stop-color="#fff"/><stop offset="0.62" stop-color="#fcfcfd"/><stop offset="0.72" stop-color="#f2f4f6"/><stop offset="0.8" stop-color="#e1e7ea"/><stop offset="0.89" stop-color="#c9d4da"/><stop offset="0.97" stop-color="#abbcc5"/><stop offset="1" stop-color="#9bafba"/></linearGradient><linearGradient id="鍊踑臇蜸馯鳺艜_165" x1="22.69" y1="28.56" x2="22.69" y2="31.57" gradientUnits="userSpaceOnUse"><stop offset="0.25" stop-color="#f55151"/><stop offset="0.56" stop-color="#ee4a48"/><stop offset="1" stop-color="#df3a33"/></linearGradient><linearGradient id="鍊踑臇蜸馯鳺艜_117-2" x1="15.04" y1="9.52" x2="15.04" y2="15.32" xlink:href="#鍊踑臇蜸馯鳺艜_117"/><linearGradient id="鍊踑臇蜸馯鳺艜_117-3" x1="30.31" y1="9.52" x2="30.31" y2="15.32" xlink:href="#鍊踑臇蜸馯鳺艜_117"/><linearGradient id="鍊踑臇蜸馯鳺艜_60" x1="5.25" y1="17.28" x2="5.25" y2="3.68" gradientUnits="userSpaceOnUse"><stop offset="0" stop-color="#1e72d8"/><stop offset="0.02" stop-color="#1e75d9"/><stop offset="0.34" stop-color="#249de5"/><stop offset="0.59" stop-color="#27b5ec"/><stop offset="0.75" stop-color="#28beef"/></linearGradient><linearGradient id="鍊踑臇蜸馯鳺艜_319" x1="5.86" y1="4.8" x2="5.86" y2="12.53" gradientUnits="userSpaceOnUse"><stop offset="0.25" stop-color="#78faff"/><stop offset="0.4" stop-color="#6ff3fd"/><stop offset="0.64" stop-color="#57e1f8"/><stop offset="0.95" stop-color="#2fc4f0"/><stop offset="1" stop-color="#28beef"/></linearGradient></defs><title>資產 5</title><g id="圖層_2" data-name="圖層 2"><g id="Icons"><g id="Icon"><g id="Body"><path id="Body-2" data-name="Body" class="cls-1" d="M42.72,21c0,11.74-8.07,18.33-20,18.33s-20-6.59-20-18.33c0-12.18,7.62-21,20-21S42.72,8.82,42.72,21Z"/><path class="cls-2" d="M22.72,34.33C6.31,33.89,4.33,27.14,3,17.46A27.22,27.22,0,0,0,2.72,21c0,11.74,8.06,18.33,20,18.33s20-6.59,20-18.33a27.22,27.22,0,0,0-.23-3.54C41.11,27.14,37.55,34.72,22.72,34.33Z"/><path class="cls-3" d="M27.54,3.35c-.11.7-1.84,1.41-4.82,1.41S18,4.05,17.89,3.35s2.25-1.42,4.83-1.42S27.66,2.65,27.54,3.35Z"/></g><path class="cls-4" d="M10.24,15.93a5.47,5.47,0,0,1,4.63-5.07c2.69-.17,4.69,2.22,5,4.81a.69.69,0,0,1-1.2.58c-.55-.67-2.09-2.91-3.5-2.74-1.79.1-3.16,2.19-3.65,2.86A.69.69,0,0,1,10.24,15.93ZM9.13,14.18a24,24,0,0,1,1.3-7.91A.9.9,0,0,0,9.25,5.09l-.68.34A20.68,20.68,0,0,0,2.86,18.28a4.62,4.62,0,0,0,1.57.33A4.57,4.57,0,0,0,9.13,14.18Zm17.59,2.07c.55-.67,2.09-2.91,3.5-2.74,1.78.1,3.16,2.19,3.65,2.86a.68.68,0,0,0,1.23-.44,5.47,5.47,0,0,0-4.62-5.07c-2.69-.17-4.69,2.22-5,4.81A.68.68,0,0,0,26.72,16.25Z"/><g id="Face"><path class="cls-5" d="M34.09,21.7A34.63,34.63,0,0,0,22.72,20a34.06,34.06,0,0,0-11.37,1.7c-1.46.54-.84,1.93-.6,2.6a12.7,12.7,0,0,0,12,8.6c5.22,0,10-3,12.23-9.35A1.45,1.45,0,0,0,34.09,21.7Z"/><path class="cls-6" d="M32.87,22.7a35.26,35.26,0,0,0-10.2-1.37,33.85,33.85,0,0,0-10.19,1.4c.16,1.12,1.43,1.93,10.19,1.93S32.73,23.84,32.87,22.7Z"/><path class="cls-7" d="M27.94,30.26c-.77-1.51-3.91-2.44-5.25-.94-1.34-1.5-4.48-.57-5.25.94A11.18,11.18,0,0,0,27.94,30.26Z"/><path class="cls-8" d="M18.63,14.92c-.55-.67-2.09-2.91-3.5-2.75-1.79.11-3.16,2.2-3.65,2.87a.69.69,0,0,1-1.24-.44,5.46,5.46,0,0,1,4.63-5.07c2.69-.17,4.69,2.22,5,4.81A.69.69,0,0,1,18.63,14.92Z"/><path class="cls-9" d="M26.72,14.92c.55-.67,2.09-2.91,3.5-2.75,1.78.11,3.16,2.2,3.65,2.87a.68.68,0,0,0,1.23-.44,5.46,5.46,0,0,0-4.62-5.07c-2.69-.17-4.69,2.22-5,4.81A.69.69,0,0,0,26.72,14.92Z"/><path class="cls-8" d="M18.63,14.92c-.55-.67-2.09-2.91-3.5-2.75-1.79.11-3.16,2.2-3.65,2.87a.69.69,0,0,1-1.24-.44,5.46,5.46,0,0,1,4.63-5.07c2.69-.17,4.69,2.22,5,4.81A.69.69,0,0,1,18.63,14.92Z"/><path class="cls-9" d="M26.72,14.92c.55-.67,2.09-2.91,3.5-2.75,1.78.11,3.16,2.2,3.65,2.87a.68.68,0,0,0,1.23-.44,5.46,5.46,0,0,0-4.62-5.07c-2.69-.17-4.69,2.22-5,4.81A.69.69,0,0,0,26.72,14.92Z"/><g id="_群組_" data-name="&lt;群組&gt;"><path class="cls-10" d="M10.43,4.94a23.94,23.94,0,0,0-1.3,7.91A4.57,4.57,0,1,1,1.43,9.4,28.93,28.93,0,0,1,9.25,3.76.89.89,0,0,1,10.43,4.94Z"/><path class="cls-11" d="M9.14,5.52A13.91,13.91,0,0,0,5.8,11.29a1.7,1.7,0,1,1-3-1.45,16.09,16.09,0,0,1,5.86-5A.43.43,0,0,1,9.14,5.52Z"/></g></g></g></g></g></svg>