<svg xmlns="http://www.w3.org/2000/svg" xmlns:xlink="http://www.w3.org/1999/xlink" viewBox="0 0 41.81 39.33"><defs><style>.cls-1{fill:url(#鍊踑臇蜸馯鳺艜_205);}.cls-2{fill:url(#鍊踑臇蜸馯鳺艜_173);}.cls-3{fill:url(#鍊踑臇蜸馯鳺艜_223);}.cls-4{fill:url(#鍊踑臇蜸馯鳺艜_173-2);}.cls-5{fill:url(#鍊踑臇蜸馯鳺艜_117);}.cls-6{fill:url(#鍊踑臇蜸馯鳺艜_21);}.cls-7{fill:url(#鍊踑臇蜸馯鳺艜_165);}.cls-8{fill:url(#鍊踑臇蜸馯鳺艜_60);}.cls-9{fill:url(#鍊踑臇蜸馯鳺艜_319);}.cls-10{fill:url(#鍊踑臇蜸馯鳺艜_60-2);}.cls-11{fill:url(#鍊踑臇蜸馯鳺艜_319-2);}.cls-12{fill:url(#鍊踑臇蜸馯鳺艜_117-2);}.cls-13{fill:url(#鍊踑臇蜸馯鳺艜_117-3);}</style><linearGradient id="鍊踑臇蜸馯鳺艜_205" x1="20.95" y1="39.33" x2="20.95" gradientUnits="userSpaceOnUse"><stop offset="0.25" stop-color="#fed223"/><stop offset="0.44" stop-color="#fed62c"/><stop offset="0.74" stop-color="#fee244"/><stop offset="1" stop-color="#feef5e"/></linearGradient><linearGradient id="鍊踑臇蜸馯鳺艜_173" x1="20.95" y1="39.33" x2="20.95" y2="17.46" gradientUnits="userSpaceOnUse"><stop offset="0.25" stop-color="#feb123"/><stop offset="0.54" stop-color="#feba23"/><stop offset="1" stop-color="#fed223"/></linearGradient><linearGradient id="鍊踑臇蜸馯鳺艜_223" x1="20.95" y1="1.93" x2="20.95" y2="4.76" gradientUnits="userSpaceOnUse"><stop offset="0.25" stop-color="#fff8b5"/><stop offset="0.39" stop-color="#fff7ac"/><stop offset="0.62" stop-color="#fff594"/><stop offset="0.91" stop-color="#fef06c"/><stop offset="1" stop-color="#feef5e"/></linearGradient><linearGradient id="鍊踑臇蜸馯鳺艜_173-2" x1="20.95" y1="26.95" x2="20.95" y2="12.11" xlink:href="#鍊踑臇蜸馯鳺艜_173"/><linearGradient id="鍊踑臇蜸馯鳺艜_117" x1="20.95" y1="32.9" x2="20.95" y2="20" gradientUnits="userSpaceOnUse"><stop offset="0.25" stop-color="#85321b"/><stop offset="0.42" stop-color="#7c2f1a"/><stop offset="0.7" stop-color="#642516"/><stop offset="1" stop-color="#421811"/></linearGradient><linearGradient id="鍊踑臇蜸馯鳺艜_21" x1="10.71" y1="22.99" x2="31.1" y2="22.99" gradientUnits="userSpaceOnUse"><stop offset="0" stop-color="#9bafba"/><stop offset="0.03" stop-color="#abbcc5"/><stop offset="0.11" stop-color="#c9d4da"/><stop offset="0.2" stop-color="#e1e7ea"/><stop offset="0.28" stop-color="#f2f4f6"/><stop offset="0.38" stop-color="#fcfcfd"/><stop offset="0.5" stop-color="#fff"/><stop offset="0.62" stop-color="#fcfcfd"/><stop offset="0.72" stop-color="#f2f4f6"/><stop offset="0.8" stop-color="#e1e7ea"/><stop offset="0.89" stop-color="#c9d4da"/><stop offset="0.97" stop-color="#abbcc5"/><stop offset="1" stop-color="#9bafba"/></linearGradient><linearGradient id="鍊踑臇蜸馯鳺艜_165" x1="20.92" y1="28.56" x2="20.92" y2="31.57" gradientUnits="userSpaceOnUse"><stop offset="0.25" stop-color="#f55151"/><stop offset="0.56" stop-color="#ee4a48"/><stop offset="1" stop-color="#df3a33"/></linearGradient><linearGradient id="鍊踑臇蜸馯鳺艜_60" x1="4.81" y1="25.62" x2="4.81" y2="15.53" gradientUnits="userSpaceOnUse"><stop offset="0" stop-color="#1e72d8"/><stop offset="0.02" stop-color="#1e75d9"/><stop offset="0.34" stop-color="#249de5"/><stop offset="0.59" stop-color="#27b5ec"/><stop offset="0.75" stop-color="#28beef"/></linearGradient><linearGradient id="鍊踑臇蜸馯鳺艜_319" x1="4.55" y1="16.55" x2="4.55" y2="21.47" gradientUnits="userSpaceOnUse"><stop offset="0.25" stop-color="#78faff"/><stop offset="0.4" stop-color="#6ff3fd"/><stop offset="0.64" stop-color="#57e1f8"/><stop offset="0.95" stop-color="#2fc4f0"/><stop offset="1" stop-color="#28beef"/></linearGradient><linearGradient id="鍊踑臇蜸馯鳺艜_60-2" x1="36.99" y1="25.62" x2="36.99" y2="15.53" xlink:href="#鍊踑臇蜸馯鳺艜_60"/><linearGradient id="鍊踑臇蜸馯鳺艜_319-2" x1="37.25" y1="16.55" x2="37.25" y2="21.47" xlink:href="#鍊踑臇蜸馯鳺艜_319"/><linearGradient id="鍊踑臇蜸馯鳺艜_117-2" x1="11.91" y1="10.78" x2="11.91" y2="15.03" xlink:href="#鍊踑臇蜸馯鳺艜_117"/><linearGradient id="鍊踑臇蜸馯鳺艜_117-3" x1="29.98" y1="10.78" x2="29.98" y2="15.03" xlink:href="#鍊踑臇蜸馯鳺艜_117"/></defs><title>資產 6</title><g id="圖層_2" data-name="圖層 2"><g id="Icons"><g id="Icon"><g id="Body"><path id="Body-2" data-name="Body" class="cls-1" d="M41,21c0,11.74-8.07,18.33-20,18.33S1,32.74,1,21C1,8.82,8.57,0,21,0S41,8.82,41,21Z"/><path class="cls-2" d="M21,34.33C4.54,33.89,2.56,27.14,1.17,17.46A29.13,29.13,0,0,0,1,21C1,32.74,9,39.33,21,39.33S41,32.74,41,21a27.22,27.22,0,0,0-.23-3.54C39.34,27.14,35.77,34.72,21,34.33Z"/><path class="cls-3" d="M25.77,3.35c-.11.7-1.84,1.41-4.82,1.41s-4.72-.71-4.83-1.41S18.37,1.93,21,1.93,25.89,2.65,25.77,3.35Z"/></g><path class="cls-4" d="M40.94,20.66c0,.11,0,.22,0,.34a21.69,21.69,0,0,1-.59,5.1A3.86,3.86,0,0,1,34.09,23a8.35,8.35,0,0,0-.27-2.49,5.11,5.11,0,0,0-1.42-2.35.72.72,0,0,1,.43-1.24c3-.28,5.46,1.39,7.64,3.28A4.37,4.37,0,0,1,40.94,20.66ZM7.72,23A7.75,7.75,0,0,1,8,20.48,5.09,5.09,0,0,1,9.4,18.13.72.72,0,0,0,9,16.89c-3-.28-5.45,1.39-7.63,3.28a2.73,2.73,0,0,0-.38.38c0,.15,0,.3,0,.45a21.7,21.7,0,0,0,.59,5.17A3.81,3.81,0,0,0,4,27,3.86,3.86,0,0,0,7.72,23Zm17.75-6.65a.66.66,0,0,0,.55,0c1.63-.88,2.32-1.41,3.77-1.51a14.74,14.74,0,0,1,4.06.66l.26.06a.65.65,0,0,0,.77-.5.61.61,0,0,0-.14-.55,6.44,6.44,0,0,0-5.05-2.33,5.24,5.24,0,0,0-4.57,3.36A.65.65,0,0,0,25.47,16.32ZM7.78,15.5,8,15.44a14.86,14.86,0,0,1,4.06-.66c1.45.1,2.15.63,3.78,1.51a.66.66,0,0,0,.55,0,.64.64,0,0,0,.34-.84,5.23,5.23,0,0,0-4.57-3.36,6.46,6.46,0,0,0-5,2.33A.67.67,0,0,0,7,15,.66.66,0,0,0,7.78,15.5Z"/><g id="Face"><path class="cls-5" d="M32.31,21.7A34.53,34.53,0,0,0,21,20,34,34,0,0,0,9.58,21.7c-1.46.54-.84,1.93-.6,2.6a12.7,12.7,0,0,0,12,8.6c5.22,0,10-3,12.23-9.35A1.45,1.45,0,0,0,32.31,21.7Z"/><path class="cls-6" d="M31.1,22.7a35.26,35.26,0,0,0-10.2-1.37,33.85,33.85,0,0,0-10.19,1.4c.15,1.12,1.42,1.93,10.19,1.93S31,23.84,31.1,22.7Z"/><path class="cls-7" d="M26.17,30.26c-.77-1.51-3.91-2.44-5.25-.94-1.34-1.5-4.48-.57-5.25.94A11.18,11.18,0,0,0,26.17,30.26Z"/><path class="cls-8" d="M8,19.14a7.84,7.84,0,0,0-.27,2.5,3.86,3.86,0,1,1-6.38-2.81C3.52,17,6,15.28,9,15.56a.72.72,0,0,1,.43,1.23A5.14,5.14,0,0,0,8,19.14Z"/><path class="cls-9" d="M4.71,20.57a1.38,1.38,0,1,1-2.27-1.44,9.48,9.48,0,0,1,4.2-2.57.34.34,0,0,1,.3.59A7.7,7.7,0,0,0,4.71,20.57Z"/><path class="cls-10" d="M33.82,19.14a8.45,8.45,0,0,1,.27,2.5,3.86,3.86,0,1,0,6.38-2.81c-2.18-1.88-4.69-3.55-7.64-3.27a.72.72,0,0,0-.43,1.23A5.16,5.16,0,0,1,33.82,19.14Z"/><path class="cls-11" d="M37.1,20.57a1.37,1.37,0,1,0,2.26-1.44,9.45,9.45,0,0,0-4.19-2.57.34.34,0,0,0-.31.59A7.8,7.8,0,0,1,37.1,20.57Z"/><path class="cls-12" d="M7.15,13.12a6.44,6.44,0,0,1,5-2.34,5.22,5.22,0,0,1,4.57,3.37.63.63,0,0,1-.34.83.62.62,0,0,1-.55,0c-1.63-.87-2.33-1.4-3.78-1.5A14.86,14.86,0,0,0,8,14.11l-.26.05A.64.64,0,0,1,7,13.67.66.66,0,0,1,7.15,13.12Z"/><path class="cls-13" d="M34.74,13.12a6.42,6.42,0,0,0-5.05-2.34,5.23,5.23,0,0,0-4.57,3.37.64.64,0,0,0,.35.83A.63.63,0,0,0,26,15c1.63-.87,2.32-1.4,3.77-1.5a14.74,14.74,0,0,1,4.06.66l.26.05a.64.64,0,0,0,.77-.49A.6.6,0,0,0,34.74,13.12Z"/><path class="cls-12" d="M7.15,13.12a6.44,6.44,0,0,1,5-2.34,5.22,5.22,0,0,1,4.57,3.37.63.63,0,0,1-.34.83.62.62,0,0,1-.55,0c-1.63-.87-2.33-1.4-3.78-1.5A14.86,14.86,0,0,0,8,14.11l-.26.05A.64.64,0,0,1,7,13.67.66.66,0,0,1,7.15,13.12Z"/><path class="cls-13" d="M34.74,13.12a6.42,6.42,0,0,0-5.05-2.34,5.23,5.23,0,0,0-4.57,3.37.64.64,0,0,0,.35.83A.63.63,0,0,0,26,15c1.63-.87,2.32-1.4,3.77-1.5a14.74,14.74,0,0,1,4.06.66l.26.05a.64.64,0,0,0,.77-.49A.6.6,0,0,0,34.74,13.12Z"/></g></g></g></g></svg>