<svg xmlns="http://www.w3.org/2000/svg" xmlns:xlink="http://www.w3.org/1999/xlink" viewBox="0 0 40 39.33"><defs><style>.cls-1{fill:url(#鍊踑臇蜸馯鳺艜_205);}.cls-2{fill:url(#鍊踑臇蜸馯鳺艜_173);}.cls-3{fill:url(#鍊踑臇蜸馯鳺艜_223);}.cls-4{fill:url(#鍊踑臇蜸馯鳺艜_173-2);}.cls-5{fill:url(#鍊踑臇蜸馯鳺艜_94);}.cls-6{fill:#fd9e21;}.cls-7{fill:url(#鍊踑臇蜸馯鳺艜_117);}.cls-8{fill:url(#鍊踑臇蜸馯鳺艜_117-2);}.cls-9{fill:url(#鍊踑臇蜸馯鳺艜_117-3);}</style><linearGradient id="鍊踑臇蜸馯鳺艜_205" x1="20" y1="39.33" x2="20" gradientUnits="userSpaceOnUse"><stop offset="0.25" stop-color="#fed223"/><stop offset="0.44" stop-color="#fed62c"/><stop offset="0.74" stop-color="#fee244"/><stop offset="1" stop-color="#feef5e"/></linearGradient><linearGradient id="鍊踑臇蜸馯鳺艜_173" x1="20" y1="39.33" x2="20" y2="17.46" gradientUnits="userSpaceOnUse"><stop offset="0.25" stop-color="#feb123"/><stop offset="0.54" stop-color="#feba23"/><stop offset="1" stop-color="#fed223"/></linearGradient><linearGradient id="鍊踑臇蜸馯鳺艜_223" x1="20" y1="1.93" x2="20" y2="4.76" gradientUnits="userSpaceOnUse"><stop offset="0.25" stop-color="#fff8b5"/><stop offset="0.39" stop-color="#fff7ac"/><stop offset="0.62" stop-color="#fff594"/><stop offset="0.91" stop-color="#fef06c"/><stop offset="1" stop-color="#feef5e"/></linearGradient><linearGradient id="鍊踑臇蜸馯鳺艜_173-2" x1="20" y1="16.62" x2="20" y2="10.82" xlink:href="#鍊踑臇蜸馯鳺艜_173"/><linearGradient id="鍊踑臇蜸馯鳺艜_94" x1="20" y1="30.24" x2="20" y2="25.37" gradientUnits="userSpaceOnUse"><stop offset="0" stop-color="#feef5e"/><stop offset="0.26" stop-color="#fee244"/><stop offset="0.56" stop-color="#fed62c"/><stop offset="0.75" stop-color="#fed223"/></linearGradient><linearGradient id="鍊踑臇蜸馯鳺艜_117" x1="12.36" y1="9.49" x2="12.36" y2="15.29" gradientUnits="userSpaceOnUse"><stop offset="0.25" stop-color="#85321b"/><stop offset="0.42" stop-color="#7c2f1a"/><stop offset="0.7" stop-color="#642516"/><stop offset="1" stop-color="#421811"/></linearGradient><linearGradient id="鍊踑臇蜸馯鳺艜_117-2" x1="27.64" y1="9.49" x2="27.64" y2="15.29" xlink:href="#鍊踑臇蜸馯鳺艜_117"/><linearGradient id="鍊踑臇蜸馯鳺艜_117-3" x1="20" y1="29.24" x2="20" y2="24.37" xlink:href="#鍊踑臇蜸馯鳺艜_117"/></defs><title>資產 7</title><g id="圖層_2" data-name="圖層 2"><g id="Icons"><g id="Icon"><g id="Body"><path id="Body-2" data-name="Body" class="cls-1" d="M40,21c0,11.74-8.07,18.33-20,18.33S0,32.74,0,21C0,8.82,7.62,0,20,0S40,8.82,40,21Z"/><path class="cls-2" d="M20,34.33C3.59,33.89,1.61,27.14.23,17.46A27.22,27.22,0,0,0,0,21C0,32.74,8.07,39.33,20,39.33S40,32.74,40,21a27.22,27.22,0,0,0-.23-3.54C38.39,27.14,34.83,34.72,20,34.33Z"/><path class="cls-3" d="M24.83,3.35C24.71,4.05,23,4.76,20,4.76s-4.71-.71-4.83-1.41S17.43,1.93,20,1.93,24.94,2.65,24.83,3.35Z"/></g><path class="cls-4" d="M32.43,15.9a.69.69,0,0,1-1.24.44c-.48-.66-1.86-2.76-3.64-2.86-1.41-.17-3,2.07-3.5,2.74a.68.68,0,0,1-1.2-.58c.27-2.59,2.26-5,5-4.81A5.47,5.47,0,0,1,32.43,15.9ZM12.19,10.83A5.47,5.47,0,0,0,7.57,15.9a.69.69,0,0,0,1.24.44c.48-.66,1.86-2.76,3.64-2.86,1.41-.17,3,2.07,3.5,2.74a.68.68,0,0,0,1.2-.58C16.88,13.05,14.89,10.66,12.19,10.83Z"/><g id="Face"><path class="cls-5" d="M12.82,26.33c1,2.34,3.92,3.88,7.19,3.91,2.85,0,6.19-1.26,7.17-3.91a.7.7,0,0,0-1-.86A13.6,13.6,0,0,1,20,26.91a11.43,11.43,0,0,1-6.14-1.42A.69.69,0,0,0,12.82,26.33Z"/><g id="Pink_cheeks" data-name="Pink cheeks"><path class="cls-6" d="M10,16.5c-2.82,0-5.16,1.08-5.16,3.53s2.2,3.8,4.66,3.8,4.67-1.29,4.67-4.1C14.2,17.94,12.37,16.5,10,16.5Z"/><path class="cls-6" d="M30,16.5c2.82,0,5.16,1.08,5.16,3.53s-2.2,3.8-4.66,3.8-4.67-1.29-4.67-4.1C25.8,17.94,27.63,16.5,30,16.5Z"/></g><path class="cls-7" d="M16,14.89c-.54-.67-2.09-2.91-3.5-2.75-1.78.11-3.16,2.2-3.64,2.87a.69.69,0,0,1-1.24-.44A5.46,5.46,0,0,1,12.19,9.5c2.7-.17,4.69,2.22,5,4.81A.69.69,0,0,1,16,14.89Z"/><path class="cls-8" d="M24.05,14.89c.54-.67,2.09-2.91,3.5-2.75,1.78.11,3.16,2.2,3.64,2.87a.69.69,0,0,0,1.24-.44A5.46,5.46,0,0,0,27.81,9.5c-2.7-.17-4.69,2.22-5,4.81A.69.69,0,0,0,24.05,14.89Z"/><path class="cls-9" d="M12.82,25.33c1,2.34,3.92,3.88,7.19,3.91,2.85,0,6.19-1.26,7.17-3.91a.7.7,0,0,0-1-.86A13.6,13.6,0,0,1,20,25.91a11.43,11.43,0,0,1-6.14-1.42A.69.69,0,0,0,12.82,25.33Z"/></g></g></g></g></svg>