<svg xmlns="http://www.w3.org/2000/svg" xmlns:xlink="http://www.w3.org/1999/xlink" viewBox="0 0 40 39.33"><defs><style>.cls-1{fill:url(#鍊踑臇蜸馯鳺艜_205);}.cls-2{fill:url(#鍊踑臇蜸馯鳺艜_173);}.cls-3{fill:url(#鍊踑臇蜸馯鳺艜_223);}.cls-4{fill:url(#鍊踑臇蜸馯鳺艜_173-2);}.cls-5{fill:url(#鍊踑臇蜸馯鳺艜_117);}.cls-6{fill:url(#鍊踑臇蜸馯鳺艜_21);}.cls-7{fill:url(#鍊踑臇蜸馯鳺艜_274);}.cls-8{fill:url(#鍊踑臇蜸馯鳺艜_274-2);}.cls-9{fill:url(#鍊踑臇蜸馯鳺艜_395);}.cls-10{fill:url(#鍊踑臇蜸馯鳺艜_274-3);}.cls-11{fill:url(#鍊踑臇蜸馯鳺艜_395-2);}</style><linearGradient id="鍊踑臇蜸馯鳺艜_205" x1="20" y1="39.33" x2="20" gradientUnits="userSpaceOnUse"><stop offset="0.25" stop-color="#fed223"/><stop offset="0.44" stop-color="#fed62c"/><stop offset="0.74" stop-color="#fee244"/><stop offset="1" stop-color="#feef5e"/></linearGradient><linearGradient id="鍊踑臇蜸馯鳺艜_173" x1="20" y1="39.33" x2="20" y2="17.46" gradientUnits="userSpaceOnUse"><stop offset="0.25" stop-color="#feb123"/><stop offset="0.54" stop-color="#feba23"/><stop offset="1" stop-color="#fed223"/></linearGradient><linearGradient id="鍊踑臇蜸馯鳺艜_223" x1="20" y1="1.68" x2="20" y2="4.35" gradientUnits="userSpaceOnUse"><stop offset="0.25" stop-color="#fff8b5"/><stop offset="0.39" stop-color="#fff7ac"/><stop offset="0.62" stop-color="#fff594"/><stop offset="0.91" stop-color="#fef06c"/><stop offset="1" stop-color="#feef5e"/></linearGradient><linearGradient id="鍊踑臇蜸馯鳺艜_173-2" x1="20" y1="19.74" x2="20" y2="5.08" xlink:href="#鍊踑臇蜸馯鳺艜_173"/><linearGradient id="鍊踑臇蜸馯鳺艜_117" x1="20.01" y1="32.77" x2="20.01" y2="19.86" gradientUnits="userSpaceOnUse"><stop offset="0.25" stop-color="#85321b"/><stop offset="0.42" stop-color="#7c2f1a"/><stop offset="0.7" stop-color="#642516"/><stop offset="1" stop-color="#421811"/></linearGradient><linearGradient id="鍊踑臇蜸馯鳺艜_21" x1="9.76" y1="22.86" x2="30.15" y2="22.86" gradientUnits="userSpaceOnUse"><stop offset="0" stop-color="#9bafba"/><stop offset="0.03" stop-color="#abbcc5"/><stop offset="0.11" stop-color="#c9d4da"/><stop offset="0.2" stop-color="#e1e7ea"/><stop offset="0.28" stop-color="#f2f4f6"/><stop offset="0.38" stop-color="#fcfcfd"/><stop offset="0.5" stop-color="#fff"/><stop offset="0.62" stop-color="#fcfcfd"/><stop offset="0.72" stop-color="#f2f4f6"/><stop offset="0.8" stop-color="#e1e7ea"/><stop offset="0.89" stop-color="#c9d4da"/><stop offset="0.97" stop-color="#abbcc5"/><stop offset="1" stop-color="#9bafba"/></linearGradient><linearGradient id="鍊踑臇蜸馯鳺艜_274" x1="19.97" y1="28.43" x2="19.97" y2="31.44" gradientUnits="userSpaceOnUse"><stop offset="0.25" stop-color="#f55151"/><stop offset="0.56" stop-color="#ee4a48"/><stop offset="1" stop-color="#df3a33"/></linearGradient><linearGradient id="鍊踑臇蜸馯鳺艜_274-2" x1="9.98" y1="18.41" x2="9.98" y2="3.74" xlink:href="#鍊踑臇蜸馯鳺艜_274"/><linearGradient id="鍊踑臇蜸馯鳺艜_395" x1="9.98" y1="4.39" x2="9.98" y2="18.41" gradientUnits="userSpaceOnUse"><stop offset="0.25" stop-color="#df3a33"/><stop offset="0.51" stop-color="#d63831"/><stop offset="0.94" stop-color="#be342b"/><stop offset="1" stop-color="#ba332a"/></linearGradient><linearGradient id="鍊踑臇蜸馯鳺艜_274-3" x1="30.01" y1="18.41" x2="30.01" y2="3.74" xlink:href="#鍊踑臇蜸馯鳺艜_274"/><linearGradient id="鍊踑臇蜸馯鳺艜_395-2" x1="30.01" y1="4.39" x2="30.01" y2="18.41" xlink:href="#鍊踑臇蜸馯鳺艜_395"/></defs><title>資產 8</title><g id="圖層_2" data-name="圖層 2"><g id="Icons"><g id="Icon"><g id="Body"><path id="Body-2" data-name="Body" class="cls-1" d="M40,21c0,11.74-8.07,18.33-20,18.33S0,32.74,0,21C0,8.82,7.62,0,20,0S40,8.82,40,21Z"/><path class="cls-2" d="M20,34.33C3.59,33.89,1.61,27.14.23,17.46A27.22,27.22,0,0,0,0,21C0,32.74,8.07,39.33,20,39.33S40,32.74,40,21a27.22,27.22,0,0,0-.23-3.54C38.39,27.14,34.83,34.72,20,34.33Z"/><path class="cls-3" d="M23.49,2.68c-.11.5-.5,1.67-3.49,1.67s-3.38-1.17-3.49-1.67.92-1,3.49-1S23.61,2.19,23.49,2.68Z"/></g><path class="cls-4" d="M21.52,11.32a5.42,5.42,0,0,1-.06-2.23c0-.17.08-.35.13-.52l.06-.15.12-.34.08-.17c0-.1.09-.2.15-.3l.09-.16a2.2,2.2,0,0,1,.18-.28L22.36,7l.22-.27.09-.11.26-.27L23,6.3A3.88,3.88,0,0,1,23.33,6l.06,0a4.68,4.68,0,0,1,.4-.27,4.42,4.42,0,0,1,3.13-.56,5.13,5.13,0,0,1,3.63,2.92A5.13,5.13,0,0,1,35,6.77a3.19,3.19,0,0,1,.44.13,19.28,19.28,0,0,1,3.1,5.55v0a5.39,5.39,0,0,1-.91,2,10.78,10.78,0,0,1-3,2.71,21.92,21.92,0,0,1-5.24,2.41,2.58,2.58,0,0,1-1.2.06,2.73,2.73,0,0,1-.72-.27,2.19,2.19,0,0,1-.37-.25l-.47-.39a23.31,23.31,0,0,1-1.94-1.93c-.25-.28-.5-.58-.74-.88s-.53-.68-.77-1A10.74,10.74,0,0,1,21.52,11.32ZM17,6.3A3.88,3.88,0,0,0,16.67,6l-.06,0a4.43,4.43,0,0,0-3.53-.83A5.13,5.13,0,0,0,9.45,8.08,5.13,5.13,0,0,0,5,6.77a3.19,3.19,0,0,0-.44.13,19.28,19.28,0,0,0-3.1,5.55v0a7.45,7.45,0,0,0,3.19,4.27,21.28,21.28,0,0,0,5.93,2.88,2.51,2.51,0,0,0,.6.1,2.93,2.93,0,0,0,.6,0,2.73,2.73,0,0,0,.57-.19,2.85,2.85,0,0,0,.52-.33c.26-.21.56-.47.88-.76.48-.45,1-1,1.53-1.56,1.57-1.75,3.12-4,3.34-6.29a4.89,4.89,0,0,0-.06-1.48c0-.18-.08-.35-.13-.52l-.06-.15-.12-.34-.08-.17c0-.1-.09-.2-.15-.3l-.09-.16a2.2,2.2,0,0,0-.18-.28L17.64,7l-.22-.27-.09-.11-.26-.27Z"/><g id="Face"><path class="cls-5" d="M31.37,21.57A34.59,34.59,0,0,0,20,19.87a33.8,33.8,0,0,0-11.37,1.7c-1.46.54-.83,1.93-.59,2.6a12.69,12.69,0,0,0,12,8.6c5.22,0,10-3.06,12.23-9.35A1.44,1.44,0,0,0,31.37,21.57Z"/><path class="cls-6" d="M30.15,22.57A34.83,34.83,0,0,0,20,21.19a33.87,33.87,0,0,0-10.2,1.4c.16,1.13,1.43,1.94,10.2,1.94S30,23.71,30.15,22.57Z"/><path class="cls-7" d="M25.22,30.12c-.77-1.5-3.9-2.43-5.25-.93-1.34-1.5-4.47-.57-5.25.93A11.13,11.13,0,0,0,25.22,30.12Z"/><g id="Hearts"><path class="cls-8" d="M13.08,3.83A5.11,5.11,0,0,0,9.45,6.75,5.1,5.1,0,0,0,5,5.44a4.76,4.76,0,0,0-3.54,5.72C2.21,15,8,17.53,10.56,18.3a2.49,2.49,0,0,0,2.29-.45c2.1-1.71,6.46-6.21,5.69-10.09A4.75,4.75,0,0,0,13.08,3.83Z"/><path class="cls-9" d="M18.54,7.76a5.06,5.06,0,0,0-2.33-3.37,5,5,0,0,1,1.42,2.08c.66,3.35-1.7,6.24-3.8,8.19a4.25,4.25,0,0,1-4.51,1.23c-3-1-6.42-2.42-7.22-6a3.72,3.72,0,0,1,1.62-4,4.91,4.91,0,0,0-2.28,5.26C2.21,15,8,17.53,10.56,18.3a2.49,2.49,0,0,0,2.29-.45C15,16.14,19.31,11.64,18.54,7.76Z"/><path class="cls-10" d="M26.92,3.83a5.11,5.11,0,0,1,3.63,2.92A5.1,5.1,0,0,1,35,5.44a4.76,4.76,0,0,1,3.54,5.72C37.79,15,32,17.53,29.44,18.3a2.48,2.48,0,0,1-2.29-.45c-2.1-1.71-6.46-6.21-5.69-10.09A4.75,4.75,0,0,1,26.92,3.83Z"/><path class="cls-11" d="M21.46,7.76a5.06,5.06,0,0,1,2.33-3.37,5,5,0,0,0-1.42,2.08c-.66,3.35,1.7,6.24,3.8,8.19a4.25,4.25,0,0,0,4.51,1.23c3-1,6.42-2.42,7.22-6a3.72,3.72,0,0,0-1.62-4,4.91,4.91,0,0,1,2.28,5.26C37.79,15,32,17.53,29.44,18.3a2.48,2.48,0,0,1-2.29-.45C25.05,16.14,20.69,11.64,21.46,7.76Z"/></g></g></g></g></g></svg>